<svg width="588" height="651" viewBox="0 0 588 651" fill="none" xmlns="http://www.w3.org/2000/svg">
<g filter="url(#filter0_d_254_67)">
<path d="M197.085 569L207.834 544.883H213.347L224.131 569H218.274L209.454 547.708H211.659L202.804 569H197.085ZM202.46 563.832L203.941 559.594H216.344L217.86 563.832H202.46ZM237.838 569.413C235.978 569.413 234.243 569.115 232.636 568.518C231.051 567.897 229.673 567.025 228.501 565.899C227.33 564.774 226.411 563.453 225.745 561.937C225.102 560.421 224.78 558.756 224.78 556.941C224.78 555.127 225.102 553.462 225.745 551.946C226.411 550.43 227.33 549.109 228.501 547.984C229.696 546.858 231.085 545.997 232.67 545.4C234.255 544.779 235.989 544.469 237.872 544.469C239.963 544.469 241.846 544.837 243.523 545.572C245.222 546.284 246.647 547.34 247.795 548.742L244.212 552.049C243.385 551.107 242.466 550.407 241.456 549.947C240.445 549.465 239.342 549.224 238.148 549.224C237.023 549.224 235.989 549.408 235.047 549.775C234.106 550.143 233.29 550.671 232.601 551.36C231.912 552.049 231.372 552.864 230.982 553.806C230.614 554.748 230.431 555.793 230.431 556.941C230.431 558.09 230.614 559.135 230.982 560.077C231.372 561.018 231.912 561.834 232.601 562.523C233.29 563.212 234.106 563.74 235.047 564.108C235.989 564.475 237.023 564.659 238.148 564.659C239.342 564.659 240.445 564.429 241.456 563.97C242.466 563.487 243.385 562.764 244.212 561.799L247.795 565.107C246.647 566.508 245.222 567.576 243.523 568.311C241.846 569.046 239.951 569.413 237.838 569.413ZM247.587 569L258.336 544.883H263.849L274.633 569H268.776L259.956 547.708H262.161L253.306 569H247.587ZM252.962 563.832L254.443 559.594H266.846L268.362 563.832H252.962ZM277.135 569V544.883H288.091C290.709 544.883 293.018 545.388 295.016 546.399C297.014 547.386 298.576 548.776 299.702 550.568C300.827 552.359 301.39 554.484 301.39 556.941C301.39 559.376 300.827 561.501 299.702 563.315C298.576 565.107 297.014 566.508 295.016 567.519C293.018 568.506 290.709 569 288.091 569H277.135ZM282.716 564.418H287.815C289.423 564.418 290.813 564.119 291.984 563.522C293.178 562.902 294.097 562.029 294.74 560.904C295.406 559.778 295.739 558.457 295.739 556.941C295.739 555.402 295.406 554.082 294.74 552.979C294.097 551.854 293.178 550.992 291.984 550.395C290.813 549.775 289.423 549.465 287.815 549.465H282.716V564.418ZM305.599 569V544.883H323.825V549.362H311.146V564.521H324.273V569H305.599ZM310.733 558.94V554.599H322.343V558.94H310.733ZM328.714 569V544.883H333.33L343.597 561.903H341.151L351.246 544.883H355.828L355.897 569H350.66L350.626 552.91H351.59L343.528 566.45H341.013L332.779 552.91H333.95V569H328.714ZM361.619 569V544.883H367.2V569H361.619ZM384.466 569.413C382.605 569.413 380.871 569.115 379.263 568.518C377.678 567.897 376.3 567.025 375.129 565.899C373.958 564.774 373.039 563.453 372.373 561.937C371.73 560.421 371.408 558.756 371.408 556.941C371.408 555.127 371.73 553.462 372.373 551.946C373.039 550.43 373.958 549.109 375.129 547.984C376.323 546.858 377.713 545.997 379.298 545.4C380.883 544.779 382.617 544.469 384.5 544.469C386.59 544.469 388.474 544.837 390.15 545.572C391.85 546.284 393.274 547.34 394.423 548.742L390.84 552.049C390.013 551.107 389.094 550.407 388.083 549.947C387.073 549.465 385.97 549.224 384.776 549.224C383.65 549.224 382.617 549.408 381.675 549.775C380.733 550.143 379.918 550.671 379.229 551.36C378.54 552.049 378 552.864 377.61 553.806C377.242 554.748 377.058 555.793 377.058 556.941C377.058 558.09 377.242 559.135 377.61 560.077C378 561.018 378.54 561.834 379.229 562.523C379.918 563.212 380.733 563.74 381.675 564.108C382.617 564.475 383.65 564.659 384.776 564.659C385.97 564.659 387.073 564.429 388.083 563.97C389.094 563.487 390.013 562.764 390.84 561.799L394.423 565.107C393.274 566.508 391.85 567.576 390.15 568.311C388.474 569.046 386.579 569.413 384.466 569.413ZM238.947 611V586.883H257.173V591.362H244.494V606.521H257.621V611H238.947ZM244.081 600.94V596.599H255.691V600.94H244.081ZM268.96 611L258.555 586.883H264.585L273.68 608.244H270.132L279.365 586.883H284.912L274.473 611H268.96ZM286.926 611V586.883H305.151V591.362H292.473V606.521H305.599V611H286.926ZM292.059 600.94V596.599H303.67V600.94H292.059ZM310.04 611V586.883H314.657L328.886 604.247H326.647V586.883H332.159V611H327.577L313.313 593.636H315.553V611H310.04ZM342.861 611V591.431H335.143V586.883H356.16V591.431H348.442V611H342.861Z" fill="white"/>
</g>
<path d="M46.8641 77.9766V60.4766H60.0891V63.7266H50.8891V74.7266H60.4141V77.9766H46.8641ZM50.5891 70.6766V67.5266H59.0141V70.6766H50.5891ZM63.6365 77.9766V60.4766H71.5865C73.4865 60.4766 75.1615 60.8432 76.6115 61.5766C78.0615 62.2932 79.1949 63.3016 80.0115 64.6016C80.8282 65.9016 81.2365 67.4432 81.2365 69.2266C81.2365 70.9932 80.8282 72.5349 80.0115 73.8516C79.1949 75.1516 78.0615 76.1682 76.6115 76.9016C75.1615 77.6182 73.4865 77.9766 71.5865 77.9766H63.6365ZM67.6865 74.6516H71.3865C72.5532 74.6516 73.5615 74.4349 74.4115 74.0016C75.2782 73.5516 75.9449 72.9182 76.4115 72.1016C76.8949 71.2849 77.1365 70.3266 77.1365 69.2266C77.1365 68.1099 76.8949 67.1516 76.4115 66.3516C75.9449 65.5349 75.2782 64.9099 74.4115 64.4766C73.5615 64.0266 72.5532 63.8016 71.3865 63.8016H67.6865V74.6516ZM92.0658 78.2766C89.5825 78.2766 87.6408 77.5849 86.2408 76.2016C84.8408 74.8182 84.1408 72.8432 84.1408 70.2766V60.4766H88.1908V70.1266C88.1908 71.7932 88.5325 72.9932 89.2158 73.7266C89.8992 74.4599 90.8575 74.8266 92.0908 74.8266C93.3242 74.8266 94.2825 74.4599 94.9658 73.7266C95.6492 72.9932 95.9908 71.7932 95.9908 70.1266V60.4766H99.9908V70.2766C99.9908 72.8432 99.2908 74.8182 97.8908 76.2016C96.4908 77.5849 94.5492 78.2766 92.0658 78.2766ZM112.368 78.2766C111.018 78.2766 109.76 78.0599 108.593 77.6266C107.443 77.1766 106.443 76.5432 105.593 75.7266C104.743 74.9099 104.076 73.9516 103.593 72.8516C103.126 71.7516 102.893 70.5432 102.893 69.2266C102.893 67.9099 103.126 66.7016 103.593 65.6016C104.076 64.5016 104.743 63.5432 105.593 62.7266C106.46 61.9099 107.468 61.2849 108.618 60.8516C109.768 60.4016 111.026 60.1766 112.393 60.1766C113.91 60.1766 115.276 60.4432 116.493 60.9766C117.726 61.4932 118.76 62.2599 119.593 63.2766L116.993 65.6766C116.393 64.9932 115.726 64.4849 114.993 64.1516C114.26 63.8016 113.46 63.6266 112.593 63.6266C111.776 63.6266 111.026 63.7599 110.343 64.0266C109.66 64.2932 109.068 64.6766 108.568 65.1766C108.068 65.6766 107.676 66.2682 107.393 66.9516C107.126 67.6349 106.993 68.3932 106.993 69.2266C106.993 70.0599 107.126 70.8182 107.393 71.5016C107.676 72.1849 108.068 72.7766 108.568 73.2766C109.068 73.7766 109.66 74.1599 110.343 74.4266C111.026 74.6932 111.776 74.8266 112.593 74.8266C113.46 74.8266 114.26 74.6599 114.993 74.3266C115.726 73.9766 116.393 73.4516 116.993 72.7516L119.593 75.1516C118.76 76.1682 117.726 76.9432 116.493 77.4766C115.276 78.0099 113.901 78.2766 112.368 78.2766ZM119.442 77.9766L127.242 60.4766H131.242L139.067 77.9766H134.817L128.417 62.5266H130.017L123.592 77.9766H119.442ZM123.342 74.2266L124.417 71.1516H133.417L134.517 74.2266H123.342ZM143.629 77.9766V63.7766H138.029V60.4766H153.279V63.7766H147.679V77.9766H143.629ZM155.458 77.9766V60.4766H159.508V77.9766H155.458ZM172.161 78.2766C170.778 78.2766 169.494 78.0516 168.311 77.6016C167.144 77.1516 166.128 76.5182 165.261 75.7016C164.411 74.8849 163.744 73.9266 163.261 72.8266C162.794 71.7266 162.561 70.5266 162.561 69.2266C162.561 67.9266 162.794 66.7266 163.261 65.6266C163.744 64.5266 164.419 63.5682 165.286 62.7516C166.153 61.9349 167.169 61.3016 168.336 60.8516C169.503 60.4016 170.769 60.1766 172.136 60.1766C173.519 60.1766 174.786 60.4016 175.936 60.8516C177.103 61.3016 178.111 61.9349 178.961 62.7516C179.828 63.5682 180.503 64.5266 180.986 65.6266C181.469 66.7099 181.711 67.9099 181.711 69.2266C181.711 70.5266 181.469 71.7349 180.986 72.8516C180.503 73.9516 179.828 74.9099 178.961 75.7266C178.111 76.5266 177.103 77.1516 175.936 77.6016C174.786 78.0516 173.528 78.2766 172.161 78.2766ZM172.136 74.8266C172.919 74.8266 173.636 74.6932 174.286 74.4266C174.953 74.1599 175.536 73.7766 176.036 73.2766C176.536 72.7766 176.919 72.1849 177.186 71.5016C177.469 70.8182 177.611 70.0599 177.611 69.2266C177.611 68.3932 177.469 67.6349 177.186 66.9516C176.919 66.2682 176.536 65.6766 176.036 65.1766C175.553 64.6766 174.978 64.2932 174.311 64.0266C173.644 63.7599 172.919 63.6266 172.136 63.6266C171.353 63.6266 170.628 63.7599 169.961 64.0266C169.311 64.2932 168.736 64.6766 168.236 65.1766C167.736 65.6766 167.344 66.2682 167.061 66.9516C166.794 67.6349 166.661 68.3932 166.661 69.2266C166.661 70.0432 166.794 70.8016 167.061 71.5016C167.344 72.1849 167.728 72.7766 168.211 73.2766C168.711 73.7766 169.294 74.1599 169.961 74.4266C170.628 74.6932 171.353 74.8266 172.136 74.8266ZM184.755 77.9766V60.4766H188.105L198.43 73.0766H196.805V60.4766H200.805V77.9766H197.48L187.13 65.3766H188.755V77.9766H184.755Z" fill="white"/>
<path d="M266.876 385.167C275.744 387.237 284.845 388.292 294.004 388.292C298.021 388.292 302.027 388.089 306.008 387.686V415.278C306.008 425.641 314.445 434.058 324.802 434.058C330.193 434.058 335.064 431.777 338.495 428.129C341.927 431.777 346.798 434.058 352.189 434.058C362.546 434.058 370.983 425.641 370.983 415.278V369.209L372.774 370.998C374.518 372.74 376.587 374.121 378.865 375.063C381.142 376.005 383.582 376.49 386.046 376.49C388.511 376.49 390.951 376.005 393.228 375.063C395.506 374.121 397.575 372.74 399.319 370.998C401.062 369.256 402.446 367.188 403.39 364.912C404.334 362.635 404.82 360.195 404.82 357.731C404.82 355.266 404.334 352.826 403.39 350.55C403.244 350.198 403.088 349.851 402.921 349.51L420.065 341.417V408.698C420.065 426.956 411.006 444.07 395.123 452.936C368.668 467.676 326.347 488 294.004 488C261.66 488 219.339 467.694 192.884 452.918C177.001 444.07 167.942 426.956 167.942 408.68V341.417L204.144 358.506L193.383 369.292L193.38 369.296C192.008 370.668 190.92 372.297 190.177 374.09C189.433 375.884 189.05 377.808 189.05 379.751C189.05 381.694 189.433 383.617 190.177 385.412C190.92 387.207 192.01 388.837 193.383 390.21C194.757 391.583 196.387 392.671 198.18 393.414C199.974 394.157 201.896 394.539 203.837 394.539C205.778 394.539 207.7 394.157 209.493 393.414C211.287 392.671 212.917 391.583 214.29 390.21L215.701 388.799V425.117C215.701 433.286 222.346 439.921 230.503 439.921C234.749 439.921 238.586 438.123 241.288 435.247C243.991 438.123 247.828 439.921 252.074 439.921C260.231 439.921 266.876 433.286 266.876 425.117V385.167Z" fill="white"/>
<path fill-rule="evenodd" clip-rule="evenodd" d="M294.003 162C307.807 162 321.439 165.087 333.91 171.037L454.351 227.796C480.559 240.135 480.559 282.872 454.351 295.211L382.689 328.982L373.575 319.854C373.511 319.791 373.444 319.724 373.375 319.654L373.215 319.493C371.326 317.588 367.643 313.876 361.826 311.359C363.588 307.967 364.594 304.1 364.594 299.925C364.594 285.389 352.392 274.576 338.568 274.576C325.343 274.576 313.604 284.47 312.61 298.053C311.173 295.705 310.172 293.096 309.676 290.35C308.972 286.007 306.763 282.049 303.436 279.166C300.06 276.241 295.753 274.615 291.287 274.576L291.236 274.576H291.184C279.987 274.576 270.78 284.483 272.522 296.085L272.538 296.192L272.556 296.298C273.558 302.233 275.441 307.954 278.12 313.281C274.728 313.391 271.472 314.663 268.902 316.892C266.281 319.164 264.542 322.285 263.987 325.708C263.597 327.874 262.808 329.93 261.676 331.781C260.893 321.074 251.647 313.273 241.232 313.273C230.343 313.273 220.733 321.798 220.733 333.257C220.733 334.319 220.815 335.356 220.974 336.364L145.5 300.802V370.063C145.5 373.662 144.077 377.114 141.545 379.659C139.014 382.203 135.58 383.633 131.999 383.633C128.419 383.633 124.985 382.203 122.453 379.659C119.921 377.114 118.499 373.662 118.499 370.063V280.447C109.229 262.661 114.287 236.915 133.655 227.796L254.096 171.037C266.567 165.087 280.198 162 294.003 162ZM277.308 215.74L282.403 220.731L281.184 227.88L281.144 228.226L281.138 228.328C281.087 229.193 281.265 230.058 281.656 230.833C282.047 231.608 282.637 232.268 283.368 232.742C284.099 233.217 284.944 233.488 285.817 233.527C286.69 233.566 287.557 233.37 288.328 232.962L294.597 229.645L300.934 233.006L301.249 233.151L301.341 233.188C302.153 233.51 303.037 233.609 303.901 233.474C304.765 233.339 305.576 232.975 306.25 232.423C306.925 231.871 307.439 231.15 307.742 230.336C308.045 229.523 308.127 228.644 307.981 227.79L307.981 227.788L306.777 220.731L311.948 215.666L312.195 215.396L312.262 215.313C312.807 214.638 313.162 213.832 313.294 212.978C313.427 212.123 313.332 211.249 313.019 210.442C312.706 209.635 312.184 208.924 311.506 208.382C310.827 207.84 310.015 207.486 309.153 207.36L302.135 206.335L298.995 199.93C298.593 199.109 297.968 198.414 297.19 197.927C296.412 197.439 295.511 197.18 294.59 197.18C293.67 197.18 292.769 197.439 291.991 197.927C291.213 198.413 290.589 199.107 290.187 199.928L287.045 206.335L279.926 207.374L279.569 207.447L279.469 207.474C278.626 207.699 277.861 208.144 277.25 208.762C276.638 209.379 276.203 210.147 275.985 210.985C275.768 211.823 275.775 212.704 276.007 213.538C276.238 214.371 276.685 215.131 277.305 215.738L277.308 215.74ZM313.589 222.626L313.591 222.628L317.436 226.359L316.514 231.72L316.476 232.037L316.47 232.14C316.421 232.962 316.593 233.782 316.966 234.516C317.339 235.249 317.901 235.869 318.591 236.313C319.282 236.757 320.078 237.009 320.897 237.045C321.715 237.081 322.529 236.9 323.256 236.519L323.257 236.519L328.016 234.025L332.846 236.562L333.134 236.693L333.225 236.729C333.989 237.029 334.82 237.121 335.631 236.996C336.442 236.87 337.206 236.532 337.845 236.014C338.483 235.496 338.973 234.817 339.264 234.046C339.554 233.275 339.633 232.441 339.493 231.629L339.493 231.627L338.585 226.359L342.506 222.555L342.733 222.308L342.801 222.226C343.319 221.59 343.659 220.827 343.786 220.016C343.913 219.204 343.822 218.374 343.522 217.609C343.223 216.845 342.726 216.175 342.083 215.666C341.441 215.158 340.675 214.829 339.866 214.712L334.546 213.943L332.17 209.143L332.169 209.142C331.785 208.365 331.192 207.713 330.457 207.258C329.722 206.802 328.875 206.561 328.011 206.561C327.148 206.561 326.3 206.802 325.565 207.258C324.831 207.713 324.237 208.365 323.853 209.141L323.852 209.143L321.476 213.942L316.056 214.725L315.731 214.791L315.631 214.818C314.839 215.027 314.116 215.443 313.536 216.023C312.956 216.604 312.54 217.329 312.331 218.124C312.123 218.92 312.13 219.756 312.352 220.548C312.573 221.339 313.001 222.056 313.589 222.626ZM342.906 239.043L342.908 239.045L346.753 242.776L345.83 248.137L345.793 248.454L345.787 248.557C345.738 249.38 345.909 250.2 346.283 250.933C346.656 251.666 347.217 252.286 347.908 252.73C348.598 253.174 349.394 253.427 350.213 253.463C351.032 253.499 351.846 253.317 352.572 252.937L352.574 252.936L357.333 250.442L362.163 252.979L362.45 253.111L362.541 253.147C363.306 253.447 364.136 253.539 364.947 253.413C365.758 253.288 366.523 252.949 367.161 252.431C367.8 251.914 368.29 251.234 368.58 250.463C368.87 249.692 368.949 248.858 368.809 248.046L368.809 248.045L367.902 242.776L371.823 238.972L372.05 238.726L372.117 238.643C372.635 238.007 372.976 237.245 373.103 236.433C373.23 235.622 373.138 234.791 372.839 234.027C372.539 233.262 372.042 232.592 371.4 232.084C370.758 231.575 369.992 231.247 369.183 231.13L363.862 230.36L361.487 225.561L361.486 225.559C361.102 224.783 360.508 224.13 359.774 223.675C359.039 223.219 358.191 222.978 357.328 222.978C356.464 222.978 355.617 223.219 354.882 223.675C354.148 224.13 353.554 224.782 353.17 225.559L353.169 225.561L350.792 230.359L345.372 231.143L345.047 231.209L344.948 231.235C344.156 231.445 343.433 231.86 342.853 232.441C342.273 233.021 341.856 233.746 341.648 234.541C341.439 235.337 341.446 236.173 341.668 236.965C341.89 237.756 342.317 238.473 342.906 239.043ZM369.877 262.497L369.879 262.499L373.724 266.229L372.802 271.591L372.764 271.908L372.758 272.011C372.709 272.833 372.88 273.653 373.254 274.386C373.627 275.12 374.188 275.74 374.879 276.183C375.57 276.627 376.365 276.88 377.184 276.916C378.003 276.952 378.817 276.771 379.544 276.39L379.545 276.389L384.304 273.895L389.134 276.432L389.421 276.564L389.513 276.6C390.277 276.9 391.107 276.992 391.918 276.866C392.73 276.741 393.494 276.403 394.132 275.885C394.771 275.367 395.261 274.688 395.551 273.916C395.841 273.146 395.921 272.311 395.781 271.499L395.78 271.498L394.873 266.229L398.794 262.425L399.021 262.179L399.088 262.096C399.606 261.46 399.947 260.698 400.074 259.886C400.201 259.075 400.11 258.244 399.81 257.48C399.51 256.715 399.013 256.045 398.371 255.537C397.729 255.029 396.963 254.7 396.154 254.583L390.834 253.813L388.458 249.014L388.457 249.012C388.073 248.236 387.479 247.584 386.745 247.128C386.01 246.673 385.163 246.432 384.299 246.432C383.435 246.432 382.588 246.673 381.853 247.128C381.119 247.584 380.525 248.236 380.141 249.012L380.14 249.014L377.764 253.813L372.344 254.596L372.018 254.662L371.919 254.688C371.127 254.898 370.404 255.313 369.824 255.894C369.244 256.474 368.828 257.199 368.619 257.995C368.41 258.79 368.417 259.627 368.639 260.418C368.861 261.209 369.288 261.926 369.877 262.497ZM245.575 222.626L245.577 222.628L249.422 226.359L248.499 231.72L248.462 232.037L248.456 232.14C248.407 232.962 248.578 233.782 248.952 234.516C249.325 235.249 249.886 235.869 250.577 236.313C251.268 236.757 252.063 237.009 252.882 237.045C253.701 237.081 254.515 236.9 255.241 236.519L255.243 236.519L260.002 234.025L264.832 236.562L265.119 236.693L265.211 236.729C265.975 237.029 266.805 237.121 267.616 236.996C268.427 236.87 269.192 236.532 269.83 236.014C270.469 235.496 270.959 234.817 271.249 234.046C271.539 233.275 271.618 232.441 271.478 231.629L271.478 231.627L270.571 226.359L274.492 222.555L274.719 222.308L274.786 222.226C275.304 221.59 275.645 220.827 275.772 220.016C275.899 219.204 275.807 218.374 275.508 217.609C275.208 216.845 274.711 216.175 274.069 215.666C273.427 215.158 272.661 214.829 271.852 214.712L266.532 213.943L264.156 209.143L264.155 209.142C263.771 208.365 263.177 207.713 262.443 207.258C261.708 206.802 260.861 206.561 259.997 206.561C259.133 206.561 258.286 206.802 257.551 207.258C256.817 207.713 256.223 208.365 255.839 209.141L255.838 209.143L253.461 213.942L248.042 214.725L247.716 214.791L247.617 214.818C246.825 215.027 246.102 215.443 245.522 216.023C244.942 216.604 244.525 217.329 244.317 218.124C244.108 218.92 244.115 219.756 244.337 220.548C244.559 221.339 244.986 222.056 245.575 222.626ZM216.258 239.043L216.26 239.045L220.105 242.776L219.183 248.137L219.145 248.454L219.139 248.557C219.09 249.38 219.262 250.2 219.635 250.933C220.008 251.666 220.57 252.286 221.26 252.73C221.951 253.174 222.747 253.427 223.566 253.463C224.384 253.499 225.198 253.317 225.925 252.937L225.926 252.936L230.685 250.442L235.515 252.979L235.803 253.111L235.894 253.147C236.658 253.447 237.489 253.539 238.3 253.413C239.111 253.288 239.875 252.949 240.514 252.431C241.152 251.914 241.643 251.234 241.933 250.463C242.223 249.692 242.302 248.858 242.162 248.046L242.162 248.045L241.254 242.776L245.176 238.972L245.402 238.726L245.47 238.643C245.988 238.007 246.328 237.245 246.455 236.433C246.582 235.622 246.491 234.791 246.191 234.027C245.892 233.262 245.395 232.592 244.752 232.084C244.11 231.575 243.344 231.247 242.535 231.13L237.215 230.36L234.838 225.559C234.454 224.783 233.861 224.13 233.126 223.675C232.391 223.219 231.544 222.978 230.68 222.978C229.817 222.978 228.969 223.219 228.234 223.675C227.5 224.13 226.907 224.782 226.522 225.559L226.521 225.561L224.145 230.359L218.725 231.143L218.4 231.209L218.3 231.235C217.508 231.445 216.785 231.86 216.205 232.441C215.625 233.021 215.209 233.746 215 234.541C214.792 235.337 214.799 236.173 215.021 236.965C215.242 237.756 215.67 238.473 216.258 239.043ZM189.287 262.497L189.289 262.499L193.134 266.229L192.212 271.591L192.174 271.908L192.168 272.011C192.119 272.833 192.291 273.653 192.664 274.386C193.037 275.12 193.598 275.74 194.289 276.183C194.98 276.627 195.775 276.88 196.595 276.916C197.413 276.952 198.227 276.771 198.954 276.39L198.955 276.389L203.714 273.895L208.544 276.432L208.831 276.564L208.923 276.6C209.687 276.9 210.517 276.992 211.329 276.866C212.14 276.741 212.904 276.403 213.542 275.885C214.181 275.367 214.671 274.688 214.961 273.916C215.251 273.146 215.331 272.311 215.191 271.499L215.19 271.498L214.283 266.229L218.204 262.425L218.431 262.179L218.499 262.096C219.016 261.46 219.357 260.698 219.484 259.886C219.611 259.075 219.52 258.244 219.22 257.48C218.92 256.715 218.423 256.045 217.781 255.537C217.139 255.029 216.373 254.7 215.564 254.583L210.244 253.813L207.867 249.012C207.483 248.236 206.889 247.584 206.155 247.128C205.42 246.673 204.573 246.432 203.709 246.432C202.845 246.432 201.998 246.673 201.263 247.128C200.529 247.584 199.935 248.236 199.551 249.012L199.55 249.014L197.174 253.813L191.754 254.596L191.429 254.662L191.329 254.688C190.537 254.898 189.814 255.313 189.234 255.894C188.654 256.474 188.238 257.199 188.029 257.995C187.821 258.79 187.828 259.627 188.049 260.418C188.271 261.209 188.699 261.926 189.287 262.497Z" fill="#A68CD3"/>
<path d="M282.044 353.847C287.504 347.655 291.244 340.151 292.907 332.085C296.887 335.466 301.292 338.313 306.008 340.557V360.225C302.037 360.745 298.027 361.007 294.003 361.007C288.061 361.007 282.151 360.435 276.352 359.309C278.389 357.656 280.295 355.831 282.044 353.847Z" fill="#A68CD3"/>
<g filter="url(#filter1_i_254_67)">
<path d="M241.234 342.636C235.105 342.636 230.137 337.9 230.137 332.059C230.137 326.217 235.105 321.482 241.234 321.482C247.363 321.482 252.331 326.217 252.331 332.059C252.331 337.9 247.363 342.636 241.234 342.636Z" fill="#8646C4"/>
<path d="M220.299 354.441C222.403 352.337 226.019 348.453 233.034 348.453H246.741C253.09 348.423 259.226 346.165 264.078 342.073C268.931 337.982 272.192 332.317 273.292 326.067C273.485 324.799 274.123 323.641 275.092 322.801C276.061 321.961 277.298 321.493 278.581 321.482C281.873 321.482 284.463 324.395 283.977 327.631C282.8 334.61 279.696 341.121 275.014 346.43C270.332 351.739 264.259 355.635 257.481 357.677V423.973C257.481 426.939 255.052 429.367 252.084 429.367C249.116 429.367 246.688 426.939 246.688 423.973V397.001H235.894V423.973C235.894 426.939 233.466 429.367 230.498 429.367C227.53 429.367 225.101 426.939 225.101 423.973V364.906L207.617 382.383C207.117 382.882 206.524 383.279 205.871 383.549C205.218 383.819 204.519 383.958 203.812 383.958C203.106 383.958 202.406 383.819 201.753 383.549C201.1 383.279 200.507 382.882 200.008 382.383C199.508 381.884 199.112 381.291 198.841 380.638C198.571 379.986 198.432 379.286 198.432 378.58C198.432 377.874 198.571 377.174 198.841 376.522C199.112 375.869 199.508 375.276 200.008 374.777L220.299 354.441Z" fill="#8646C4"/>
</g>
<g filter="url(#filter2_i_254_67)">
<path d="M338.565 312.032C346.373 312.032 352.702 306.009 352.702 298.581C352.702 291.152 346.373 285.129 338.565 285.129C330.757 285.129 324.428 291.152 324.428 298.581C324.428 306.009 330.757 312.032 338.565 312.032Z" fill="#BA75DF"/>
<path d="M365.236 327.044C362.555 324.369 357.949 319.43 349.011 319.43H331.549C323.461 319.391 315.644 316.519 309.462 311.316C303.279 306.113 299.125 298.908 297.723 290.96C297.478 289.348 296.666 287.875 295.431 286.807C294.196 285.738 292.62 285.144 290.986 285.129C286.792 285.129 283.492 288.834 284.111 292.95C285.61 301.825 289.566 310.105 295.53 316.857C301.495 323.608 309.231 328.563 317.867 331.16V415.471C317.867 419.244 320.961 422.331 324.742 422.331C328.523 422.331 331.617 419.244 331.617 415.471V381.17H345.367V415.471C345.367 419.244 348.461 422.331 352.242 422.331C356.024 422.331 359.117 419.244 359.117 415.471V340.353L381.392 362.58C382.029 363.215 382.784 363.719 383.616 364.062C384.448 364.406 385.339 364.583 386.239 364.583C387.139 364.583 388.031 364.406 388.862 364.062C389.694 363.719 390.45 363.215 391.086 362.58C391.723 361.944 392.227 361.19 392.572 360.361C392.916 359.531 393.094 358.641 393.094 357.743C393.094 356.845 392.916 355.956 392.572 355.126C392.227 354.296 391.723 353.542 391.086 352.907L365.236 327.044Z" fill="#BA75DF"/>
</g>
<path d="M289.386 209.548L280.533 210.84L280.376 210.872C280.139 210.936 279.923 211.061 279.749 211.236C279.576 211.412 279.452 211.63 279.39 211.869C279.328 212.108 279.33 212.36 279.396 212.598C279.462 212.836 279.59 213.052 279.766 213.224L286.179 219.507L284.667 228.381L284.649 228.535C284.634 228.782 284.685 229.028 284.797 229.249C284.908 229.47 285.075 229.657 285.282 229.791C285.489 229.925 285.727 230.001 285.973 230.012C286.219 230.023 286.463 229.968 286.68 229.853L294.598 225.664L302.498 229.853L302.637 229.917C302.866 230.008 303.115 230.036 303.358 229.998C303.601 229.96 303.83 229.857 304.021 229.701C304.212 229.545 304.358 229.34 304.445 229.108C304.531 228.876 304.555 228.625 304.513 228.381L302.999 219.507L309.415 213.223L309.524 213.104C309.678 212.912 309.78 212.683 309.817 212.439C309.855 212.195 309.828 211.945 309.739 211.715C309.649 211.485 309.501 211.283 309.309 211.13C309.117 210.976 308.888 210.877 308.645 210.842L299.792 209.548L295.835 201.477C295.72 201.243 295.543 201.046 295.323 200.908C295.103 200.771 294.849 200.698 294.59 200.698C294.331 200.698 294.077 200.771 293.857 200.908C293.637 201.046 293.46 201.243 293.345 201.477L289.386 209.548Z" fill="#F6FFFF"/>
<path d="M323.808 217.16L316.657 218.193L316.53 218.219C316.339 218.269 316.164 218.37 316.024 218.51C315.884 218.65 315.784 218.825 315.734 219.016C315.684 219.207 315.685 219.409 315.739 219.599C315.792 219.789 315.895 219.962 316.037 220.1L321.218 225.126L319.996 232.226L319.981 232.349C319.97 232.546 320.011 232.743 320.101 232.92C320.191 233.097 320.326 233.246 320.493 233.354C320.66 233.461 320.852 233.522 321.051 233.531C321.249 233.539 321.446 233.495 321.622 233.403L328.017 230.052L334.398 233.403L334.51 233.455C334.695 233.527 334.896 233.55 335.093 233.519C335.289 233.489 335.474 233.407 335.628 233.282C335.782 233.157 335.9 232.993 335.97 232.807C336.04 232.622 336.059 232.421 336.025 232.226L334.803 225.126L339.985 220.099L340.072 220.004C340.197 219.851 340.279 219.667 340.31 219.472C340.34 219.277 340.318 219.077 340.246 218.893C340.174 218.709 340.054 218.548 339.899 218.425C339.744 218.302 339.559 218.222 339.363 218.194L332.212 217.16L329.016 210.702C328.923 210.515 328.78 210.358 328.603 210.248C328.425 210.137 328.22 210.079 328.011 210.079C327.801 210.079 327.596 210.137 327.419 210.248C327.241 210.358 327.098 210.515 327.005 210.702L323.808 217.16Z" fill="#F6FFFF"/>
<path d="M353.124 233.577L345.974 234.61L345.847 234.636C345.655 234.687 345.48 234.787 345.34 234.927C345.2 235.067 345.1 235.242 345.05 235.433C345 235.625 345.002 235.826 345.055 236.016C345.108 236.207 345.211 236.38 345.354 236.517L350.534 241.543L349.312 248.643L349.298 248.766C349.286 248.964 349.327 249.161 349.417 249.337C349.507 249.514 349.642 249.663 349.809 249.771C349.976 249.878 350.169 249.939 350.367 249.948C350.566 249.957 350.763 249.913 350.939 249.82L357.334 246.469L363.714 249.82L363.826 249.872C364.011 249.944 364.212 249.967 364.409 249.936C364.605 249.906 364.79 249.824 364.945 249.699C365.099 249.574 365.217 249.41 365.287 249.225C365.356 249.039 365.375 248.838 365.342 248.643L364.119 241.543L369.301 236.516L369.389 236.421C369.514 236.268 369.596 236.084 369.626 235.889C369.657 235.694 369.635 235.494 369.563 235.31C369.491 235.126 369.371 234.965 369.216 234.842C369.061 234.719 368.876 234.64 368.679 234.611L361.529 233.577L358.332 227.12C358.24 226.933 358.097 226.775 357.919 226.665C357.741 226.555 357.536 226.496 357.327 226.496C357.118 226.496 356.913 226.555 356.735 226.665C356.557 226.775 356.414 226.933 356.322 227.12L353.124 233.577Z" fill="#F6FFFF"/>
<path d="M380.096 257.03L372.945 258.064L372.819 258.089C372.627 258.14 372.452 258.241 372.312 258.381C372.172 258.521 372.072 258.695 372.022 258.887C371.972 259.078 371.973 259.279 372.027 259.47C372.08 259.66 372.183 259.833 372.325 259.971L377.506 264.997L376.284 272.096L376.269 272.219C376.258 272.417 376.299 272.614 376.389 272.791C376.479 272.967 376.614 273.117 376.781 273.224C376.948 273.331 377.14 273.393 377.339 273.401C377.537 273.41 377.734 273.366 377.91 273.274L384.305 269.922L390.686 273.274L390.798 273.325C390.983 273.398 391.184 273.42 391.381 273.39C391.577 273.359 391.762 273.277 391.916 273.152C392.07 273.027 392.189 272.864 392.258 272.678C392.328 272.492 392.347 272.292 392.313 272.096L391.091 264.997L396.273 259.97L396.361 259.875C396.485 259.721 396.567 259.538 396.598 259.343C396.628 259.147 396.606 258.948 396.534 258.764C396.462 258.58 396.343 258.418 396.187 258.295C396.032 258.173 395.847 258.093 395.651 258.065L388.501 257.03L385.304 250.573C385.212 250.386 385.068 250.228 384.891 250.118C384.713 250.008 384.508 249.95 384.299 249.95C384.089 249.95 383.884 250.008 383.707 250.118C383.529 250.228 383.386 250.386 383.293 250.573L380.096 257.03Z" fill="#F6FFFF"/>
<path d="M255.793 217.16L248.642 218.193L248.516 218.219C248.324 218.269 248.149 218.37 248.009 218.51C247.869 218.65 247.769 218.825 247.719 219.016C247.669 219.207 247.671 219.409 247.724 219.599C247.777 219.789 247.88 219.962 248.023 220.1L253.203 225.126L251.981 232.226L251.967 232.349C251.955 232.546 251.996 232.743 252.086 232.92C252.176 233.097 252.311 233.246 252.478 233.354C252.645 233.461 252.838 233.522 253.036 233.531C253.235 233.539 253.432 233.495 253.608 233.403L260.003 230.052L266.383 233.403L266.495 233.455C266.68 233.527 266.881 233.55 267.078 233.519C267.274 233.489 267.459 233.407 267.613 233.282C267.768 233.157 267.886 232.993 267.956 232.807C268.025 232.622 268.044 232.421 268.011 232.226L266.788 225.126L271.97 220.099L272.058 220.004C272.183 219.851 272.265 219.667 272.295 219.472C272.326 219.277 272.304 219.077 272.232 218.893C272.16 218.709 272.04 218.548 271.885 218.425C271.729 218.302 271.544 218.222 271.348 218.194L264.198 217.16L261.001 210.702C260.909 210.515 260.766 210.358 260.588 210.248C260.41 210.137 260.205 210.079 259.996 210.079C259.787 210.079 259.582 210.137 259.404 210.248C259.226 210.358 259.083 210.515 258.991 210.702L255.793 217.16Z" fill="#F6FFFF"/>
<path d="M226.477 233.577L219.326 234.61L219.199 234.636C219.008 234.687 218.833 234.787 218.693 234.927C218.553 235.067 218.453 235.242 218.403 235.433C218.352 235.625 218.354 235.826 218.408 236.016C218.461 236.207 218.564 236.38 218.706 236.517L223.887 241.543L222.665 248.643L222.65 248.766C222.639 248.964 222.68 249.161 222.77 249.337C222.859 249.514 222.995 249.663 223.162 249.771C223.329 249.878 223.521 249.939 223.72 249.948C223.918 249.957 224.115 249.913 224.291 249.82L230.686 246.469L237.067 249.82L237.179 249.872C237.364 249.944 237.565 249.967 237.762 249.936C237.958 249.906 238.143 249.824 238.297 249.699C238.451 249.574 238.569 249.41 238.639 249.225C238.709 249.039 238.728 248.838 238.694 248.643L237.472 241.543L242.654 236.516L242.741 236.421C242.866 236.268 242.948 236.084 242.979 235.889C243.009 235.694 242.987 235.494 242.915 235.31C242.843 235.126 242.723 234.965 242.568 234.842C242.413 234.719 242.228 234.64 242.032 234.611L234.881 233.577L231.685 227.12C231.592 226.933 231.449 226.775 231.272 226.665C231.094 226.555 230.889 226.496 230.68 226.496C230.47 226.496 230.265 226.555 230.088 226.665C229.91 226.775 229.767 226.933 229.674 227.12L226.477 233.577Z" fill="#F6FFFF"/>
<path d="M199.505 257.03L192.354 258.064L192.228 258.089C192.036 258.14 191.861 258.241 191.721 258.381C191.581 258.521 191.481 258.695 191.431 258.887C191.381 259.078 191.382 259.279 191.436 259.47C191.489 259.66 191.592 259.833 191.735 259.971L196.915 264.997L195.693 272.096L195.679 272.219C195.667 272.417 195.708 272.614 195.798 272.791C195.888 272.967 196.023 273.117 196.19 273.224C196.357 273.331 196.55 273.393 196.748 273.401C196.946 273.41 197.144 273.366 197.319 273.274L203.715 269.922L210.095 273.274L210.207 273.325C210.392 273.398 210.593 273.42 210.79 273.39C210.986 273.359 211.171 273.277 211.325 273.152C211.48 273.027 211.598 272.864 211.668 272.678C211.737 272.492 211.756 272.292 211.723 272.096L210.5 264.997L215.682 259.97L215.77 259.875C215.895 259.721 215.977 259.538 216.007 259.343C216.038 259.147 216.016 258.948 215.944 258.764C215.871 258.58 215.752 258.418 215.597 258.295C215.441 258.173 215.256 258.093 215.06 258.065L207.91 257.03L204.713 250.573C204.621 250.386 204.478 250.228 204.3 250.118C204.122 250.008 203.917 249.95 203.708 249.95C203.499 249.95 203.294 250.008 203.116 250.118C202.938 250.228 202.795 250.386 202.703 250.573L199.505 257.03Z" fill="#F6FFFF"/>
<defs>
<filter id="filter0_d_254_67" x="197.085" y="544.469" width="197.338" height="69.9758" filterUnits="userSpaceOnUse" color-interpolation-filters="sRGB">
<feFlood flood-opacity="0" result="BackgroundImageFix"/>
<feColorMatrix in="SourceAlpha" type="matrix" values="0 0 0 0 0 0 0 0 0 0 0 0 0 0 0 0 0 0 127 0" result="hardAlpha"/>
<feOffset dy="3.44531"/>
<feComposite in2="hardAlpha" operator="out"/>
<feColorMatrix type="matrix" values="0 0 0 0 0.666536 0 0 0 0 0.211765 0 0 0 0 0.768627 0 0 0 1 0"/>
<feBlend mode="normal" in2="BackgroundImageFix" result="effect1_dropShadow_254_67"/>
<feBlend mode="normal" in="SourceGraphic" in2="effect1_dropShadow_254_67" result="shape"/>
</filter>
<filter id="filter1_i_254_67" x="198.432" y="321.482" width="85.6045" height="112.576" filterUnits="userSpaceOnUse" color-interpolation-filters="sRGB">
<feFlood flood-opacity="0" result="BackgroundImageFix"/>
<feBlend mode="normal" in="SourceGraphic" in2="BackgroundImageFix" result="shape"/>
<feColorMatrix in="SourceAlpha" type="matrix" values="0 0 0 0 0 0 0 0 0 0 0 0 0 0 0 0 0 0 127 0" result="hardAlpha"/>
<feOffset dy="4.69065"/>
<feGaussianBlur stdDeviation="2.99029"/>
<feComposite in2="hardAlpha" operator="arithmetic" k2="-1" k3="1"/>
<feColorMatrix type="matrix" values="0 0 0 0 0 0 0 0 0 0 0 0 0 0 0 0 0 0 0.25 0"/>
<feBlend mode="normal" in2="shape" result="effect1_innerShadow_254_67"/>
</filter>
<filter id="filter2_i_254_67" x="284.036" y="285.129" width="109.058" height="140.719" filterUnits="userSpaceOnUse" color-interpolation-filters="sRGB">
<feFlood flood-opacity="0" result="BackgroundImageFix"/>
<feBlend mode="normal" in="SourceGraphic" in2="BackgroundImageFix" result="shape"/>
<feColorMatrix in="SourceAlpha" type="matrix" values="0 0 0 0 0 0 0 0 0 0 0 0 0 0 0 0 0 0 127 0" result="hardAlpha"/>
<feOffset dy="3.51799"/>
<feGaussianBlur stdDeviation="3.40072"/>
<feComposite in2="hardAlpha" operator="arithmetic" k2="-1" k3="1"/>
<feColorMatrix type="matrix" values="0 0 0 0 0 0 0 0 0 0 0 0 0 0 0 0 0 0 0.25 0"/>
<feBlend mode="normal" in2="shape" result="effect1_innerShadow_254_67"/>
</filter>
</defs>
</svg>
