<svg width="588" height="651" viewBox="0 0 588 651" fill="none" xmlns="http://www.w3.org/2000/svg">
<g filter="url(#filter0_d_256_347)">
<path d="M129.696 585.812C127.836 585.812 126.102 585.513 124.494 584.916C122.909 584.296 121.531 583.423 120.36 582.298C119.188 581.172 118.269 579.851 117.603 578.336C116.96 576.82 116.639 575.154 116.639 573.34C116.639 571.525 116.96 569.86 117.603 568.344C118.269 566.828 119.188 565.507 120.36 564.382C121.554 563.257 122.943 562.395 124.528 561.798C126.113 561.178 127.847 560.868 129.731 560.868C131.821 560.868 133.704 561.235 135.381 561.97C137.081 562.682 138.505 563.739 139.653 565.14L136.07 568.447C135.243 567.506 134.325 566.805 133.314 566.346C132.303 565.864 131.201 565.622 130.006 565.622C128.881 565.622 127.847 565.806 126.906 566.174C125.964 566.541 125.148 567.069 124.459 567.758C123.77 568.447 123.231 569.263 122.84 570.205C122.473 571.146 122.289 572.191 122.289 573.34C122.289 574.488 122.473 575.533 122.84 576.475C123.231 577.417 123.77 578.232 124.459 578.921C125.148 579.61 125.964 580.139 126.906 580.506C127.847 580.874 128.881 581.057 130.006 581.057C131.201 581.057 132.303 580.828 133.314 580.368C134.325 579.886 135.243 579.162 136.07 578.198L139.653 581.505C138.505 582.906 137.081 583.974 135.381 584.709C133.704 585.444 131.809 585.812 129.696 585.812ZM143.086 585.398V561.281H153.387C156.741 561.281 159.348 562.062 161.208 563.624C163.069 565.163 163.999 567.299 163.999 570.032C163.999 571.824 163.574 573.374 162.724 574.684C161.874 575.97 160.668 576.957 159.107 577.646C157.545 578.336 155.684 578.68 153.525 578.68H146.187L148.667 576.234V585.398H143.086ZM158.418 585.398L152.388 576.647H158.349L164.447 585.398H158.418ZM148.667 576.854L146.187 574.236H153.215C154.938 574.236 156.224 573.868 157.074 573.133C157.924 572.375 158.349 571.342 158.349 570.032C158.349 568.7 157.924 567.667 157.074 566.932C156.224 566.197 154.938 565.829 153.215 565.829H146.187L148.667 563.176V576.854ZM168.421 585.398V561.281H186.647V565.76H173.968V580.92H187.095V585.398H168.421ZM173.555 575.338V570.997H185.165V575.338H173.555ZM188.366 585.398L199.115 561.281H204.628L215.412 585.398H209.555L200.735 564.106H202.94L194.085 585.398H188.366ZM193.741 580.23L195.222 575.993H207.625L209.141 580.23H193.741ZM221.698 585.398V565.829H213.981V561.281H234.997V565.829H227.28V585.398H221.698ZM238 585.398V561.281H243.582V585.398H238ZM256.036 585.398L245.631 561.281H251.66L260.756 582.642H257.207L266.44 561.281H271.987L261.548 585.398H256.036ZM274.001 585.398V561.281H292.227V565.76H279.548V580.92H292.675V585.398H274.001ZM279.135 575.338V570.997H290.745V575.338H279.135ZM325.409 585.812L311.386 572.789C310.582 572.054 309.939 571.365 309.457 570.721C308.974 570.078 308.618 569.447 308.389 568.826C308.182 568.206 308.079 567.563 308.079 566.897C308.079 565.726 308.389 564.692 309.009 563.796C309.629 562.901 310.502 562.211 311.627 561.729C312.753 561.224 314.074 560.971 315.589 560.971C316.991 560.971 318.196 561.201 319.207 561.66C320.241 562.097 321.045 562.728 321.619 563.555C322.216 564.382 322.515 565.37 322.515 566.518C322.515 567.529 322.262 568.459 321.757 569.309C321.251 570.136 320.459 570.917 319.379 571.652C318.323 572.387 316.933 573.133 315.21 573.891C314.039 574.419 313.109 574.936 312.42 575.441C311.754 575.924 311.271 576.418 310.973 576.923C310.674 577.428 310.525 577.991 310.525 578.611C310.525 579.185 310.697 579.702 311.042 580.162C311.409 580.621 311.914 580.977 312.558 581.23C313.201 581.482 313.959 581.609 314.832 581.609C316.233 581.609 317.519 581.287 318.69 580.644C319.862 579.978 320.849 579.002 321.653 577.715C322.48 576.406 323.066 574.821 323.41 572.961L327.717 574.305C327.235 576.647 326.373 578.68 325.133 580.403C323.893 582.125 322.365 583.458 320.551 584.399C318.736 585.341 316.703 585.812 314.453 585.812C312.684 585.812 311.111 585.525 309.732 584.951C308.354 584.376 307.263 583.595 306.459 582.608C305.655 581.62 305.254 580.483 305.254 579.197C305.254 578.002 305.518 576.934 306.046 575.993C306.574 575.028 307.413 574.132 308.561 573.305C309.709 572.456 311.168 571.629 312.937 570.825C314.223 570.228 315.233 569.699 315.968 569.24C316.703 568.781 317.22 568.344 317.519 567.931C317.817 567.494 317.967 567.058 317.967 566.621C317.967 566.024 317.76 565.542 317.347 565.174C316.956 564.807 316.37 564.623 315.589 564.623C314.763 564.623 314.119 564.83 313.66 565.243C313.201 565.657 312.971 566.185 312.971 566.828C312.971 567.173 313.04 567.517 313.178 567.862C313.316 568.183 313.58 568.562 313.97 568.999C314.361 569.412 314.912 569.952 315.624 570.618L328.337 582.401L325.409 585.812ZM341.696 585.398V561.281H352.652C355.271 561.281 357.579 561.787 359.577 562.797C361.576 563.785 363.137 565.174 364.263 566.966C365.388 568.758 365.951 570.882 365.951 573.34C365.951 575.775 365.388 577.899 364.263 579.714C363.137 581.505 361.576 582.906 359.577 583.917C357.579 584.905 355.271 585.398 352.652 585.398H341.696ZM347.277 580.816H352.377C353.984 580.816 355.374 580.518 356.545 579.92C357.74 579.3 358.658 578.427 359.302 577.302C359.968 576.176 360.301 574.856 360.301 573.34C360.301 571.801 359.968 570.48 359.302 569.378C358.658 568.252 357.74 567.391 356.545 566.794C355.374 566.174 353.984 565.864 352.377 565.864H347.277V580.816ZM370.16 585.398V561.281H388.386V565.76H375.707V580.92H388.834V585.398H370.16ZM375.294 575.338V570.997H386.904V575.338H375.294ZM401.199 585.812C399.27 585.812 397.421 585.559 395.652 585.054C393.883 584.526 392.459 583.848 391.38 583.021L393.275 578.818C394.308 579.553 395.526 580.162 396.927 580.644C398.351 581.103 399.786 581.333 401.233 581.333C402.336 581.333 403.22 581.23 403.886 581.023C404.575 580.793 405.081 580.483 405.402 580.093C405.724 579.702 405.885 579.254 405.885 578.749C405.885 578.106 405.632 577.601 405.127 577.233C404.621 576.843 403.955 576.532 403.128 576.303C402.302 576.05 401.383 575.82 400.372 575.614C399.384 575.384 398.385 575.108 397.375 574.787C396.387 574.465 395.48 574.052 394.653 573.547C393.826 573.041 393.148 572.375 392.62 571.548C392.115 570.721 391.862 569.665 391.862 568.379C391.862 567 392.23 565.749 392.965 564.623C393.723 563.475 394.848 562.567 396.341 561.901C397.857 561.212 399.752 560.868 402.026 560.868C403.542 560.868 405.035 561.052 406.505 561.419C407.975 561.764 409.273 562.292 410.398 563.004L408.675 567.242C407.55 566.599 406.424 566.128 405.299 565.829C404.173 565.507 403.071 565.347 401.991 565.347C400.912 565.347 400.028 565.473 399.339 565.726C398.649 565.978 398.156 566.311 397.857 566.725C397.558 567.115 397.409 567.575 397.409 568.103C397.409 568.723 397.662 569.228 398.167 569.619C398.672 569.986 399.339 570.285 400.165 570.515C400.992 570.744 401.9 570.974 402.887 571.204C403.898 571.433 404.897 571.698 405.885 571.996C406.895 572.295 407.814 572.697 408.641 573.202C409.468 573.707 410.134 574.373 410.639 575.2C411.167 576.027 411.432 577.072 411.432 578.336C411.432 579.691 411.053 580.931 410.295 582.056C409.537 583.182 408.4 584.089 406.884 584.778C405.391 585.467 403.496 585.812 401.199 585.812ZM415.245 585.398V561.281H420.827V585.398H415.245ZM438.196 585.812C436.289 585.812 434.532 585.513 432.924 584.916C431.339 584.296 429.95 583.423 428.755 582.298C427.584 581.172 426.665 579.851 425.999 578.336C425.356 576.82 425.034 575.154 425.034 573.34C425.034 571.525 425.356 569.86 425.999 568.344C426.665 566.828 427.595 565.507 428.79 564.382C429.984 563.257 431.385 562.395 432.993 561.798C434.601 561.178 436.369 560.868 438.299 560.868C440.435 560.868 442.353 561.224 444.053 561.936C445.775 562.648 447.222 563.681 448.394 565.037L444.811 568.344C443.938 567.425 442.984 566.748 441.951 566.311C440.917 565.852 439.792 565.622 438.574 565.622C437.403 565.622 436.335 565.806 435.37 566.174C434.406 566.541 433.567 567.069 432.855 567.758C432.166 568.447 431.626 569.263 431.236 570.205C430.868 571.146 430.685 572.191 430.685 573.34C430.685 574.465 430.868 575.499 431.236 576.441C431.626 577.382 432.166 578.209 432.855 578.921C433.567 579.61 434.394 580.139 435.336 580.506C436.301 580.874 437.357 581.057 438.506 581.057C439.608 581.057 440.676 580.885 441.71 580.541C442.766 580.173 443.788 579.564 444.776 578.715L447.946 582.746C446.637 583.733 445.109 584.491 443.363 585.019C441.641 585.548 439.918 585.812 438.196 585.812ZM447.946 582.746L442.847 582.022V572.961H447.946V582.746ZM453.13 585.398V561.281H457.747L471.976 578.646H469.737V561.281H475.249V585.398H470.667L456.403 568.034H458.643V585.398H453.13Z" fill="white"/>
</g>
<path d="M46.8641 77.9766V60.4766H54.3391C56.7724 60.4766 58.6641 61.0432 60.0141 62.1766C61.3641 63.2932 62.0391 64.8432 62.0391 66.8266C62.0391 68.1266 61.7307 69.2516 61.1141 70.2016C60.4974 71.1349 59.6224 71.8516 58.4891 72.3516C57.3557 72.8516 56.0057 73.1016 54.4391 73.1016H49.1141L50.9141 71.3266V77.9766H46.8641ZM57.9891 77.9766L53.6141 71.6266H57.9391L62.3641 77.9766H57.9891ZM50.9141 71.7766L49.1141 69.8766H54.2141C55.4641 69.8766 56.3974 69.6099 57.0141 69.0766C57.6307 68.5266 57.9391 67.7766 57.9391 66.8266C57.9391 65.8599 57.6307 65.1099 57.0141 64.5766C56.3974 64.0432 55.4641 63.7766 54.2141 63.7766H49.1141L50.9141 61.8516V71.7766ZM65.2479 77.9766V60.4766H78.4729V63.7266H69.2729V74.7266H78.7979V77.9766H65.2479ZM68.9729 70.6766V67.5266H77.3979V70.6766H68.9729ZM87.7703 78.2766C86.3703 78.2766 85.0286 78.0932 83.7453 77.7266C82.462 77.3432 81.4286 76.8516 80.6453 76.2516L82.0203 73.2016C82.7703 73.7349 83.6536 74.1766 84.6703 74.5266C85.7036 74.8599 86.7453 75.0266 87.7953 75.0266C88.5953 75.0266 89.237 74.9516 89.7203 74.8016C90.2203 74.6349 90.587 74.4099 90.8203 74.1266C91.0536 73.8432 91.1703 73.5182 91.1703 73.1516C91.1703 72.6849 90.987 72.3182 90.6203 72.0516C90.2536 71.7682 89.7703 71.5432 89.1703 71.3766C88.5703 71.1932 87.9036 71.0266 87.1703 70.8766C86.4536 70.7099 85.7286 70.5099 84.9953 70.2766C84.2786 70.0432 83.6203 69.7432 83.0203 69.3766C82.4203 69.0099 81.9286 68.5266 81.5453 67.9266C81.1786 67.3266 80.9953 66.5599 80.9953 65.6266C80.9953 64.6266 81.262 63.7182 81.7953 62.9016C82.3453 62.0682 83.162 61.4099 84.2453 60.9266C85.3453 60.4266 86.7203 60.1766 88.3703 60.1766C89.4703 60.1766 90.5536 60.3099 91.6203 60.5766C92.687 60.8266 93.6286 61.2099 94.4453 61.7266L93.1953 64.8016C92.3786 64.3349 91.562 63.9932 90.7453 63.7766C89.9286 63.5432 89.1286 63.4266 88.3453 63.4266C87.562 63.4266 86.9203 63.5182 86.4203 63.7016C85.9203 63.8849 85.562 64.1266 85.3453 64.4266C85.1286 64.7099 85.0203 65.0432 85.0203 65.4266C85.0203 65.8766 85.2036 66.2432 85.5703 66.5266C85.937 66.7932 86.4203 67.0099 87.0203 67.1766C87.6203 67.3432 88.2786 67.5099 88.9953 67.6766C89.7286 67.8432 90.4536 68.0349 91.1703 68.2516C91.9036 68.4682 92.5703 68.7599 93.1703 69.1266C93.7703 69.4932 94.2536 69.9766 94.6203 70.5766C95.0036 71.1766 95.1953 71.9349 95.1953 72.8516C95.1953 73.8349 94.9203 74.7349 94.3703 75.5516C93.8203 76.3682 92.9953 77.0266 91.8953 77.5266C90.812 78.0266 89.437 78.2766 87.7703 78.2766ZM97.9627 77.9766V60.4766H111.188V63.7266H101.988V74.7266H111.513V77.9766H97.9627ZM101.688 70.6766V67.5266H110.113V70.6766H101.688ZM112.435 77.9766L120.235 60.4766H124.235L132.06 77.9766H127.81L121.41 62.5266H123.01L116.585 77.9766H112.435ZM116.335 74.2266L117.41 71.1516H126.41L127.51 74.2266H116.335ZM133.876 77.9766V60.4766H141.351C143.784 60.4766 145.676 61.0432 147.026 62.1766C148.376 63.2932 149.051 64.8432 149.051 66.8266C149.051 68.1266 148.742 69.2516 148.126 70.2016C147.509 71.1349 146.634 71.8516 145.501 72.3516C144.367 72.8516 143.017 73.1016 141.451 73.1016H136.126L137.926 71.3266V77.9766H133.876ZM145.001 77.9766L140.626 71.6266H144.951L149.376 77.9766H145.001ZM137.926 71.7766L136.126 69.8766H141.226C142.476 69.8766 143.409 69.6099 144.026 69.0766C144.642 68.5266 144.951 67.7766 144.951 66.8266C144.951 65.8599 144.642 65.1099 144.026 64.5766C143.409 64.0432 142.476 63.7766 141.226 63.7766H136.126L137.926 61.8516V71.7766ZM160.635 78.2766C159.285 78.2766 158.026 78.0599 156.86 77.6266C155.71 77.1766 154.71 76.5432 153.86 75.7266C153.01 74.9099 152.343 73.9516 151.86 72.8516C151.393 71.7516 151.16 70.5432 151.16 69.2266C151.16 67.9099 151.393 66.7016 151.86 65.6016C152.343 64.5016 153.01 63.5432 153.86 62.7266C154.726 61.9099 155.735 61.2849 156.885 60.8516C158.035 60.4016 159.293 60.1766 160.66 60.1766C162.176 60.1766 163.543 60.4432 164.76 60.9766C165.993 61.4932 167.026 62.2599 167.86 63.2766L165.26 65.6766C164.66 64.9932 163.993 64.4849 163.26 64.1516C162.526 63.8016 161.726 63.6266 160.86 63.6266C160.043 63.6266 159.293 63.7599 158.61 64.0266C157.926 64.2932 157.335 64.6766 156.835 65.1766C156.335 65.6766 155.943 66.2682 155.66 66.9516C155.393 67.6349 155.26 68.3932 155.26 69.2266C155.26 70.0599 155.393 70.8182 155.66 71.5016C155.943 72.1849 156.335 72.7766 156.835 73.2766C157.335 73.7766 157.926 74.1599 158.61 74.4266C159.293 74.6932 160.043 74.8266 160.86 74.8266C161.726 74.8266 162.526 74.6599 163.26 74.3266C163.993 73.9766 164.66 73.4516 165.26 72.7516L167.86 75.1516C167.026 76.1682 165.993 76.9432 164.76 77.4766C163.543 78.0099 162.168 78.2766 160.635 78.2766ZM182.35 77.9766V60.4766H186.4V77.9766H182.35ZM170.35 77.9766V60.4766H174.4V77.9766H170.35ZM174.1 70.8016V67.3766H182.65V70.8016H174.1ZM60.3141 108.277L50.1391 98.8266C49.5557 98.2932 49.0891 97.7932 48.7391 97.3266C48.3891 96.8599 48.1307 96.4016 47.9641 95.9516C47.8141 95.5016 47.7391 95.0349 47.7391 94.5516C47.7391 93.7016 47.9641 92.9516 48.4141 92.3016C48.8641 91.6516 49.4974 91.1516 50.3141 90.8016C51.1307 90.4349 52.0891 90.2516 53.1891 90.2516C54.2057 90.2516 55.0807 90.4182 55.8141 90.7516C56.5641 91.0682 57.1474 91.5266 57.5641 92.1266C57.9974 92.7266 58.2141 93.4432 58.2141 94.2766C58.2141 95.0099 58.0307 95.6849 57.6641 96.3016C57.2974 96.9016 56.7224 97.4682 55.9391 98.0016C55.1724 98.5349 54.1641 99.0766 52.9141 99.6266C52.0641 100.01 51.3891 100.385 50.8891 100.752C50.4057 101.102 50.0557 101.46 49.8391 101.827C49.6224 102.193 49.5141 102.602 49.5141 103.052C49.5141 103.468 49.6391 103.843 49.8891 104.177C50.1557 104.51 50.5224 104.768 50.9891 104.952C51.4557 105.135 52.0057 105.227 52.6391 105.227C53.6557 105.227 54.5891 104.993 55.4391 104.527C56.2891 104.043 57.0057 103.335 57.5891 102.402C58.1891 101.452 58.6141 100.302 58.8641 98.9516L61.9891 99.9266C61.6391 101.627 61.0141 103.102 60.1141 104.352C59.2141 105.602 58.1057 106.568 56.7891 107.252C55.4724 107.935 53.9974 108.277 52.3641 108.277C51.0807 108.277 49.9391 108.068 48.9391 107.652C47.9391 107.235 47.1474 106.668 46.5641 105.952C45.9807 105.235 45.6891 104.41 45.6891 103.477C45.6891 102.61 45.8807 101.835 46.2641 101.152C46.6474 100.452 47.2557 99.8016 48.0891 99.2016C48.9224 98.5849 49.9807 97.9849 51.2641 97.4016C52.1974 96.9682 52.9307 96.5849 53.4641 96.2516C53.9974 95.9182 54.3724 95.6016 54.5891 95.3016C54.8057 94.9849 54.9141 94.6682 54.9141 94.3516C54.9141 93.9182 54.7641 93.5682 54.4641 93.3016C54.1807 93.0349 53.7557 92.9016 53.1891 92.9016C52.5891 92.9016 52.1224 93.0516 51.7891 93.3516C51.4557 93.6516 51.2891 94.0349 51.2891 94.5016C51.2891 94.7516 51.3391 95.0016 51.4391 95.2516C51.5391 95.4849 51.7307 95.7599 52.0141 96.0766C52.2974 96.3766 52.6974 96.7682 53.2141 97.2516L62.4391 105.802L60.3141 108.277ZM72.1326 107.977V90.4766H80.0826C81.9826 90.4766 83.6576 90.8432 85.1076 91.5766C86.5576 92.2932 87.691 93.3016 88.5076 94.6016C89.3243 95.9016 89.7326 97.4432 89.7326 99.2266C89.7326 100.993 89.3243 102.535 88.5076 103.852C87.691 105.152 86.5576 106.168 85.1076 106.902C83.6576 107.618 81.9826 107.977 80.0826 107.977H72.1326ZM76.1826 104.652H79.8826C81.0493 104.652 82.0576 104.435 82.9076 104.002C83.7743 103.552 84.441 102.918 84.9076 102.102C85.391 101.285 85.6326 100.327 85.6326 99.2266C85.6326 98.1099 85.391 97.1516 84.9076 96.3516C84.441 95.5349 83.7743 94.9099 82.9076 94.4766C82.0576 94.0266 81.0493 93.8016 79.8826 93.8016H76.1826V104.652ZM92.7869 107.977V90.4766H106.012V93.7266H96.8119V104.727H106.337V107.977H92.7869ZM96.5119 100.677V97.5266H104.937V100.677H96.5119ZM114.565 107.977L107.015 90.4766H111.39L117.99 105.977H115.415L122.115 90.4766H126.14L118.565 107.977H114.565ZM127.601 107.977V90.4766H140.826V93.7266H131.626V104.727H141.151V107.977H127.601ZM131.326 100.677V97.5266H139.751V100.677H131.326ZM144.374 107.977V90.4766H148.424V104.677H157.199V107.977H144.374ZM167.669 108.277C166.285 108.277 165.002 108.052 163.819 107.602C162.652 107.152 161.635 106.518 160.769 105.702C159.919 104.885 159.252 103.927 158.769 102.827C158.302 101.727 158.069 100.527 158.069 99.2266C158.069 97.9266 158.302 96.7266 158.769 95.6266C159.252 94.5266 159.927 93.5682 160.794 92.7516C161.66 91.9349 162.677 91.3016 163.844 90.8516C165.01 90.4016 166.277 90.1766 167.644 90.1766C169.027 90.1766 170.294 90.4016 171.444 90.8516C172.61 91.3016 173.619 91.9349 174.469 92.7516C175.335 93.5682 176.01 94.5266 176.494 95.6266C176.977 96.7099 177.219 97.9099 177.219 99.2266C177.219 100.527 176.977 101.735 176.494 102.852C176.01 103.952 175.335 104.91 174.469 105.727C173.619 106.527 172.61 107.152 171.444 107.602C170.294 108.052 169.035 108.277 167.669 108.277ZM167.644 104.827C168.427 104.827 169.144 104.693 169.794 104.427C170.46 104.16 171.044 103.777 171.544 103.277C172.044 102.777 172.427 102.185 172.694 101.502C172.977 100.818 173.119 100.06 173.119 99.2266C173.119 98.3932 172.977 97.6349 172.694 96.9516C172.427 96.2682 172.044 95.6766 171.544 95.1766C171.06 94.6766 170.485 94.2932 169.819 94.0266C169.152 93.7599 168.427 93.6266 167.644 93.6266C166.86 93.6266 166.135 93.7599 165.469 94.0266C164.819 94.2932 164.244 94.6766 163.744 95.1766C163.244 95.6766 162.852 96.2682 162.569 96.9516C162.302 97.6349 162.169 98.3932 162.169 99.2266C162.169 100.043 162.302 100.802 162.569 101.502C162.852 102.185 163.235 102.777 163.719 103.277C164.219 103.777 164.802 104.16 165.469 104.427C166.135 104.693 166.86 104.827 167.644 104.827ZM180.263 107.977V90.4766H187.838C189.404 90.4766 190.754 90.7349 191.888 91.2516C193.021 91.7516 193.896 92.4766 194.513 93.4266C195.129 94.3766 195.438 95.5099 195.438 96.8266C195.438 98.1266 195.129 99.2516 194.513 100.202C193.896 101.152 193.021 101.885 191.888 102.402C190.754 102.902 189.404 103.152 187.838 103.152H182.513L184.313 101.327V107.977H180.263ZM184.313 101.777L182.513 99.8516H187.613C188.863 99.8516 189.796 99.5849 190.413 99.0516C191.029 98.5182 191.338 97.7766 191.338 96.8266C191.338 95.8599 191.029 95.1099 190.413 94.5766C189.796 94.0432 188.863 93.7766 187.613 93.7766H182.513L184.313 91.8516V101.777ZM198.329 107.977V90.4766H201.679L209.129 102.827H207.354L214.679 90.4766H218.004L218.054 107.977H214.254L214.229 96.3016H214.929L209.079 106.127H207.254L201.279 96.3016H202.129V107.977H198.329ZM222.206 107.977V90.4766H235.431V93.7266H226.231V104.727H235.756V107.977H222.206ZM225.931 100.677V97.5266H234.356V100.677H225.931ZM238.978 107.977V90.4766H242.328L252.653 103.077H251.028V90.4766H255.028V107.977H251.703L241.353 95.3766H242.978V107.977H238.978ZM262.794 107.977V93.7766H257.194V90.4766H272.444V93.7766H266.844V107.977H262.794Z" fill="white"/>
<path d="M331.006 366.211C330.086 366.092 329.172 365.974 328.264 365.859L327.874 365.809C327.071 365.708 326.274 365.609 325.483 365.515C321.462 365.033 317.613 364.658 314.071 364.589C314.15 363.137 314.196 361.675 314.206 360.204C318.362 360.923 322.682 360.279 326.494 358.3L333.117 354.862C333.468 354.68 333.813 354.487 334.151 354.284C336.049 353.148 340.313 350.394 343.578 346.319C343.813 346.027 344.039 345.727 344.256 345.421L382.737 291.265C386.666 301.675 388.815 312.956 388.815 324.74C388.815 372.911 358.602 369.769 332.263 366.373L331.006 366.211Z" fill="#8646C4"/>
<path d="M292.99 417.611C296.174 416.349 299.105 414.366 301.589 411.885C303.064 410.411 304.235 408.661 305.033 406.735C305.832 404.808 306.243 402.744 306.243 400.659C306.243 399.566 306.13 398.479 305.908 397.415C302.507 404.746 298.147 411.53 292.99 417.611Z" fill="#8646C4"/>
<path d="M204.834 357.987C200.96 347.641 198.841 336.438 198.841 324.74C198.841 272.327 241.367 229.841 293.828 229.841C305.807 229.841 317.268 232.057 327.823 236.099L285.627 265.98C261.644 269.285 242.258 286.876 236.308 309.845C217.876 318.407 205.512 337.082 204.834 357.987Z" fill="#8646C4"/>
<path d="M312.417 402.852C312.428 402.852 312.44 402.851 312.453 402.85C312.44 402.852 312.428 402.853 312.417 402.853C312.358 402.858 312.357 402.856 312.417 402.852Z" fill="#8646C4"/>
<path d="M372.343 204.624C372.292 204.665 372.304 204.655 372.36 204.611L372.343 204.624Z" fill="#8646C4"/>
<path fill-rule="evenodd" clip-rule="evenodd" d="M398.534 433.181C388.734 437.304 379.186 439.543 370.643 440.719C366.326 449.368 360.634 457.274 353.778 464.123C336.378 481.507 308.276 496.272 274.421 492.368L274.408 492.366L274.401 492.366C190.352 482.692 125 411.464 125 324.74C125 231.479 200.653 156 293.828 156C387.003 156 462.656 231.479 462.656 324.74C462.656 344.01 459.71 365.805 449.102 386.297C437.516 408.677 419.4 424.4 398.534 433.181ZM407.893 255.861C420.068 275.954 427.078 299.525 427.078 324.74C427.078 340.623 424.612 356.215 417.507 369.941C409.896 384.642 398.232 394.708 384.735 400.387C372.299 405.62 359.943 406.46 350.715 406.325C349.737 406.311 348.761 406.285 347.789 406.248C347.783 406.306 347.777 406.365 347.771 406.423L346.273 406.273L346.177 406.177C345.527 406.145 344.879 406.108 344.235 406.068C343.707 411.327 342.411 416.489 340.379 421.389C339.28 424.039 337.975 426.592 336.479 429.024C334.265 432.621 331.633 435.956 328.632 438.954C320.505 447.073 309.168 453.98 295.817 456.447C290.35 457.457 284.545 457.723 278.484 457.023C265.791 455.563 253.639 452.324 242.286 447.561C236.465 448.736 230.44 449.351 224.272 449.351C208.426 449.351 192.651 445.419 179.22 437.855C173.136 434.429 169.353 428.007 169.305 421.025C169.258 414.043 172.953 407.571 178.989 404.062C180.82 402.997 182.582 401.824 184.264 400.552C169.331 379.044 160.578 352.923 160.578 324.74C160.578 251.162 220.268 191.578 293.828 191.578C319.244 191.578 343.003 198.691 363.218 211.036L372.771 204.271L372.817 204.239C372.842 204.221 372.867 204.203 372.893 204.186C373.35 203.834 374.062 203.322 375.004 202.774C378.055 200.788 381.698 199.634 385.61 199.634C393.112 199.634 398.298 203.466 400.954 206.117L412.61 217.754C416.443 221.58 419.396 227.337 418.986 234.296C418.664 239.76 416.304 243.731 415.542 244.997C415.286 245.424 415.014 245.84 414.726 246.245L407.893 255.861Z" fill="#8646C4"/>
<path fill-rule="evenodd" clip-rule="evenodd" d="M242.286 447.562C253.639 452.325 265.791 455.564 278.485 457.024C299.346 459.434 317.178 450.399 328.632 438.955C333.663 433.93 337.655 427.961 340.379 421.39C342.411 416.49 343.707 411.328 344.235 406.069C346.366 406.202 348.538 406.295 350.715 406.326C359.943 406.461 372.299 405.621 384.735 400.388C398.232 394.709 409.896 384.643 417.507 369.942C424.612 356.216 427.078 340.624 427.078 324.741C427.078 299.526 420.068 275.955 407.893 255.862L382.737 291.266C386.666 301.676 388.815 312.957 388.815 324.741C388.815 372.912 358.602 369.77 332.263 366.374L331.809 366.315C331.572 366.285 331.335 366.254 331.099 366.224L331.006 366.212C329.139 365.971 327.294 365.733 325.484 365.516C321.463 365.035 317.613 364.659 314.071 364.59C313.428 376.294 310.569 387.369 305.908 397.416C306.13 398.48 306.243 399.567 306.243 400.66C306.243 402.745 305.832 404.809 305.033 406.736C304.235 408.662 303.064 410.412 301.589 411.886C299.105 414.367 296.174 416.35 292.99 417.612C280.181 432.719 262.453 443.493 242.286 447.562ZM312.417 402.853C312.428 402.853 312.44 402.852 312.454 402.851C312.361 402.86 312.346 402.858 312.417 402.853Z" fill="#BA75DF"/>
<path d="M184.264 400.553C169.331 379.045 160.578 352.924 160.578 324.741C160.578 251.163 220.268 191.579 293.828 191.579C319.244 191.579 343.003 198.692 363.218 211.037L327.823 236.1C317.268 232.058 305.807 229.842 293.828 229.842C241.367 229.842 198.841 272.328 198.841 324.741C198.841 336.439 200.96 347.642 204.834 357.988C204.814 358.591 204.805 359.195 204.805 359.8C204.805 376.331 196.694 391.153 184.264 400.553Z" fill="#BA75DF"/>
<path d="M327.823 236.099C317.268 232.056 305.807 229.841 293.828 229.841C241.366 229.841 198.841 272.327 198.841 324.739C198.841 336.437 200.959 347.64 204.833 357.987C205.726 330.474 226.86 306.824 255.429 305.005C256.468 304.797 257.527 304.674 258.598 304.639C257.886 300.483 258.537 296.165 260.521 292.357L263.965 285.746C264.147 285.395 264.341 285.05 264.544 284.711C265.43 283.237 266.521 281.689 267.599 280.329C268.404 279.314 270.354 276.91 273.006 274.924C273.144 274.821 273.283 274.72 273.424 274.62L327.823 236.099Z" fill="#F6FFFF"/>
<path d="M292.99 417.611C296.173 416.349 299.105 414.366 301.588 411.885C303.064 410.411 304.234 408.66 305.033 406.734C305.832 404.808 306.243 402.743 306.243 400.658C306.243 399.566 306.13 398.479 305.907 397.414C302.506 404.745 298.147 411.529 292.99 417.611Z" fill="#F6FFFF"/>
<path d="M314.07 364.588C319.208 364.688 324.989 365.434 331.005 366.21C357.63 369.655 388.814 373.679 388.814 324.739C388.814 312.956 386.665 301.674 382.736 291.264L344.256 345.421C344.038 345.727 343.812 346.026 343.578 346.319C340.312 350.394 336.049 353.147 334.151 354.284C333.812 354.487 333.467 354.679 333.117 354.861L326.494 358.299C322.682 360.278 318.362 360.923 314.206 360.204C314.195 361.675 314.15 363.136 314.07 364.588Z" fill="#F6FFFF"/>
<path fill-rule="evenodd" clip-rule="evenodd" d="M384.492 219.836C384.787 219.601 385.081 219.366 385.611 219.366V219.101C386.141 219.101 386.67 219.366 387.2 219.894L398.857 231.531C399.917 232.589 399.652 233.647 398.857 234.969L328.387 334.146C327.328 335.468 325.473 336.791 324.148 337.584L317.525 341.022C311.432 321.98 296.861 307.434 277.787 301.352L281.231 294.74C282.026 293.417 283.615 291.302 284.675 290.508L384.021 220.159C384.198 220.071 384.345 219.953 384.492 219.836Z" fill="#A68CD3"/>
<path d="M258.977 324.361C239.373 324.361 224.272 340.493 224.272 359.8C224.272 385.982 209.701 408.727 188.772 420.893C199.104 426.711 211.556 429.885 224.272 429.885C263.216 429.885 294.742 398.677 294.742 359.535C294.742 339.964 278.582 324.096 259.242 324.096L258.977 324.361Z" fill="#BA75DF"/>
<defs>
<filter id="filter0_d_256_347" x="116.639" y="560.868" width="358.61" height="28.3896" filterUnits="userSpaceOnUse" color-interpolation-filters="sRGB">
<feFlood flood-opacity="0" result="BackgroundImageFix"/>
<feColorMatrix in="SourceAlpha" type="matrix" values="0 0 0 0 0 0 0 0 0 0 0 0 0 0 0 0 0 0 127 0" result="hardAlpha"/>
<feOffset dy="3.44531"/>
<feComposite in2="hardAlpha" operator="out"/>
<feColorMatrix type="matrix" values="0 0 0 0 0.666536 0 0 0 0 0.211765 0 0 0 0 0.768627 0 0 0 1 0"/>
<feBlend mode="normal" in2="BackgroundImageFix" result="effect1_dropShadow_256_347"/>
<feBlend mode="normal" in="SourceGraphic" in2="effect1_dropShadow_256_347" result="shape"/>
</filter>
</defs>
</svg>
