<svg width="588" height="651" viewBox="0 0 588 651" fill="none" xmlns="http://www.w3.org/2000/svg">
<g filter="url(#filter0_d_254_210)">
<path d="M208.751 585.398V561.281H214.332V585.398H208.751ZM192.213 585.398V561.281H197.795V585.398H192.213ZM197.381 575.51V570.79H209.164V575.51H197.381ZM220.038 585.398V561.281H225.62V585.398H220.038ZM231.343 585.398V561.281H235.96L246.227 578.301H243.781L253.875 561.281H258.458L258.527 585.398H253.29L253.255 569.309H254.22L246.158 582.849H243.643L235.409 569.309H236.58V585.398H231.343ZM269.244 585.398V565.829H261.527V561.281H282.543V565.829H274.826V585.398H269.244ZM285.546 585.398V561.281H291.128V585.398H285.546ZM318.15 585.812C316.29 585.812 314.556 585.513 312.948 584.916C311.363 584.296 309.985 583.423 308.813 582.298C307.642 581.172 306.723 579.851 306.057 578.336C305.414 576.82 305.092 575.154 305.092 573.34C305.092 571.525 305.414 569.86 306.057 568.344C306.723 566.828 307.642 565.507 308.813 564.382C310.008 563.257 311.397 562.395 312.982 561.798C314.567 561.178 316.301 560.868 318.185 560.868C320.275 560.868 322.158 561.235 323.835 561.97C325.535 562.682 326.959 563.739 328.107 565.14L324.524 568.447C323.697 567.506 322.778 566.805 321.768 566.346C320.757 565.864 319.655 565.622 318.46 565.622C317.335 565.622 316.301 565.806 315.359 566.174C314.418 566.541 313.602 567.069 312.913 567.758C312.224 568.447 311.684 569.263 311.294 570.205C310.926 571.146 310.743 572.191 310.743 573.34C310.743 574.488 310.926 575.533 311.294 576.475C311.684 577.417 312.224 578.232 312.913 578.921C313.602 579.61 314.418 580.139 315.359 580.506C316.301 580.874 317.335 581.057 318.46 581.057C319.655 581.057 320.757 580.828 321.768 580.368C322.778 579.886 323.697 579.162 324.524 578.198L328.107 581.505C326.959 582.906 325.535 583.974 323.835 584.709C322.158 585.444 320.263 585.812 318.15 585.812ZM327.899 585.398L338.648 561.281H344.161L354.945 585.398H349.088L340.268 564.106H342.473L333.618 585.398H327.899ZM333.274 580.23L334.755 575.993H347.158L348.674 580.23H333.274ZM357.447 585.398V561.281H367.748C371.102 561.281 373.709 562.062 375.569 563.624C377.43 565.163 378.36 567.299 378.36 570.032C378.36 571.824 377.935 573.374 377.085 574.684C376.235 575.97 375.03 576.957 373.468 577.646C371.906 578.336 370.045 578.68 367.886 578.68H360.548L363.028 576.234V585.398H357.447ZM372.779 585.398L366.749 576.647H372.71L378.808 585.398H372.779ZM363.028 576.854L360.548 574.236H367.576C369.299 574.236 370.585 573.868 371.435 573.133C372.285 572.375 372.71 571.342 372.71 570.032C372.71 568.7 372.285 567.667 371.435 566.932C370.585 566.197 369.299 565.829 367.576 565.829H360.548L363.028 563.176V576.854ZM382.782 585.398V561.281H401.008V565.76H388.329V580.92H401.456V585.398H382.782ZM387.916 575.338V570.997H399.526V575.338H387.916Z" fill="white"/>
</g>
<path d="M46.8641 77.9766V60.4766H54.3391C56.7724 60.4766 58.6641 61.0432 60.0141 62.1766C61.3641 63.2932 62.0391 64.8432 62.0391 66.8266C62.0391 68.1266 61.7307 69.2516 61.1141 70.2016C60.4974 71.1349 59.6224 71.8516 58.4891 72.3516C57.3557 72.8516 56.0057 73.1016 54.4391 73.1016H49.1141L50.9141 71.3266V77.9766H46.8641ZM57.9891 77.9766L53.6141 71.6266H57.9391L62.3641 77.9766H57.9891ZM50.9141 71.7766L49.1141 69.8766H54.2141C55.4641 69.8766 56.3974 69.6099 57.0141 69.0766C57.6307 68.5266 57.9391 67.7766 57.9391 66.8266C57.9391 65.8599 57.6307 65.1099 57.0141 64.5766C56.3974 64.0432 55.4641 63.7766 54.2141 63.7766H49.1141L50.9141 61.8516V71.7766ZM65.2479 77.9766V60.4766H78.4729V63.7266H69.2729V74.7266H78.7979V77.9766H65.2479ZM68.9729 70.6766V67.5266H77.3979V70.6766H68.9729ZM82.0203 77.9766V60.4766H86.0703V74.6766H94.8453V77.9766H82.0203ZM94.9059 77.9766L102.706 60.4766H106.706L114.531 77.9766H110.281L103.881 62.5266H105.481L99.0559 77.9766H94.9059ZM98.8059 74.2266L99.8809 71.1516H108.881L109.981 74.2266H98.8059ZM119.093 77.9766V63.7766H113.493V60.4766H128.743V63.7766H123.143V77.9766H119.093ZM130.922 77.9766V60.4766H134.972V77.9766H130.922ZM147.625 78.2766C146.241 78.2766 144.958 78.0516 143.775 77.6016C142.608 77.1516 141.591 76.5182 140.725 75.7016C139.875 74.8849 139.208 73.9266 138.725 72.8266C138.258 71.7266 138.025 70.5266 138.025 69.2266C138.025 67.9266 138.258 66.7266 138.725 65.6266C139.208 64.5266 139.883 63.5682 140.75 62.7516C141.616 61.9349 142.633 61.3016 143.8 60.8516C144.966 60.4016 146.233 60.1766 147.6 60.1766C148.983 60.1766 150.25 60.4016 151.4 60.8516C152.566 61.3016 153.575 61.9349 154.425 62.7516C155.291 63.5682 155.966 64.5266 156.45 65.6266C156.933 66.7099 157.175 67.9099 157.175 69.2266C157.175 70.5266 156.933 71.7349 156.45 72.8516C155.966 73.9516 155.291 74.9099 154.425 75.7266C153.575 76.5266 152.566 77.1516 151.4 77.6016C150.25 78.0516 148.991 78.2766 147.625 78.2766ZM147.6 74.8266C148.383 74.8266 149.1 74.6932 149.75 74.4266C150.416 74.1599 151 73.7766 151.5 73.2766C152 72.7766 152.383 72.1849 152.65 71.5016C152.933 70.8182 153.075 70.0599 153.075 69.2266C153.075 68.3932 152.933 67.6349 152.65 66.9516C152.383 66.2682 152 65.6766 151.5 65.1766C151.016 64.6766 150.441 64.2932 149.775 64.0266C149.108 63.7599 148.383 63.6266 147.6 63.6266C146.816 63.6266 146.091 63.7599 145.425 64.0266C144.775 64.2932 144.2 64.6766 143.7 65.1766C143.2 65.6766 142.808 66.2682 142.525 66.9516C142.258 67.6349 142.125 68.3932 142.125 69.2266C142.125 70.0432 142.258 70.8016 142.525 71.5016C142.808 72.1849 143.191 72.7766 143.675 73.2766C144.175 73.7766 144.758 74.1599 145.425 74.4266C146.091 74.6932 146.816 74.8266 147.6 74.8266ZM160.219 77.9766V60.4766H163.569L173.894 73.0766H172.269V60.4766H176.269V77.9766H172.944L162.594 65.3766H164.219V77.9766H160.219ZM187.489 77.9766V60.4766H200.714V63.7266H191.514V74.7266H201.039V77.9766H187.489ZM191.214 70.6766V67.5266H199.639V70.6766H191.214ZM202.115 77.9766L209.64 67.6016V70.5516L202.44 60.4766H207.04L212.015 67.5016L210.09 67.5266L214.99 60.4766H219.39L212.24 70.3766V67.4766L219.815 77.9766H215.14L209.99 70.5516H211.84L206.765 77.9766H202.115ZM221.473 77.9766V60.4766H229.048C230.615 60.4766 231.965 60.7349 233.098 61.2516C234.232 61.7516 235.107 62.4766 235.723 63.4266C236.34 64.3766 236.648 65.5099 236.648 66.8266C236.648 68.1266 236.34 69.2516 235.723 70.2016C235.107 71.1516 234.232 71.8849 233.098 72.4016C231.965 72.9016 230.615 73.1516 229.048 73.1516H223.723L225.523 71.3266V77.9766H221.473ZM225.523 71.7766L223.723 69.8516H228.823C230.073 69.8516 231.007 69.5849 231.623 69.0516C232.24 68.5182 232.548 67.7766 232.548 66.8266C232.548 65.8599 232.24 65.1099 231.623 64.5766C231.007 64.0432 230.073 63.7766 228.823 63.7766H223.723L225.523 61.8516V71.7766ZM236.361 77.9766L244.161 60.4766H248.161L255.986 77.9766H251.736L245.336 62.5266H246.936L240.511 77.9766H236.361ZM240.261 74.2266L241.336 71.1516H250.336L251.436 74.2266H240.261ZM257.802 77.9766V60.4766H261.152L271.477 73.0766H269.852V60.4766H273.852V77.9766H270.527L260.177 65.3766H261.802V77.9766H257.802ZM283.742 78.2766C282.342 78.2766 281 78.0932 279.717 77.7266C278.434 77.3432 277.4 76.8516 276.617 76.2516L277.992 73.2016C278.742 73.7349 279.625 74.1766 280.642 74.5266C281.675 74.8599 282.717 75.0266 283.767 75.0266C284.567 75.0266 285.209 74.9516 285.692 74.8016C286.192 74.6349 286.559 74.4099 286.792 74.1266C287.025 73.8432 287.142 73.5182 287.142 73.1516C287.142 72.6849 286.959 72.3182 286.592 72.0516C286.225 71.7682 285.742 71.5432 285.142 71.3766C284.542 71.1932 283.875 71.0266 283.142 70.8766C282.425 70.7099 281.7 70.5099 280.967 70.2766C280.25 70.0432 279.592 69.7432 278.992 69.3766C278.392 69.0099 277.9 68.5266 277.517 67.9266C277.15 67.3266 276.967 66.5599 276.967 65.6266C276.967 64.6266 277.234 63.7182 277.767 62.9016C278.317 62.0682 279.134 61.4099 280.217 60.9266C281.317 60.4266 282.692 60.1766 284.342 60.1766C285.442 60.1766 286.525 60.3099 287.592 60.5766C288.659 60.8266 289.6 61.2099 290.417 61.7266L289.167 64.8016C288.35 64.3349 287.534 63.9932 286.717 63.7766C285.9 63.5432 285.1 63.4266 284.317 63.4266C283.534 63.4266 282.892 63.5182 282.392 63.7016C281.892 63.8849 281.534 64.1266 281.317 64.4266C281.1 64.7099 280.992 65.0432 280.992 65.4266C280.992 65.8766 281.175 66.2432 281.542 66.5266C281.909 66.7932 282.392 67.0099 282.992 67.1766C283.592 67.3432 284.25 67.5099 284.967 67.6766C285.7 67.8432 286.425 68.0349 287.142 68.2516C287.875 68.4682 288.542 68.7599 289.142 69.1266C289.742 69.4932 290.225 69.9766 290.592 70.5766C290.975 71.1766 291.167 71.9349 291.167 72.8516C291.167 73.8349 290.892 74.7349 290.342 75.5516C289.792 76.3682 288.967 77.0266 287.867 77.5266C286.784 78.0266 285.409 78.2766 283.742 78.2766ZM293.934 77.9766V60.4766H297.984V77.9766H293.934ZM310.638 78.2766C309.254 78.2766 307.971 78.0516 306.788 77.6016C305.621 77.1516 304.604 76.5182 303.737 75.7016C302.888 74.8849 302.221 73.9266 301.738 72.8266C301.271 71.7266 301.038 70.5266 301.038 69.2266C301.038 67.9266 301.271 66.7266 301.738 65.6266C302.221 64.5266 302.896 63.5682 303.763 62.7516C304.629 61.9349 305.646 61.3016 306.813 60.8516C307.979 60.4016 309.246 60.1766 310.613 60.1766C311.996 60.1766 313.262 60.4016 314.413 60.8516C315.579 61.3016 316.588 61.9349 317.438 62.7516C318.304 63.5682 318.979 64.5266 319.463 65.6266C319.946 66.7099 320.188 67.9099 320.188 69.2266C320.188 70.5266 319.946 71.7349 319.463 72.8516C318.979 73.9516 318.304 74.9099 317.438 75.7266C316.588 76.5266 315.579 77.1516 314.413 77.6016C313.262 78.0516 312.004 78.2766 310.638 78.2766ZM310.613 74.8266C311.396 74.8266 312.113 74.6932 312.763 74.4266C313.429 74.1599 314.013 73.7766 314.513 73.2766C315.013 72.7766 315.396 72.1849 315.663 71.5016C315.946 70.8182 316.088 70.0599 316.088 69.2266C316.088 68.3932 315.946 67.6349 315.663 66.9516C315.396 66.2682 315.013 65.6766 314.513 65.1766C314.029 64.6766 313.454 64.2932 312.788 64.0266C312.121 63.7599 311.396 63.6266 310.613 63.6266C309.829 63.6266 309.104 63.7599 308.438 64.0266C307.788 64.2932 307.213 64.6766 306.713 65.1766C306.213 65.6766 305.821 66.2682 305.538 66.9516C305.271 67.6349 305.138 68.3932 305.138 69.2266C305.138 70.0432 305.271 70.8016 305.538 71.5016C305.821 72.1849 306.204 72.7766 306.688 73.2766C307.188 73.7766 307.771 74.1599 308.438 74.4266C309.104 74.6932 309.829 74.8266 310.613 74.8266ZM323.231 77.9766V60.4766H326.581L336.906 73.0766H335.281V60.4766H339.281V77.9766H335.956L325.606 65.3766H327.231V77.9766H323.231Z" fill="white"/>
<g filter="url(#filter1_ii_254_210)">
<path d="M385.255 183.958C376.705 166.433 352.077 152.094 323.429 160.443C309.74 164.392 297.796 172.861 289.549 184.467C281.303 172.861 269.359 164.392 255.669 160.443C226.958 152.222 202.393 166.433 193.843 183.958C181.848 208.492 186.825 236.086 208.646 265.973C225.745 289.361 250.182 313.067 285.657 340.597C286.778 341.47 288.159 341.944 289.581 341.944C291.003 341.944 292.384 341.47 293.505 340.597C328.916 313.131 353.417 289.616 370.516 265.973C392.273 236.086 397.25 208.492 385.255 183.958Z" fill="#BA75DF"/>
</g>
<path d="M404.737 294.467C404.737 287.707 407.097 282.008 411.819 277.371C416.541 272.733 422.049 270.453 428.344 270.532L463.756 365.21L440.148 447.743H333.913V424.752L365.666 339.035C368.105 332.904 372.512 329.838 378.886 329.838C382.585 329.838 385.811 331.175 388.565 333.847C391.32 336.52 392.775 339.899 392.933 343.987V377L385.024 397.634L396.12 401.524L404.737 377V294.467Z" fill="white"/>
<path d="M183.02 294.467C183.02 287.707 180.659 282.008 175.938 277.371C171.216 272.733 165.708 270.453 159.412 270.532L124.001 365.21L147.608 447.743H253.844V424.752L222.091 339.035C219.652 332.904 215.245 329.838 208.871 329.838C205.172 329.838 201.946 331.175 199.192 333.847C196.437 336.52 194.982 339.899 194.824 343.987V377L202.733 397.634L191.637 401.524L183.02 377V294.467Z" fill="white"/>
<path d="M147.084 459.523H256.008V489.099H147.084V459.523Z" fill="#8646C4"/>
<path d="M331.75 462.409H440.674V491.984H331.75V462.409Z" fill="#8646C4"/>
<defs>
<filter id="filter0_d_254_210" x="192.213" y="560.868" width="209.243" height="28.3896" filterUnits="userSpaceOnUse" color-interpolation-filters="sRGB">
<feFlood flood-opacity="0" result="BackgroundImageFix"/>
<feColorMatrix in="SourceAlpha" type="matrix" values="0 0 0 0 0 0 0 0 0 0 0 0 0 0 0 0 0 0 127 0" result="hardAlpha"/>
<feOffset dy="3.44531"/>
<feComposite in2="hardAlpha" operator="out"/>
<feColorMatrix type="matrix" values="0 0 0 0 0.666536 0 0 0 0 0.211765 0 0 0 0 0.768627 0 0 0 1 0"/>
<feBlend mode="normal" in2="BackgroundImageFix" result="effect1_dropShadow_254_210"/>
<feBlend mode="normal" in="SourceGraphic" in2="effect1_dropShadow_254_210" result="shape"/>
</filter>
<filter id="filter1_ii_254_210" x="187.479" y="147.901" width="205.585" height="207.749" filterUnits="userSpaceOnUse" color-interpolation-filters="sRGB">
<feFlood flood-opacity="0" result="BackgroundImageFix"/>
<feBlend mode="normal" in="SourceGraphic" in2="BackgroundImageFix" result="shape"/>
<feColorMatrix in="SourceAlpha" type="matrix" values="0 0 0 0 0 0 0 0 0 0 0 0 0 0 0 0 0 0 127 0" result="hardAlpha"/>
<feOffset dx="1.4427" dy="-10.0989"/>
<feGaussianBlur stdDeviation="11.3252"/>
<feComposite in2="hardAlpha" operator="arithmetic" k2="-1" k3="1"/>
<feColorMatrix type="matrix" values="0 0 0 0 0 0 0 0 0 0 0 0 0 0 0 0 0 0 0.25 0"/>
<feBlend mode="normal" in2="shape" result="effect1_innerShadow_254_210"/>
<feColorMatrix in="SourceAlpha" type="matrix" values="0 0 0 0 0 0 0 0 0 0 0 0 0 0 0 0 0 0 127 0" result="hardAlpha"/>
<feOffset dx="1.4427" dy="13.7057"/>
<feGaussianBlur stdDeviation="11.217"/>
<feComposite in2="hardAlpha" operator="arithmetic" k2="-1" k3="1"/>
<feColorMatrix type="matrix" values="0 0 0 0 0 0 0 0 0 0 0 0 0 0 0 0 0 0 0.25 0"/>
<feBlend mode="normal" in2="effect1_innerShadow_254_210" result="effect2_innerShadow_254_210"/>
</filter>
</defs>
</svg>
