<svg width="588" height="651" viewBox="0 0 588 651" fill="none" xmlns="http://www.w3.org/2000/svg">
<g filter="url(#filter0_d_256_434)">
<path d="M139.659 570V545.883H145.241V570H139.659ZM123.122 570V545.883H128.703V570H123.122ZM128.29 560.112V555.392H140.073V560.112H128.29ZM161.662 570.413C158.239 570.413 155.564 569.46 153.634 567.554C151.705 565.647 150.74 562.926 150.74 559.388V545.883H156.322V559.182C156.322 561.479 156.792 563.132 157.734 564.143C158.676 565.154 159.997 565.659 161.696 565.659C163.396 565.659 164.717 565.154 165.658 564.143C166.6 563.132 167.071 561.479 167.071 559.182V545.883H172.583V559.388C172.583 562.926 171.619 565.647 169.689 567.554C167.76 569.46 165.084 570.413 161.662 570.413ZM178.099 570V545.883H182.716L192.983 562.903H190.536L200.631 545.883H205.213L205.282 570H200.046L200.011 553.91H200.976L192.914 567.45H190.399L182.164 553.91H183.336V570H178.099ZM207.835 570L218.584 545.883H224.096L234.88 570H229.023L220.203 548.708H222.408L213.554 570H207.835ZM213.209 564.832L214.691 560.594H227.094L228.61 564.832H213.209ZM237.382 570V545.883H241.999L256.228 563.247H253.989V545.883H259.501V570H254.919L240.656 552.636H242.895V570H237.382ZM274.965 570V545.883H285.266C288.62 545.883 291.227 546.664 293.087 548.226C294.947 549.765 295.878 551.901 295.878 554.634C295.878 556.425 295.453 557.976 294.603 559.285C293.753 560.571 292.547 561.559 290.985 562.248C289.423 562.937 287.563 563.282 285.404 563.282H278.065L280.546 560.835V570H274.965ZM290.296 570L284.267 561.249H290.227L296.326 570H290.296ZM280.546 561.456L278.065 558.837H285.094C286.817 558.837 288.103 558.47 288.953 557.735C289.802 556.977 290.227 555.943 290.227 554.634C290.227 553.302 289.802 552.268 288.953 551.533C288.103 550.798 286.817 550.431 285.094 550.431H278.065L280.546 547.778V561.456ZM300.3 570V545.883H318.526V550.362H305.847V565.521H318.973V570H300.3ZM305.433 559.94V555.599H317.044V559.94H305.433ZM331.339 570.413C329.409 570.413 327.56 570.161 325.792 569.655C324.023 569.127 322.599 568.45 321.519 567.623L323.414 563.419C324.448 564.154 325.665 564.763 327.066 565.245C328.49 565.705 329.926 565.935 331.373 565.935C332.476 565.935 333.36 565.831 334.026 565.624C334.715 565.395 335.22 565.085 335.542 564.694C335.863 564.304 336.024 563.856 336.024 563.351C336.024 562.707 335.772 562.202 335.266 561.835C334.761 561.444 334.095 561.134 333.268 560.904C332.441 560.652 331.522 560.422 330.512 560.215C329.524 559.986 328.525 559.71 327.514 559.388C326.527 559.067 325.619 558.653 324.792 558.148C323.966 557.643 323.288 556.977 322.76 556.15C322.254 555.323 322.002 554.266 322.002 552.98C322.002 551.602 322.369 550.35 323.104 549.225C323.862 548.076 324.988 547.169 326.481 546.503C327.997 545.814 329.892 545.469 332.165 545.469C333.681 545.469 335.174 545.653 336.644 546.021C338.114 546.365 339.412 546.893 340.538 547.605L338.815 551.843C337.689 551.2 336.564 550.729 335.438 550.431C334.313 550.109 333.211 549.948 332.131 549.948C331.051 549.948 330.167 550.075 329.478 550.327C328.789 550.58 328.295 550.913 327.997 551.326C327.698 551.717 327.549 552.176 327.549 552.705C327.549 553.325 327.801 553.83 328.307 554.22C328.812 554.588 329.478 554.887 330.305 555.116C331.132 555.346 332.039 555.576 333.027 555.805C334.037 556.035 335.037 556.299 336.024 556.598C337.035 556.896 337.954 557.298 338.78 557.804C339.607 558.309 340.273 558.975 340.779 559.802C341.307 560.629 341.571 561.674 341.571 562.937C341.571 564.292 341.192 565.533 340.434 566.658C339.676 567.784 338.539 568.691 337.023 569.38C335.53 570.069 333.635 570.413 331.339 570.413ZM357.099 570.413C355.193 570.413 353.424 570.103 351.793 569.483C350.185 568.863 348.784 567.99 347.59 566.865C346.419 565.739 345.5 564.419 344.834 562.903C344.191 561.387 343.869 559.733 343.869 557.941C343.869 556.15 344.191 554.496 344.834 552.98C345.5 551.464 346.43 550.144 347.624 549.018C348.819 547.893 350.22 547.02 351.828 546.4C353.436 545.779 355.181 545.469 357.065 545.469C358.971 545.469 360.717 545.779 362.301 546.4C363.909 547.02 365.299 547.893 366.47 549.018C367.665 550.144 368.595 551.464 369.261 552.98C369.927 554.473 370.26 556.127 370.26 557.941C370.26 559.733 369.927 561.398 369.261 562.937C368.595 564.453 367.665 565.774 366.47 566.899C365.299 568.002 363.909 568.863 362.301 569.483C360.717 570.103 358.982 570.413 357.099 570.413ZM357.065 565.659C358.144 565.659 359.132 565.475 360.028 565.108C360.946 564.74 361.75 564.212 362.439 563.523C363.128 562.834 363.657 562.018 364.024 561.077C364.415 560.135 364.61 559.09 364.61 557.941C364.61 556.793 364.415 555.748 364.024 554.806C363.657 553.864 363.128 553.049 362.439 552.36C361.773 551.671 360.981 551.143 360.062 550.775C359.143 550.408 358.144 550.224 357.065 550.224C355.985 550.224 354.986 550.408 354.067 550.775C353.171 551.143 352.379 551.671 351.69 552.36C351.001 553.049 350.461 553.864 350.071 554.806C349.703 555.748 349.519 556.793 349.519 557.941C349.519 559.067 349.703 560.112 350.071 561.077C350.461 562.018 350.989 562.834 351.655 563.523C352.344 564.212 353.148 564.74 354.067 565.108C354.986 565.475 355.985 565.659 357.065 565.659ZM385.17 570.413C381.747 570.413 379.071 569.46 377.142 567.554C375.213 565.647 374.248 562.926 374.248 559.388V545.883H379.829V559.182C379.829 561.479 380.3 563.132 381.242 564.143C382.184 565.154 383.504 565.659 385.204 565.659C386.904 565.659 388.225 565.154 389.166 564.143C390.108 563.132 390.579 561.479 390.579 559.182V545.883H396.091V559.388C396.091 562.926 395.127 565.647 393.197 567.554C391.268 569.46 388.592 570.413 385.17 570.413ZM401.607 570V545.883H411.908C415.262 545.883 417.869 546.664 419.729 548.226C421.59 549.765 422.52 551.901 422.52 554.634C422.52 556.425 422.095 557.976 421.245 559.285C420.395 560.571 419.189 561.559 417.628 562.248C416.066 562.937 414.205 563.282 412.046 563.282H404.708L407.188 560.835V570H401.607ZM416.938 570L410.909 561.249H416.87L422.968 570H416.938ZM407.188 561.456L404.708 558.837H411.736C413.459 558.837 414.745 558.47 415.595 557.735C416.445 556.977 416.87 555.943 416.87 554.634C416.87 553.302 416.445 552.268 415.595 551.533C414.745 550.798 413.459 550.431 411.736 550.431H404.708L407.188 547.778V561.456ZM438.484 570.413C436.623 570.413 434.889 570.115 433.281 569.518C431.696 568.897 430.318 568.025 429.147 566.899C427.976 565.774 427.057 564.453 426.391 562.937C425.748 561.421 425.426 559.756 425.426 557.941C425.426 556.127 425.748 554.462 426.391 552.946C427.057 551.43 427.976 550.109 429.147 548.984C430.341 547.858 431.731 546.997 433.316 546.4C434.901 545.779 436.635 545.469 438.518 545.469C440.608 545.469 442.492 545.837 444.169 546.572C445.868 547.284 447.292 548.34 448.441 549.742L444.858 553.049C444.031 552.107 443.112 551.407 442.101 550.947C441.091 550.465 439.988 550.224 438.794 550.224C437.668 550.224 436.635 550.408 435.693 550.775C434.751 551.143 433.936 551.671 433.247 552.36C432.558 553.049 432.018 553.864 431.628 554.806C431.26 555.748 431.076 556.793 431.076 557.941C431.076 559.09 431.26 560.135 431.628 561.077C432.018 562.018 432.558 562.834 433.247 563.523C433.936 564.212 434.751 564.74 435.693 565.108C436.635 565.475 437.668 565.659 438.794 565.659C439.988 565.659 441.091 565.429 442.101 564.97C443.112 564.487 444.031 563.764 444.858 562.799L448.441 566.107C447.292 567.508 445.868 568.576 444.169 569.311C442.492 570.046 440.597 570.413 438.484 570.413ZM451.873 570V545.883H470.099V550.362H457.42V565.521H470.547V570H451.873ZM457.007 559.94V555.599H468.618V559.94H457.007ZM159.526 612V587.883H170.483C173.101 587.883 175.409 588.388 177.408 589.399C179.406 590.386 180.968 591.776 182.093 593.568C183.219 595.359 183.781 597.484 183.781 599.941C183.781 602.376 183.219 604.501 182.093 606.315C180.968 608.107 179.406 609.508 177.408 610.519C175.409 611.506 173.101 612 170.483 612H159.526ZM165.108 607.418H170.207C171.815 607.418 173.204 607.119 174.376 606.522C175.57 605.902 176.489 605.029 177.132 603.904C177.798 602.778 178.131 601.457 178.131 599.941C178.131 598.402 177.798 597.082 177.132 595.979C176.489 594.854 175.57 593.992 174.376 593.395C173.204 592.775 171.815 592.465 170.207 592.465H165.108V607.418ZM187.991 612V587.883H206.216V592.362H193.538V607.521H206.664V612H187.991ZM193.124 601.94V597.599H204.735V601.94H193.124ZM218.004 612L207.599 587.883H213.628L222.724 609.244H219.175L228.409 587.883H233.956L223.516 612H218.004ZM235.969 612V587.883H254.195V592.362H241.516V607.521H254.643V612H235.969ZM241.103 601.94V597.599H252.714V601.94H241.103ZM259.084 612V587.883H264.665V607.452H276.758V612H259.084ZM291.187 612.413C289.281 612.413 287.512 612.103 285.881 611.483C284.274 610.863 282.873 609.99 281.678 608.865C280.507 607.739 279.588 606.419 278.922 604.903C278.279 603.387 277.957 601.733 277.957 599.941C277.957 598.15 278.279 596.496 278.922 594.98C279.588 593.464 280.518 592.144 281.713 591.018C282.907 589.893 284.308 589.02 285.916 588.4C287.524 587.779 289.269 587.469 291.153 587.469C293.059 587.469 294.805 587.779 296.39 588.4C297.997 589.02 299.387 589.893 300.558 591.018C301.753 592.144 302.683 593.464 303.349 594.98C304.015 596.473 304.348 598.127 304.348 599.941C304.348 601.733 304.015 603.398 303.349 604.937C302.683 606.453 301.753 607.774 300.558 608.899C299.387 610.002 297.997 610.863 296.39 611.483C294.805 612.103 293.071 612.413 291.187 612.413ZM291.153 607.659C292.232 607.659 293.22 607.475 294.116 607.108C295.034 606.74 295.838 606.212 296.527 605.523C297.217 604.834 297.745 604.018 298.112 603.077C298.503 602.135 298.698 601.09 298.698 599.941C298.698 598.793 298.503 597.748 298.112 596.806C297.745 595.864 297.217 595.049 296.527 594.36C295.861 593.671 295.069 593.143 294.15 592.775C293.231 592.408 292.232 592.224 291.153 592.224C290.073 592.224 289.074 592.408 288.155 592.775C287.26 593.143 286.467 593.671 285.778 594.36C285.089 595.049 284.549 595.864 284.159 596.806C283.791 597.748 283.608 598.793 283.608 599.941C283.608 601.067 283.791 602.112 284.159 603.077C284.549 604.018 285.078 604.834 285.744 605.523C286.433 606.212 287.237 606.74 288.155 607.108C289.074 607.475 290.073 607.659 291.153 607.659ZM308.543 612V587.883H318.982C321.141 587.883 323.002 588.239 324.564 588.951C326.126 589.64 327.331 590.639 328.181 591.948C329.031 593.257 329.456 594.819 329.456 596.634C329.456 598.425 329.031 599.976 328.181 601.285C327.331 602.594 326.126 603.605 324.564 604.317C323.002 605.006 321.141 605.351 318.982 605.351H311.644L314.124 602.835V612H308.543ZM314.124 603.456L311.644 600.803H318.672C320.395 600.803 321.681 600.435 322.531 599.7C323.381 598.965 323.806 597.943 323.806 596.634C323.806 595.302 323.381 594.268 322.531 593.533C321.681 592.798 320.395 592.431 318.672 592.431H311.644L314.124 589.778V603.456ZM333.441 612V587.883H338.057L348.325 604.903H345.878L355.973 587.883H360.555L360.624 612H355.387L355.353 595.91H356.318L348.256 609.45H345.741L337.506 595.91H338.678V612H333.441ZM366.346 612V587.883H384.572V592.362H371.893V607.521H385.02V612H366.346ZM371.48 601.94V597.599H383.09V601.94H371.48ZM389.461 612V587.883H394.077L408.307 605.247H406.067V587.883H411.58V612H406.997L392.734 594.636H394.973V612H389.461ZM422.281 612V592.431H414.564V587.883H435.58V592.431H427.863V612H422.281Z" fill="white"/>
</g>
<path d="M46.8641 77.9766V60.4766H54.3391C56.7724 60.4766 58.6641 61.0432 60.0141 62.1766C61.3641 63.2932 62.0391 64.8432 62.0391 66.8266C62.0391 68.1266 61.7307 69.2516 61.1141 70.2016C60.4974 71.1349 59.6224 71.8516 58.4891 72.3516C57.3557 72.8516 56.0057 73.1016 54.4391 73.1016H49.1141L50.9141 71.3266V77.9766H46.8641ZM57.9891 77.9766L53.6141 71.6266H57.9391L62.3641 77.9766H57.9891ZM50.9141 71.7766L49.1141 69.8766H54.2141C55.4641 69.8766 56.3974 69.6099 57.0141 69.0766C57.6307 68.5266 57.9391 67.7766 57.9391 66.8266C57.9391 65.8599 57.6307 65.1099 57.0141 64.5766C56.3974 64.0432 55.4641 63.7766 54.2141 63.7766H49.1141L50.9141 61.8516V71.7766ZM65.2479 77.9766V60.4766H78.4729V63.7266H69.2729V74.7266H78.7979V77.9766H65.2479ZM68.9729 70.6766V67.5266H77.3979V70.6766H68.9729ZM87.7703 78.2766C86.3703 78.2766 85.0286 78.0932 83.7453 77.7266C82.462 77.3432 81.4286 76.8516 80.6453 76.2516L82.0203 73.2016C82.7703 73.7349 83.6536 74.1766 84.6703 74.5266C85.7036 74.8599 86.7453 75.0266 87.7953 75.0266C88.5953 75.0266 89.237 74.9516 89.7203 74.8016C90.2203 74.6349 90.587 74.4099 90.8203 74.1266C91.0536 73.8432 91.1703 73.5182 91.1703 73.1516C91.1703 72.6849 90.987 72.3182 90.6203 72.0516C90.2536 71.7682 89.7703 71.5432 89.1703 71.3766C88.5703 71.1932 87.9036 71.0266 87.1703 70.8766C86.4536 70.7099 85.7286 70.5099 84.9953 70.2766C84.2786 70.0432 83.6203 69.7432 83.0203 69.3766C82.4203 69.0099 81.9286 68.5266 81.5453 67.9266C81.1786 67.3266 80.9953 66.5599 80.9953 65.6266C80.9953 64.6266 81.262 63.7182 81.7953 62.9016C82.3453 62.0682 83.162 61.4099 84.2453 60.9266C85.3453 60.4266 86.7203 60.1766 88.3703 60.1766C89.4703 60.1766 90.5536 60.3099 91.6203 60.5766C92.687 60.8266 93.6286 61.2099 94.4453 61.7266L93.1953 64.8016C92.3786 64.3349 91.562 63.9932 90.7453 63.7766C89.9286 63.5432 89.1286 63.4266 88.3453 63.4266C87.562 63.4266 86.9203 63.5182 86.4203 63.7016C85.9203 63.8849 85.562 64.1266 85.3453 64.4266C85.1286 64.7099 85.0203 65.0432 85.0203 65.4266C85.0203 65.8766 85.2036 66.2432 85.5703 66.5266C85.937 66.7932 86.4203 67.0099 87.0203 67.1766C87.6203 67.3432 88.2786 67.5099 88.9953 67.6766C89.7286 67.8432 90.4536 68.0349 91.1703 68.2516C91.9036 68.4682 92.5703 68.7599 93.1703 69.1266C93.7703 69.4932 94.2536 69.9766 94.6203 70.5766C95.0036 71.1766 95.1953 71.9349 95.1953 72.8516C95.1953 73.8349 94.9203 74.7349 94.3703 75.5516C93.8203 76.3682 92.9953 77.0266 91.8953 77.5266C90.812 78.0266 89.437 78.2766 87.7703 78.2766ZM106.463 78.2766C105.079 78.2766 103.796 78.0516 102.613 77.6016C101.446 77.1516 100.429 76.5182 99.5627 75.7016C98.7127 74.8849 98.046 73.9266 97.5627 72.8266C97.096 71.7266 96.8627 70.5266 96.8627 69.2266C96.8627 67.9266 97.096 66.7266 97.5627 65.6266C98.046 64.5266 98.721 63.5682 99.5877 62.7516C100.454 61.9349 101.471 61.3016 102.638 60.8516C103.804 60.4016 105.071 60.1766 106.438 60.1766C107.821 60.1766 109.088 60.4016 110.238 60.8516C111.404 61.3016 112.413 61.9349 113.263 62.7516C114.129 63.5682 114.804 64.5266 115.288 65.6266C115.771 66.7099 116.013 67.9099 116.013 69.2266C116.013 70.5266 115.771 71.7349 115.288 72.8516C114.804 73.9516 114.129 74.9099 113.263 75.7266C112.413 76.5266 111.404 77.1516 110.238 77.6016C109.088 78.0516 107.829 78.2766 106.463 78.2766ZM106.438 74.8266C107.221 74.8266 107.938 74.6932 108.588 74.4266C109.254 74.1599 109.838 73.7766 110.338 73.2766C110.838 72.7766 111.221 72.1849 111.488 71.5016C111.771 70.8182 111.913 70.0599 111.913 69.2266C111.913 68.3932 111.771 67.6349 111.488 66.9516C111.221 66.2682 110.838 65.6766 110.338 65.1766C109.854 64.6766 109.279 64.2932 108.613 64.0266C107.946 63.7599 107.221 63.6266 106.438 63.6266C105.654 63.6266 104.929 63.7599 104.263 64.0266C103.613 64.2932 103.038 64.6766 102.538 65.1766C102.038 65.6766 101.646 66.2682 101.363 66.9516C101.096 67.6349 100.963 68.3932 100.963 69.2266C100.963 70.0432 101.096 70.8016 101.363 71.5016C101.646 72.1849 102.029 72.7766 102.513 73.2766C103.013 73.7766 103.596 74.1599 104.263 74.4266C104.929 74.6932 105.654 74.8266 106.438 74.8266ZM126.831 78.2766C124.348 78.2766 122.406 77.5849 121.006 76.2016C119.606 74.8182 118.906 72.8432 118.906 70.2766V60.4766H122.956V70.1266C122.956 71.7932 123.298 72.9932 123.981 73.7266C124.665 74.4599 125.623 74.8266 126.856 74.8266C128.09 74.8266 129.048 74.4599 129.731 73.7266C130.415 72.9932 130.756 71.7932 130.756 70.1266V60.4766H134.756V70.2766C134.756 72.8432 134.056 74.8182 132.656 76.2016C131.256 77.5849 129.315 78.2766 126.831 78.2766ZM138.759 77.9766V60.4766H146.234C148.667 60.4766 150.559 61.0432 151.909 62.1766C153.259 63.2932 153.934 64.8432 153.934 66.8266C153.934 68.1266 153.625 69.2516 153.009 70.2016C152.392 71.1349 151.517 71.8516 150.384 72.3516C149.25 72.8516 147.9 73.1016 146.334 73.1016H141.009L142.809 71.3266V77.9766H138.759ZM149.884 77.9766L145.509 71.6266H149.834L154.259 77.9766H149.884ZM142.809 71.7766L141.009 69.8766H146.109C147.359 69.8766 148.292 69.6099 148.909 69.0766C149.525 68.5266 149.834 67.7766 149.834 66.8266C149.834 65.8599 149.525 65.1099 148.909 64.5766C148.292 64.0432 147.359 63.7766 146.109 63.7766H141.009L142.809 61.8516V71.7766ZM165.517 78.2766C164.167 78.2766 162.909 78.0599 161.742 77.6266C160.592 77.1766 159.592 76.5432 158.742 75.7266C157.892 74.9099 157.226 73.9516 156.742 72.8516C156.276 71.7516 156.042 70.5432 156.042 69.2266C156.042 67.9099 156.276 66.7016 156.742 65.6016C157.226 64.5016 157.892 63.5432 158.742 62.7266C159.609 61.9099 160.617 61.2849 161.767 60.8516C162.917 60.4016 164.176 60.1766 165.542 60.1766C167.059 60.1766 168.426 60.4432 169.642 60.9766C170.876 61.4932 171.909 62.2599 172.742 63.2766L170.142 65.6766C169.542 64.9932 168.876 64.4849 168.142 64.1516C167.409 63.8016 166.609 63.6266 165.742 63.6266C164.926 63.6266 164.176 63.7599 163.492 64.0266C162.809 64.2932 162.217 64.6766 161.717 65.1766C161.217 65.6766 160.826 66.2682 160.542 66.9516C160.276 67.6349 160.142 68.3932 160.142 69.2266C160.142 70.0599 160.276 70.8182 160.542 71.5016C160.826 72.1849 161.217 72.7766 161.717 73.2766C162.217 73.7766 162.809 74.1599 163.492 74.4266C164.176 74.6932 164.926 74.8266 165.742 74.8266C166.609 74.8266 167.409 74.6599 168.142 74.3266C168.876 73.9766 169.542 73.4516 170.142 72.7516L172.742 75.1516C171.909 76.1682 170.876 76.9432 169.642 77.4766C168.426 78.0099 167.051 78.2766 165.517 78.2766ZM175.233 77.9766V60.4766H188.458V63.7266H179.258V74.7266H188.783V77.9766H175.233ZM178.958 70.6766V67.5266H187.383V70.6766H178.958ZM60.3141 108.277L50.1391 98.8266C49.5557 98.2932 49.0891 97.7932 48.7391 97.3266C48.3891 96.8599 48.1307 96.4016 47.9641 95.9516C47.8141 95.5016 47.7391 95.0349 47.7391 94.5516C47.7391 93.7016 47.9641 92.9516 48.4141 92.3016C48.8641 91.6516 49.4974 91.1516 50.3141 90.8016C51.1307 90.4349 52.0891 90.2516 53.1891 90.2516C54.2057 90.2516 55.0807 90.4182 55.8141 90.7516C56.5641 91.0682 57.1474 91.5266 57.5641 92.1266C57.9974 92.7266 58.2141 93.4432 58.2141 94.2766C58.2141 95.0099 58.0307 95.6849 57.6641 96.3016C57.2974 96.9016 56.7224 97.4682 55.9391 98.0016C55.1724 98.5349 54.1641 99.0766 52.9141 99.6266C52.0641 100.01 51.3891 100.385 50.8891 100.752C50.4057 101.102 50.0557 101.46 49.8391 101.827C49.6224 102.193 49.5141 102.602 49.5141 103.052C49.5141 103.468 49.6391 103.843 49.8891 104.177C50.1557 104.51 50.5224 104.768 50.9891 104.952C51.4557 105.135 52.0057 105.227 52.6391 105.227C53.6557 105.227 54.5891 104.993 55.4391 104.527C56.2891 104.043 57.0057 103.335 57.5891 102.402C58.1891 101.452 58.6141 100.302 58.8641 98.9516L61.9891 99.9266C61.6391 101.627 61.0141 103.102 60.1141 104.352C59.2141 105.602 58.1057 106.568 56.7891 107.252C55.4724 107.935 53.9974 108.277 52.3641 108.277C51.0807 108.277 49.9391 108.068 48.9391 107.652C47.9391 107.235 47.1474 106.668 46.5641 105.952C45.9807 105.235 45.6891 104.41 45.6891 103.477C45.6891 102.61 45.8807 101.835 46.2641 101.152C46.6474 100.452 47.2557 99.8016 48.0891 99.2016C48.9224 98.5849 49.9807 97.9849 51.2641 97.4016C52.1974 96.9682 52.9307 96.5849 53.4641 96.2516C53.9974 95.9182 54.3724 95.6016 54.5891 95.3016C54.8057 94.9849 54.9141 94.6682 54.9141 94.3516C54.9141 93.9182 54.7641 93.5682 54.4641 93.3016C54.1807 93.0349 53.7557 92.9016 53.1891 92.9016C52.5891 92.9016 52.1224 93.0516 51.7891 93.3516C51.4557 93.6516 51.2891 94.0349 51.2891 94.5016C51.2891 94.7516 51.3391 95.0016 51.4391 95.2516C51.5391 95.4849 51.7307 95.7599 52.0141 96.0766C52.2974 96.3766 52.6974 96.7682 53.2141 97.2516L62.4391 105.802L60.3141 108.277ZM72.1326 107.977V90.4766H80.0826C81.9826 90.4766 83.6576 90.8432 85.1076 91.5766C86.5576 92.2932 87.691 93.3016 88.5076 94.6016C89.3243 95.9016 89.7326 97.4432 89.7326 99.2266C89.7326 100.993 89.3243 102.535 88.5076 103.852C87.691 105.152 86.5576 106.168 85.1076 106.902C83.6576 107.618 81.9826 107.977 80.0826 107.977H72.1326ZM76.1826 104.652H79.8826C81.0493 104.652 82.0576 104.435 82.9076 104.002C83.7743 103.552 84.441 102.918 84.9076 102.102C85.391 101.285 85.6326 100.327 85.6326 99.2266C85.6326 98.1099 85.391 97.1516 84.9076 96.3516C84.441 95.5349 83.7743 94.9099 82.9076 94.4766C82.0576 94.0266 81.0493 93.8016 79.8826 93.8016H76.1826V104.652ZM92.7869 107.977V90.4766H106.012V93.7266H96.8119V104.727H106.337V107.977H92.7869ZM96.5119 100.677V97.5266H104.937V100.677H96.5119ZM114.565 107.977L107.015 90.4766H111.39L117.99 105.977H115.415L122.115 90.4766H126.14L118.565 107.977H114.565ZM127.601 107.977V90.4766H140.826V93.7266H131.626V104.727H141.151V107.977H127.601ZM131.326 100.677V97.5266H139.751V100.677H131.326ZM144.374 107.977V90.4766H148.424V104.677H157.199V107.977H144.374ZM167.669 108.277C166.285 108.277 165.002 108.052 163.819 107.602C162.652 107.152 161.635 106.518 160.769 105.702C159.919 104.885 159.252 103.927 158.769 102.827C158.302 101.727 158.069 100.527 158.069 99.2266C158.069 97.9266 158.302 96.7266 158.769 95.6266C159.252 94.5266 159.927 93.5682 160.794 92.7516C161.66 91.9349 162.677 91.3016 163.844 90.8516C165.01 90.4016 166.277 90.1766 167.644 90.1766C169.027 90.1766 170.294 90.4016 171.444 90.8516C172.61 91.3016 173.619 91.9349 174.469 92.7516C175.335 93.5682 176.01 94.5266 176.494 95.6266C176.977 96.7099 177.219 97.9099 177.219 99.2266C177.219 100.527 176.977 101.735 176.494 102.852C176.01 103.952 175.335 104.91 174.469 105.727C173.619 106.527 172.61 107.152 171.444 107.602C170.294 108.052 169.035 108.277 167.669 108.277ZM167.644 104.827C168.427 104.827 169.144 104.693 169.794 104.427C170.46 104.16 171.044 103.777 171.544 103.277C172.044 102.777 172.427 102.185 172.694 101.502C172.977 100.818 173.119 100.06 173.119 99.2266C173.119 98.3932 172.977 97.6349 172.694 96.9516C172.427 96.2682 172.044 95.6766 171.544 95.1766C171.06 94.6766 170.485 94.2932 169.819 94.0266C169.152 93.7599 168.427 93.6266 167.644 93.6266C166.86 93.6266 166.135 93.7599 165.469 94.0266C164.819 94.2932 164.244 94.6766 163.744 95.1766C163.244 95.6766 162.852 96.2682 162.569 96.9516C162.302 97.6349 162.169 98.3932 162.169 99.2266C162.169 100.043 162.302 100.802 162.569 101.502C162.852 102.185 163.235 102.777 163.719 103.277C164.219 103.777 164.802 104.16 165.469 104.427C166.135 104.693 166.86 104.827 167.644 104.827ZM180.263 107.977V90.4766H187.838C189.404 90.4766 190.754 90.7349 191.888 91.2516C193.021 91.7516 193.896 92.4766 194.513 93.4266C195.129 94.3766 195.438 95.5099 195.438 96.8266C195.438 98.1266 195.129 99.2516 194.513 100.202C193.896 101.152 193.021 101.885 191.888 102.402C190.754 102.902 189.404 103.152 187.838 103.152H182.513L184.313 101.327V107.977H180.263ZM184.313 101.777L182.513 99.8516H187.613C188.863 99.8516 189.796 99.5849 190.413 99.0516C191.029 98.5182 191.338 97.7766 191.338 96.8266C191.338 95.8599 191.029 95.1099 190.413 94.5766C189.796 94.0432 188.863 93.7766 187.613 93.7766H182.513L184.313 91.8516V101.777ZM198.329 107.977V90.4766H201.679L209.129 102.827H207.354L214.679 90.4766H218.004L218.054 107.977H214.254L214.229 96.3016H214.929L209.079 106.127H207.254L201.279 96.3016H202.129V107.977H198.329ZM222.206 107.977V90.4766H235.431V93.7266H226.231V104.727H235.756V107.977H222.206ZM225.931 100.677V97.5266H234.356V100.677H225.931ZM238.978 107.977V90.4766H242.328L252.653 103.077H251.028V90.4766H255.028V107.977H251.703L241.353 95.3766H242.978V107.977H238.978ZM262.794 107.977V93.7766H257.194V90.4766H272.444V93.7766H266.844V107.977H262.794Z" fill="white"/>
<path d="M338.855 172.061C334.918 172.554 331.179 174.475 328.468 177.678L328.393 177.767L314.55 195.025H277.871L264.145 177.023C260.301 171.937 253.72 169.685 247.609 171.149L249.34 157.974C250.004 153.775 253.647 150.6 258.013 150.565L327.876 150.001C329.964 149.978 331.992 150.695 333.601 152.026C335.21 153.356 336.297 155.213 336.668 157.268L338.855 172.061Z" fill="#8646C4"/>
<path d="M192.611 242.796L184.307 221.733L184.29 221.689C182.842 217.898 182.894 213.754 184.304 210.084L170.242 204.566C166.387 203.025 161.684 204.635 159.619 208.496L125.176 269.23C122.936 273.092 124.022 277.801 127.362 280.395L137.947 288.44C139.727 282.286 145.044 277.79 151.36 276.957L151.367 276.956L174.616 273.93L192.611 242.796Z" fill="#8646C4"/>
<path d="M172.84 371.929L149.936 368.423L149.778 368.392C146.095 367.69 142.619 365.642 140.149 362.659L128.104 372.297C124.807 374.944 123.797 379.67 126.099 383.496L161.518 443.666C163.645 447.492 168.372 448.852 172.204 447.423L184.951 442.131C180.457 437.635 178.895 430.811 181.28 424.703L181.323 424.595L190.58 402.619L172.84 371.929Z" fill="#8646C4"/>
<path d="M274.186 453.905L260.063 471.512L259.988 471.601C257.311 474.764 253.631 476.677 249.748 477.199L252.044 492.732C252.776 496.92 256.469 500.035 260.836 500L330.699 499.435C335.065 499.4 338.707 496.226 339.372 492.027L341.209 478.041C334.89 479.7 328.305 477.156 324.506 472.503L324.404 472.378L310.42 453.905H274.186Z" fill="#8646C4"/>
<path d="M396.433 407.452L404.164 427.583L404.166 427.59C405.731 431.684 405.493 435.964 403.899 439.658L418.47 445.434C422.324 446.801 427.028 445.365 429.093 441.504L463.536 380.77C465.601 376.909 464.69 372.199 461.35 369.605L450.363 361.101C448.519 366.885 443.582 371.467 437.097 372.322L437.051 372.328L415.204 374.975L396.433 407.452Z" fill="#8646C4"/>
<path d="M417.27 277.529L438.336 280.828L438.37 280.833C442.573 281.473 446.247 283.784 448.709 287.053L460.608 277.704C463.905 275.056 464.74 270.332 462.613 266.505L427.193 206.335C425.066 202.508 420.338 200.973 416.508 202.577L404.037 207.705C405.506 209.32 406.646 211.227 407.374 213.32C408.64 216.961 408.576 220.932 407.194 224.529L407.144 224.661L398.531 245.108L417.27 277.529Z" fill="#8646C4"/>
<g filter="url(#filter1_d_256_434)">
<path d="M389.991 415.227C386.032 417.685 381.088 418.089 376.94 416.581L376.789 416.526L351.158 406.129C346.904 409.11 342.437 411.782 337.565 414.117L333.76 441.37L333.741 441.485C332.676 447.878 327.599 452.76 321.325 453.73L331.324 466.938C333.522 469.632 337.575 470.663 340.779 468.768L392.609 439.812C395.813 437.916 397.229 434.09 395.945 430.731L389.991 415.227Z" fill="#BA75DF"/>
<path d="M264.146 452.358C259.969 450.29 256.87 446.319 256.064 441.485L256.045 441.37L252.247 414.165C247.333 411.836 242.858 409.113 238.636 406.133L213.016 416.526L212.865 416.581C207.303 418.603 200.312 417.188 196.18 411.994L189.478 427.905C188.163 431.272 189.473 435.166 192.663 437.066L243.698 467.475C246.887 469.375 250.936 468.674 253.271 465.915L264.146 452.358Z" fill="#BA75DF"/>
<path d="M435.946 363.597L420.286 365.495C422.109 359.804 420.495 353.279 415.438 349.287L393.807 332.267C394.031 329.752 394.176 327.15 394.176 324.465C394.176 321.721 394.024 319.018 393.792 316.368L415.402 299.673L415.438 299.644C419.457 296.471 421.301 291.699 420.974 287.017L437.03 289.531C440.521 290.055 443.282 293.256 443.14 296.977L442.345 356.341C442.202 360.061 439.511 363.127 435.946 363.597Z" fill="#BA75DF"/>
<path d="M392.815 236.008L398.979 221.375C399.615 219.717 399.645 217.888 399.061 216.211C398.478 214.534 397.321 213.118 395.793 212.213L344.759 181.805C341.569 179.904 337.521 180.605 335.185 183.364L324.878 196.214C326.226 196.788 327.493 197.561 328.632 198.518C331.327 200.782 333.134 203.928 333.733 207.397L333.757 207.536L337.558 234.765C342.468 237.089 346.932 239.795 351.132 242.711L376.615 232.476L376.647 232.463C382.244 230.189 388.709 231.669 392.815 236.008Z" fill="#BA75DF"/>
<path d="M267.144 195.471L257.133 182.341C255.01 179.52 250.881 178.616 247.677 180.512L195.847 209.468C192.515 211.287 191.228 215.189 192.511 218.548L198.766 234.415C202.819 231.339 208.313 230.494 213.158 232.463L238.673 242.711C242.873 239.795 247.337 237.089 252.247 234.765L256.045 207.561L256.064 207.446C257.053 201.514 261.495 196.882 267.144 195.471Z" fill="#BA75DF"/>
<path d="M169.461 283.476C167.516 289.391 169.564 295.852 174.367 299.644L174.403 299.673L196.013 316.368C195.781 319.018 195.629 321.721 195.629 324.465C195.629 327.15 195.774 329.752 195.998 332.267L174.373 349.282L174.367 349.287C170.38 352.434 168.291 357.422 168.809 362.409L151.426 359.748C148.011 359.097 145.175 356.023 145.317 352.303L146.112 292.938C146.126 289.142 148.945 286.152 152.51 285.682L169.461 283.476Z" fill="#BA75DF"/>
</g>
<g filter="url(#filter2_d_256_434)">
<path fill-rule="evenodd" clip-rule="evenodd" d="M384.758 324.355C384.758 328.336 384.397 332.197 383.914 336.057L409.367 356.083C411.659 357.893 412.262 361.15 410.815 363.804L386.689 405.545C385.241 408.2 381.984 409.165 379.33 408.2L349.293 396.015C343.02 400.841 336.506 404.822 328.906 407.958L324.443 439.928C323.96 442.823 321.427 444.995 318.411 444.995H270.159C267.143 444.995 264.61 442.823 264.127 439.928L259.664 407.958C252.064 404.942 245.55 400.841 239.277 396.015L209.24 408.2C206.586 409.165 203.329 408.2 201.882 405.545L177.755 363.804C176.187 361.15 176.911 357.893 179.203 356.083L204.656 336.057C204.174 332.197 203.812 328.336 203.812 324.355C203.812 320.374 204.174 316.393 204.656 312.291L179.203 292.627C176.911 290.817 176.187 287.56 177.755 284.906L201.882 243.165C203.329 240.51 206.586 239.425 209.24 240.51L239.277 252.574C245.55 247.869 252.064 243.768 259.664 240.752L264.127 208.782C264.61 205.887 267.143 203.715 270.159 203.715H318.411C319.853 203.711 321.25 204.218 322.354 205.146C323.458 206.073 324.198 207.361 324.443 208.782L328.906 240.752C336.506 243.768 343.02 247.869 349.293 252.574L379.33 240.51C381.984 239.425 385.241 240.51 386.689 243.165L410.815 284.906C412.262 287.56 411.659 290.817 409.367 292.627L383.914 312.291C384.397 316.393 384.758 320.374 384.758 324.355ZM371.996 360.428C371.996 356.654 370.934 352.996 368.983 349.847C370.929 346.969 371.996 343.551 371.996 340.016V322.155C371.996 314.764 369.041 307.691 363.807 302.488C363.159 301.843 362.482 301.234 361.78 300.661C365.067 295.73 366.862 289.902 366.862 283.882C366.862 275.814 363.637 268.092 357.922 262.411C352.208 256.731 344.475 253.554 336.427 253.554C329.662 253.554 323.119 255.799 317.811 259.889C317.266 259.258 316.696 258.646 316.101 258.055C309.906 251.897 301.52 248.451 292.792 248.451C284.063 248.451 275.677 251.897 269.482 258.055C268.887 258.646 268.317 259.258 267.772 259.889C262.465 255.799 255.922 253.554 249.156 253.554C241.108 253.554 233.375 256.731 227.662 262.411C221.946 268.092 218.721 275.814 218.721 283.882C218.721 289.902 220.517 295.73 223.803 300.661C223.101 301.234 222.425 301.843 221.776 302.488C216.542 307.691 213.588 314.764 213.588 322.155V340.016C213.588 343.551 214.654 346.969 216.601 349.847C214.65 352.996 213.588 356.654 213.588 360.428C213.588 369.849 217.353 378.869 224.032 385.507C230.708 392.144 239.747 395.859 249.156 395.859H336.427C345.837 395.859 354.876 392.144 361.552 385.507C368.23 378.869 371.996 369.849 371.996 360.428Z" fill="white"/>
</g>
<g filter="url(#filter3_i_256_434)">
<path fill-rule="evenodd" clip-rule="evenodd" d="M260.173 306.847C256.512 310.909 254.289 316.277 254.289 322.156V345.12H231.188C229.827 345.12 228.521 344.582 227.558 343.625C226.596 342.668 226.055 341.37 226.055 340.017V322.156C226.055 318.096 227.677 314.202 230.565 311.331C233.454 308.46 237.371 306.847 241.455 306.847H260.173ZM325.41 306.847C329.207 311.052 331.303 316.506 331.294 322.156V345.12H354.395C355.756 345.12 357.062 344.582 358.025 343.625C358.987 342.668 359.528 341.37 359.528 340.017V322.156C359.528 318.096 357.906 314.202 355.018 311.331C352.129 308.46 348.212 306.847 344.128 306.847H325.41ZM228.31 355.016C226.866 356.452 226.055 358.399 226.055 360.429C226.055 366.519 228.489 372.36 232.821 376.667C237.153 380.973 243.029 383.392 249.156 383.392H336.427C342.554 383.392 348.43 380.973 352.762 376.667C357.094 372.36 359.528 366.519 359.528 360.429C359.528 358.399 358.717 356.452 357.273 355.016C355.829 353.581 353.87 352.774 351.828 352.774H233.755C231.713 352.774 229.754 353.581 228.31 355.016ZM266.501 311.331C263.612 314.202 261.99 318.096 261.99 322.156V345.12H323.593V322.156C323.593 318.096 321.971 314.202 319.082 311.331C316.194 308.46 312.277 306.847 308.192 306.847H277.391C273.306 306.847 269.389 308.46 266.501 311.331Z" fill="#BA75DF"/>
<path d="M318.46 283.883C318.46 279.146 320.353 274.603 323.722 271.254C327.092 267.904 331.662 266.022 336.427 266.022C341.192 266.022 345.763 267.904 349.132 271.254C352.502 274.603 354.395 279.146 354.395 283.883C354.395 288.62 352.502 293.163 349.132 296.513C345.763 299.862 341.192 301.744 336.427 301.744C331.662 301.744 327.092 299.862 323.722 296.513C320.353 293.163 318.46 288.62 318.46 283.883Z" fill="#A68CD3"/>
<path d="M272.257 281.332C272.257 275.918 274.421 270.726 278.271 266.898C282.122 263.07 287.345 260.919 292.792 260.919C298.238 260.919 303.461 263.07 307.312 266.898C311.162 270.726 313.326 275.918 313.326 281.332C313.326 286.745 311.162 291.937 307.312 295.765C303.461 299.593 298.238 301.744 292.792 301.744C287.345 301.744 282.122 299.593 278.271 295.765C274.421 291.937 272.257 286.745 272.257 281.332Z" fill="#A68CD3"/>
<path d="M231.188 283.883C231.188 279.146 233.081 274.603 236.451 271.254C239.82 267.904 244.391 266.022 249.156 266.022C253.921 266.022 258.491 267.904 261.861 271.254C265.23 274.603 267.123 279.146 267.123 283.883C267.123 288.62 265.23 293.163 261.861 296.513C258.491 299.862 253.921 301.744 249.156 301.744C244.391 301.744 239.82 299.862 236.451 296.513C233.081 293.163 231.188 288.62 231.188 283.883Z" fill="#A68CD3"/>
</g>
<defs>
<filter id="filter0_d_256_434" x="123.122" y="545.469" width="347.425" height="70.3896" filterUnits="userSpaceOnUse" color-interpolation-filters="sRGB">
<feFlood flood-opacity="0" result="BackgroundImageFix"/>
<feColorMatrix in="SourceAlpha" type="matrix" values="0 0 0 0 0 0 0 0 0 0 0 0 0 0 0 0 0 0 127 0" result="hardAlpha"/>
<feOffset dy="3.44531"/>
<feComposite in2="hardAlpha" operator="out"/>
<feColorMatrix type="matrix" values="0 0 0 0 0.666536 0 0 0 0 0.211765 0 0 0 0 0.768627 0 0 0 1 0"/>
<feBlend mode="normal" in2="BackgroundImageFix" result="effect1_dropShadow_256_434"/>
<feBlend mode="normal" in="SourceGraphic" in2="effect1_dropShadow_256_434" result="shape"/>
</filter>
<filter id="filter1_d_256_434" x="136.144" y="179.512" width="316.167" height="314.793" filterUnits="userSpaceOnUse" color-interpolation-filters="sRGB">
<feFlood flood-opacity="0" result="BackgroundImageFix"/>
<feColorMatrix in="SourceAlpha" type="matrix" values="0 0 0 0 0 0 0 0 0 0 0 0 0 0 0 0 0 0 127 0" result="hardAlpha"/>
<feOffset dy="15.4008"/>
<feGaussianBlur stdDeviation="4.58357"/>
<feComposite in2="hardAlpha" operator="out"/>
<feColorMatrix type="matrix" values="0 0 0 0 0 0 0 0 0 0 0 0 0 0 0 0 0 0 0.25 0"/>
<feBlend mode="normal" in2="BackgroundImageFix" result="effect1_dropShadow_256_434"/>
<feBlend mode="normal" in="SourceGraphic" in2="effect1_dropShadow_256_434" result="shape"/>
</filter>
<filter id="filter2_d_256_434" x="171.639" y="203.715" width="245.239" height="259.76" filterUnits="userSpaceOnUse" color-interpolation-filters="sRGB">
<feFlood flood-opacity="0" result="BackgroundImageFix"/>
<feColorMatrix in="SourceAlpha" type="matrix" values="0 0 0 0 0 0 0 0 0 0 0 0 0 0 0 0 0 0 127 0" result="hardAlpha"/>
<feOffset dy="13.2007"/>
<feGaussianBlur stdDeviation="2.64014"/>
<feComposite in2="hardAlpha" operator="out"/>
<feColorMatrix type="matrix" values="0 0 0 0 0 0 0 0 0 0 0 0 0 0 0 0 0 0 0.25 0"/>
<feBlend mode="normal" in2="BackgroundImageFix" result="effect1_dropShadow_256_434"/>
<feBlend mode="normal" in="SourceGraphic" in2="effect1_dropShadow_256_434" result="shape"/>
</filter>
<filter id="filter3_i_256_434" x="226.055" y="260.919" width="133.474" height="126.14" filterUnits="userSpaceOnUse" color-interpolation-filters="sRGB">
<feFlood flood-opacity="0" result="BackgroundImageFix"/>
<feBlend mode="normal" in="SourceGraphic" in2="BackgroundImageFix" result="shape"/>
<feColorMatrix in="SourceAlpha" type="matrix" values="0 0 0 0 0 0 0 0 0 0 0 0 0 0 0 0 0 0 127 0" result="hardAlpha"/>
<feOffset dy="3.66686"/>
<feGaussianBlur stdDeviation="3.2635"/>
<feComposite in2="hardAlpha" operator="arithmetic" k2="-1" k3="1"/>
<feColorMatrix type="matrix" values="0 0 0 0 0 0 0 0 0 0 0 0 0 0 0 0 0 0 0.25 0"/>
<feBlend mode="normal" in2="shape" result="effect1_innerShadow_256_434"/>
</filter>
</defs>
</svg>
