<svg width="588" height="651" viewBox="0 0 588 651" fill="none" xmlns="http://www.w3.org/2000/svg">
<g filter="url(#filter0_d_254_174)">
<path d="M207.534 572V547.883H217.836C221.189 547.883 223.796 548.664 225.656 550.226C227.517 551.765 228.447 553.901 228.447 556.634C228.447 558.425 228.022 559.976 227.172 561.285C226.323 562.571 225.117 563.559 223.555 564.248C221.993 564.937 220.132 565.282 217.973 565.282H210.635L213.116 562.835V572H207.534ZM222.866 572L216.836 563.249H222.797L228.895 572H222.866ZM213.116 563.456L210.635 560.837H217.663C219.386 560.837 220.672 560.47 221.522 559.735C222.372 558.977 222.797 557.943 222.797 556.634C222.797 555.302 222.372 554.268 221.522 553.533C220.672 552.798 219.386 552.431 217.663 552.431H210.635L213.116 549.778V563.456ZM232.869 572V547.883H251.095V552.362H238.416V567.521H251.543V572H232.869ZM238.003 561.94V557.599H249.614V561.94H238.003ZM255.984 572V547.883H261.565V567.452H273.658V572H255.984ZM273.742 572L284.491 547.883H290.004L300.787 572H294.93L286.11 550.708H288.315L279.461 572H273.742ZM279.116 566.832L280.598 562.594H293.001L294.517 566.832H279.116ZM307.074 572V552.431H299.357V547.883H320.373V552.431H312.655V572H307.074ZM323.376 572V547.883H328.957V572H323.376ZM346.395 572.413C344.489 572.413 342.72 572.103 341.089 571.483C339.481 570.863 338.08 569.99 336.886 568.865C335.715 567.739 334.796 566.419 334.13 564.903C333.487 563.387 333.165 561.733 333.165 559.941C333.165 558.15 333.487 556.496 334.13 554.98C334.796 553.464 335.726 552.144 336.92 551.018C338.115 549.893 339.516 549.02 341.124 548.4C342.732 547.779 344.477 547.469 346.361 547.469C348.267 547.469 350.013 547.779 351.597 548.4C353.205 549.02 354.595 549.893 355.766 551.018C356.961 552.144 357.891 553.464 358.557 554.98C359.223 556.473 359.556 558.127 359.556 559.941C359.556 561.733 359.223 563.398 358.557 564.937C357.891 566.453 356.961 567.774 355.766 568.899C354.595 570.002 353.205 570.863 351.597 571.483C350.013 572.103 348.278 572.413 346.395 572.413ZM346.361 567.659C347.44 567.659 348.428 567.475 349.324 567.108C350.242 566.74 351.046 566.212 351.735 565.523C352.424 564.834 352.953 564.018 353.32 563.077C353.711 562.135 353.906 561.09 353.906 559.941C353.906 558.793 353.711 557.748 353.32 556.806C352.953 555.864 352.424 555.049 351.735 554.36C351.069 553.671 350.277 553.143 349.358 552.775C348.439 552.408 347.44 552.224 346.361 552.224C345.281 552.224 344.282 552.408 343.363 552.775C342.467 553.143 341.675 553.671 340.986 554.36C340.297 555.049 339.757 555.864 339.367 556.806C338.999 557.748 338.815 558.793 338.815 559.941C338.815 561.067 338.999 562.112 339.367 563.077C339.757 564.018 340.285 564.834 340.951 565.523C341.64 566.212 342.444 566.74 343.363 567.108C344.282 567.475 345.281 567.659 346.361 567.659ZM363.751 572V547.883H368.368L382.597 565.247H380.357V547.883H385.87V572H381.287L367.024 554.636H369.263V572H363.751ZM192.108 614V589.883H210.333V594.362H197.655V609.521H210.781V614H192.108ZM197.241 603.94V599.599H208.852V603.94H197.241ZM212.264 614L222.634 599.702V603.767L212.712 589.883H219.051L225.907 599.564L223.255 599.599L230.007 589.883H236.071L226.218 603.526V599.53L236.657 614H230.214L223.117 603.767H225.666L218.672 614H212.264ZM238.942 614V589.883H249.382C251.541 589.883 253.401 590.239 254.963 590.951C256.525 591.64 257.731 592.639 258.581 593.948C259.43 595.257 259.855 596.819 259.855 598.634C259.855 600.425 259.43 601.976 258.581 603.285C257.731 604.594 256.525 605.605 254.963 606.317C253.401 607.006 251.541 607.351 249.382 607.351H242.043L244.524 604.835V614H238.942ZM244.524 605.456L242.043 602.803H249.072C250.794 602.803 252.08 602.435 252.93 601.7C253.78 600.965 254.205 599.943 254.205 598.634C254.205 597.302 253.78 596.268 252.93 595.533C252.08 594.798 250.794 594.431 249.072 594.431H242.043L244.524 591.778V605.456ZM259.459 614L270.209 589.883H275.721L286.505 614H280.648L271.828 592.708H274.033L265.178 614H259.459ZM264.834 608.832L266.315 604.594H278.718L280.234 608.832H264.834ZM289.007 614V589.883H293.624L307.853 607.247H305.613V589.883H311.126V614H306.544L292.28 596.636H294.52V614H289.007ZM324.756 614.413C322.827 614.413 320.978 614.161 319.209 613.655C317.441 613.127 316.017 612.45 314.937 611.623L316.832 607.419C317.866 608.154 319.083 608.763 320.484 609.245C321.908 609.705 323.344 609.935 324.791 609.935C325.893 609.935 326.777 609.831 327.444 609.624C328.133 609.395 328.638 609.085 328.959 608.694C329.281 608.304 329.442 607.856 329.442 607.351C329.442 606.707 329.189 606.202 328.684 605.835C328.179 605.444 327.512 605.134 326.686 604.904C325.859 604.652 324.94 604.422 323.929 604.215C322.942 603.986 321.942 603.71 320.932 603.388C319.944 603.067 319.037 602.653 318.21 602.148C317.383 601.643 316.706 600.977 316.177 600.15C315.672 599.323 315.419 598.266 315.419 596.98C315.419 595.602 315.787 594.35 316.522 593.225C317.28 592.076 318.405 591.169 319.898 590.503C321.414 589.814 323.309 589.469 325.583 589.469C327.099 589.469 328.592 589.653 330.062 590.021C331.532 590.365 332.83 590.893 333.955 591.605L332.233 595.843C331.107 595.2 329.982 594.729 328.856 594.431C327.731 594.109 326.628 593.948 325.549 593.948C324.469 593.948 323.585 594.075 322.896 594.327C322.207 594.58 321.713 594.913 321.414 595.326C321.116 595.717 320.966 596.176 320.966 596.705C320.966 597.325 321.219 597.83 321.724 598.22C322.23 598.588 322.896 598.887 323.723 599.116C324.549 599.346 325.457 599.576 326.444 599.805C327.455 600.035 328.454 600.299 329.442 600.598C330.452 600.896 331.371 601.298 332.198 601.804C333.025 602.309 333.691 602.975 334.196 603.802C334.725 604.629 334.989 605.674 334.989 606.937C334.989 608.292 334.61 609.533 333.852 610.658C333.094 611.784 331.957 612.691 330.441 613.38C328.948 614.069 327.053 614.413 324.756 614.413ZM338.803 614V589.883H344.384V614H338.803ZM361.822 614.413C359.915 614.413 358.147 614.103 356.516 613.483C354.908 612.863 353.507 611.99 352.312 610.865C351.141 609.739 350.222 608.419 349.556 606.903C348.913 605.387 348.592 603.733 348.592 601.941C348.592 600.15 348.913 598.496 349.556 596.98C350.222 595.464 351.153 594.144 352.347 593.018C353.541 591.893 354.942 591.02 356.55 590.4C358.158 589.779 359.904 589.469 361.787 589.469C363.693 589.469 365.439 589.779 367.024 590.4C368.632 591.02 370.021 591.893 371.193 593.018C372.387 594.144 373.317 595.464 373.983 596.98C374.65 598.473 374.983 600.127 374.983 601.941C374.983 603.733 374.65 605.398 373.983 606.937C373.317 608.453 372.387 609.774 371.193 610.899C370.021 612.002 368.632 612.863 367.024 613.483C365.439 614.103 363.705 614.413 361.822 614.413ZM361.787 609.659C362.867 609.659 363.854 609.475 364.75 609.108C365.669 608.74 366.473 608.212 367.162 607.523C367.851 606.834 368.379 606.018 368.747 605.077C369.137 604.135 369.332 603.09 369.332 601.941C369.332 600.793 369.137 599.748 368.747 598.806C368.379 597.864 367.851 597.049 367.162 596.36C366.496 595.671 365.703 595.143 364.785 594.775C363.866 594.408 362.867 594.224 361.787 594.224C360.708 594.224 359.708 594.408 358.79 594.775C357.894 595.143 357.101 595.671 356.412 596.36C355.723 597.049 355.184 597.864 354.793 598.806C354.426 599.748 354.242 600.793 354.242 601.941C354.242 603.067 354.426 604.112 354.793 605.077C355.184 606.018 355.712 606.834 356.378 607.523C357.067 608.212 357.871 608.74 358.79 609.108C359.708 609.475 360.708 609.659 361.787 609.659ZM379.177 614V589.883H383.794L398.023 607.247H395.784V589.883H401.296V614H396.714L382.45 596.636H384.69V614H379.177Z" fill="white"/>
</g>
<path d="M59.1905 87.39C57.33 87.39 55.5959 87.0914 53.988 86.4942C52.4032 85.8741 51.0251 85.0012 49.8537 83.8758C48.6823 82.7503 47.7635 81.4296 47.0974 79.9137C46.4543 78.3977 46.1327 76.7325 46.1327 74.918C46.1327 73.1034 46.4543 71.4382 47.0974 69.9223C47.7635 68.4063 48.6823 67.0856 49.8537 65.9602C51.048 64.8347 52.4377 63.9734 54.0225 63.3762C55.6073 62.756 57.3415 62.4459 59.2249 62.4459C61.3151 62.4459 63.1985 62.8134 64.8752 63.5484C66.5749 64.2605 67.999 65.317 69.1474 66.7181L65.5643 70.0256C64.7374 69.0839 63.8187 68.3834 62.808 67.924C61.7974 67.4416 60.6949 67.2005 59.5005 67.2005C58.3751 67.2005 57.3415 67.3842 56.3998 67.7517C55.458 68.1192 54.6427 68.6475 53.9536 69.3366C53.2645 70.0256 52.7248 70.841 52.3343 71.7827C51.9668 72.7245 51.783 73.7695 51.783 74.918C51.783 76.0664 51.9668 77.1115 52.3343 78.0532C52.7248 78.9949 53.2645 79.8103 53.9536 80.4994C54.6427 81.1884 55.458 81.7167 56.3998 82.0842C57.3415 82.4517 58.3751 82.6355 59.5005 82.6355C60.6949 82.6355 61.7974 82.4058 62.808 81.9464C63.8187 81.4641 64.7374 80.7405 65.5643 79.7759L69.1474 83.0834C67.999 84.4845 66.5749 85.5525 64.8752 86.2875C63.1985 87.0225 61.3036 87.39 59.1905 87.39ZM83.2175 87.39C81.3111 87.39 79.5425 87.0799 77.9117 86.4598C76.3039 85.8396 74.9028 84.9668 73.7084 83.8413C72.537 82.7159 71.6183 81.3952 70.9522 79.8792C70.309 78.3633 69.9875 76.7095 69.9875 74.918C69.9875 73.1264 70.309 71.4727 70.9522 69.9567C71.6183 68.4408 72.5485 67.1201 73.7429 65.9946C74.9373 64.8691 76.3383 63.9963 77.9462 63.3762C79.554 62.756 81.2996 62.4459 83.183 62.4459C85.0894 62.4459 86.8351 62.756 88.4199 63.3762C90.0277 63.9963 91.4173 64.8691 92.5887 65.9946C93.7831 67.1201 94.7133 68.4408 95.3794 69.9567C96.0455 71.4497 96.3786 73.1034 96.3786 74.918C96.3786 76.7095 96.0455 78.3748 95.3794 79.9137C94.7133 81.4296 93.7831 82.7503 92.5887 83.8758C91.4173 84.9783 90.0277 85.8396 88.4199 86.4598C86.8351 87.0799 85.1009 87.39 83.2175 87.39ZM83.183 82.6355C84.2626 82.6355 85.2502 82.4517 86.146 82.0842C87.0648 81.7167 87.8687 81.1884 88.5577 80.4994C89.2468 79.8103 89.7751 78.9949 90.1426 78.0532C90.533 77.1115 90.7283 76.0664 90.7283 74.918C90.7283 73.7695 90.533 72.7245 90.1426 71.7827C89.7751 70.841 89.2468 70.0256 88.5577 69.3366C87.8916 68.6475 87.0992 68.1192 86.1805 67.7517C85.2617 67.3842 84.2626 67.2005 83.183 67.2005C82.1035 67.2005 81.1044 67.3842 80.1856 67.7517C79.2898 68.1192 78.4974 68.6475 77.8083 69.3366C77.1193 70.0256 76.5795 70.841 76.189 71.7827C75.8215 72.7245 75.6378 73.7695 75.6378 74.918C75.6378 76.0434 75.8215 77.0885 76.189 78.0532C76.5795 78.9949 77.1078 79.8103 77.7739 80.4994C78.463 81.1884 79.2669 81.7167 80.1856 82.0842C81.1044 82.4517 82.1035 82.6355 83.183 82.6355ZM100.573 86.9766V62.8594H105.19L115.457 79.8792H113.011L123.106 62.8594H127.688L127.757 86.9766H122.52L122.485 70.887H123.45L115.388 84.427H112.873L104.639 70.887H105.81V86.9766H100.573ZM133.479 86.9766V62.8594H138.095L148.362 79.8792H145.916L156.011 62.8594H160.593L160.662 86.9766H155.425L155.391 70.887H156.356L148.294 84.427H145.778L137.544 70.887H138.716V86.9766H133.479ZM166.384 86.9766V62.8594H171.966V86.9766H166.384ZM185.613 87.39C183.684 87.39 181.835 87.1373 180.066 86.632C178.298 86.1037 176.874 85.4262 175.794 84.5993L177.689 80.396C178.723 81.131 179.94 81.7397 181.341 82.222C182.765 82.6814 184.201 82.9111 185.648 82.9111C186.75 82.9111 187.635 82.8077 188.301 82.601C188.99 82.3713 189.495 82.0612 189.817 81.6708C190.138 81.2803 190.299 80.8324 190.299 80.3271C190.299 79.684 190.046 79.1787 189.541 78.8112C189.036 78.4207 188.37 78.1106 187.543 77.8809C186.716 77.6283 185.797 77.3986 184.786 77.1919C183.799 76.9622 182.8 76.6866 181.789 76.365C180.801 76.0434 179.894 75.63 179.067 75.1247C178.24 74.6194 177.563 73.9533 177.034 73.1264C176.529 72.2995 176.276 71.243 176.276 69.9567C176.276 68.5786 176.644 67.3268 177.379 66.2013C178.137 65.0529 179.262 64.1456 180.755 63.4795C182.271 62.7905 184.166 62.4459 186.44 62.4459C187.956 62.4459 189.449 62.6297 190.919 62.9972C192.389 63.3417 193.687 63.87 194.812 64.582L193.09 68.8198C191.964 68.1766 190.839 67.7058 189.713 67.4072C188.588 67.0856 187.485 66.9248 186.406 66.9248C185.326 66.9248 184.442 67.0512 183.753 67.3038C183.064 67.5565 182.57 67.8895 182.271 68.303C181.973 68.6934 181.823 69.1528 181.823 69.6811C181.823 70.3012 182.076 70.8066 182.581 71.197C183.087 71.5645 183.753 71.8631 184.58 72.0928C185.407 72.3225 186.314 72.5522 187.301 72.7819C188.312 73.0116 189.311 73.2757 190.299 73.5743C191.31 73.8729 192.228 74.2748 193.055 74.7802C193.882 75.2855 194.548 75.9516 195.053 76.7784C195.582 77.6053 195.846 78.6504 195.846 79.9137C195.846 81.2688 195.467 82.5091 194.709 83.6346C193.951 84.7601 192.814 85.6673 191.298 86.3564C189.805 87.0455 187.91 87.39 185.613 87.39ZM207.584 87.39C205.654 87.39 203.805 87.1373 202.037 86.632C200.268 86.1037 198.844 85.4262 197.765 84.5993L199.66 80.396C200.693 81.131 201.911 81.7397 203.312 82.222C204.736 82.6814 206.171 82.9111 207.618 82.9111C208.721 82.9111 209.605 82.8077 210.271 82.601C210.96 82.3713 211.466 82.0612 211.787 81.6708C212.109 81.2803 212.269 80.8324 212.269 80.3271C212.269 79.684 212.017 79.1787 211.512 78.8112C211.006 78.4207 210.34 78.1106 209.513 77.8809C208.686 77.6283 207.768 77.3986 206.757 77.1919C205.769 76.9622 204.77 76.6866 203.76 76.365C202.772 76.0434 201.865 75.63 201.038 75.1247C200.211 74.6194 199.533 73.9533 199.005 73.1264C198.5 72.2995 198.247 71.243 198.247 69.9567C198.247 68.5786 198.615 67.3268 199.35 66.2013C200.108 65.0529 201.233 64.1456 202.726 63.4795C204.242 62.7905 206.137 62.4459 208.411 62.4459C209.927 62.4459 211.42 62.6297 212.89 62.9972C214.36 63.3417 215.657 63.87 216.783 64.582L215.06 68.8198C213.935 68.1766 212.809 67.7058 211.684 67.4072C210.558 67.0856 209.456 66.9248 208.376 66.9248C207.297 66.9248 206.412 67.0512 205.723 67.3038C205.034 67.5565 204.54 67.8895 204.242 68.303C203.943 68.6934 203.794 69.1528 203.794 69.6811C203.794 70.3012 204.047 70.8066 204.552 71.197C205.057 71.5645 205.723 71.8631 206.55 72.0928C207.377 72.3225 208.284 72.5522 209.272 72.7819C210.283 73.0116 211.282 73.2757 212.269 73.5743C213.28 73.8729 214.199 74.2748 215.026 74.7802C215.853 75.2855 216.519 75.9516 217.024 76.7784C217.552 77.6053 217.816 78.6504 217.816 79.9137C217.816 81.2688 217.437 82.5091 216.679 83.6346C215.922 84.7601 214.785 85.6673 213.269 86.3564C211.776 87.0455 209.881 87.39 207.584 87.39ZM221.63 86.9766V62.8594H227.212V86.9766H221.63ZM244.649 87.39C242.743 87.39 240.974 87.0799 239.343 86.4598C237.736 85.8396 236.335 84.9668 235.14 83.8413C233.969 82.7159 233.05 81.3952 232.384 79.8792C231.741 78.3633 231.419 76.7095 231.419 74.918C231.419 73.1264 231.741 71.4727 232.384 69.9567C233.05 68.4408 233.98 67.1201 235.175 65.9946C236.369 64.8691 237.77 63.9963 239.378 63.3762C240.986 62.756 242.731 62.4459 244.615 62.4459C246.521 62.4459 248.267 62.756 249.852 63.3762C251.459 63.9963 252.849 64.8691 254.02 65.9946C255.215 67.1201 256.145 68.4408 256.811 69.9567C257.477 71.4497 257.81 73.1034 257.81 74.918C257.81 76.7095 257.477 78.3748 256.811 79.9137C256.145 81.4296 255.215 82.7503 254.02 83.8758C252.849 84.9783 251.459 85.8396 249.852 86.4598C248.267 87.0799 246.533 87.39 244.649 87.39ZM244.615 82.6355C245.694 82.6355 246.682 82.4517 247.578 82.0842C248.496 81.7167 249.3 81.1884 249.989 80.4994C250.679 79.8103 251.207 78.9949 251.574 78.0532C251.965 77.1115 252.16 76.0664 252.16 74.918C252.16 73.7695 251.965 72.7245 251.574 71.7827C251.207 70.841 250.679 70.0256 249.989 69.3366C249.323 68.6475 248.531 68.1192 247.612 67.7517C246.693 67.3842 245.694 67.2005 244.615 67.2005C243.535 67.2005 242.536 67.3842 241.617 67.7517C240.722 68.1192 239.929 68.6475 239.24 69.3366C238.551 70.0256 238.011 70.841 237.621 71.7827C237.253 72.7245 237.07 73.7695 237.07 74.918C237.07 76.0434 237.253 77.0885 237.621 78.0532C238.011 78.9949 238.54 79.8103 239.206 80.4994C239.895 81.1884 240.699 81.7167 241.617 82.0842C242.536 82.4517 243.535 82.6355 244.615 82.6355ZM262.005 86.9766V62.8594H266.622L280.851 80.2237H278.611V62.8594H284.124V86.9766H279.542L265.278 69.6122H267.517V86.9766H262.005ZM297.864 86.9766V83.359L307.167 74.5734C307.902 73.9073 308.442 73.3102 308.786 72.7819C309.131 72.2536 309.36 71.7712 309.475 71.3348C309.613 70.8984 309.682 70.4965 309.682 70.129C309.682 69.1643 309.349 68.4293 308.683 67.924C308.04 67.3957 307.086 67.1316 305.823 67.1316C304.813 67.1316 303.871 67.3268 302.998 67.7173C302.148 68.1077 301.425 68.7164 300.827 69.5433L296.762 66.9248C297.681 65.5467 298.967 64.4557 300.621 63.6518C302.274 62.8479 304.181 62.4459 306.34 62.4459C308.132 62.4459 309.693 62.7445 311.026 63.3417C312.381 63.9159 313.426 64.7313 314.161 65.7879C314.919 66.8445 315.298 68.1077 315.298 69.5777C315.298 70.3587 315.194 71.1396 314.988 71.9205C314.804 72.6785 314.413 73.4824 313.816 74.3323C313.242 75.1821 312.392 76.1353 311.267 77.1919L303.549 84.4615L302.481 82.4288H316.09V86.9766H297.864Z" fill="white"/>
<g filter="url(#filter1_i_254_174)">
<path fill-rule="evenodd" clip-rule="evenodd" d="M115 325C115 226.289 195.289 146 294 146C392.712 146 473 226.289 473 325C473 401.483 424.8 466.906 357.177 492.492C365.234 484.751 370.699 465.96 372.424 457.532C394.171 444.66 412.425 426.644 425.58 405.067C422.658 401.873 419.695 398.718 416.691 395.605C416.755 394.998 416.82 394.397 416.884 393.801C418.095 382.507 419.084 373.278 415.654 369.319C422.067 375.458 428.317 381.769 434.397 388.244C443.35 368.363 447.967 346.804 447.94 325C447.94 322.766 447.865 320.546 447.772 318.338C427.81 321.64 408.075 326.194 388.684 331.97C388.675 335.863 387.82 339.707 386.178 343.237C388.585 345.203 390.974 347.192 393.343 349.203L373.892 348.871C380.375 344.905 393.343 331.976 393.343 311.988C410.504 307.257 428.05 303.409 445.989 300.491C443.108 282.406 437 264.986 427.957 249.061C420.392 248.667 412.867 248.427 405.378 248.381C390.406 248.284 375.596 248.896 360.921 250.171C359.617 255.832 356.511 260.917 352.071 264.663C352.332 265.362 352.59 266.063 352.846 266.764C342.056 264.31 331.094 267.786 326.962 269.831C324.932 269.214 322.974 268.355 321.13 267.268C317 264.831 313.598 261.333 311.277 257.138C295.347 260.244 279.587 264.151 264.05 268.844C264.038 269.15 264.021 269.455 264 269.761C278.591 275.943 292.879 282.797 306.819 290.3C304.987 292.937 301.691 300.295 303.156 308.63C296.227 304.802 289.205 301.141 282.097 297.652C277.703 275.407 256.461 267.245 246.389 265.944C217.456 262.89 204.119 282.352 201.067 292.464C180.458 301.751 160.135 312.45 140.074 324.502C140.074 324.587 140.071 324.669 140.067 324.751C140.064 324.834 140.06 324.916 140.06 325C140.06 365.69 155.783 402.604 181.474 430.094C183.113 428.627 184.761 427.169 186.417 425.721C190.079 430.752 192.826 433.499 201.067 436.703C198.396 438.997 197.111 440.14 194.465 442.492C203.794 450.414 214.006 457.164 224.872 462.622C225.788 471.215 231.373 490.236 246.389 497.574C170.718 476.678 115 407.231 115 325ZM302.972 171.339C348.86 173.963 389.268 196.589 415.692 230.653C408.718 230.471 401.775 230.432 394.863 230.535C382.863 230.733 370.874 231.368 358.92 232.439C356.722 227.902 353.29 224.075 349.019 221.397C344.747 218.719 339.808 217.297 334.766 217.296C333.517 217.296 332.269 217.383 331.032 217.557C322.626 201.595 313.255 186.161 302.972 171.339ZM281.212 171.626C294.233 189.415 305.521 207.472 315.18 225.78C311.587 229.613 309.197 234.415 308.306 239.592C291.606 242.848 275.081 246.946 258.794 251.871C256.768 249.131 254.238 246.802 251.341 245.008C258.096 220.897 267.548 196.467 279.63 171.744C279.893 171.721 280.157 171.703 280.421 171.685C280.685 171.667 280.949 171.649 281.212 171.626ZM258.157 175.284C248.062 197.355 240.007 219.343 234.014 241.192C230.388 241.627 226.89 242.797 223.732 244.63C220.574 246.463 217.824 248.921 215.648 251.853C199.495 246.704 183.134 242.227 166.609 238.436C188.177 206.7 220.831 184.175 258.157 175.284ZM157.001 254.689C175.266 258.709 193.087 263.41 210.389 268.934L210.393 269.041C187.094 278.61 164.186 289.895 141.66 302.825C144.068 286.04 149.253 269.772 157.001 254.689Z" fill="#8646C4"/>
</g>
<g filter="url(#filter2_i_254_174)">
<path d="M293.999 412.669C303.599 412.669 312.805 408.87 319.593 402.109C326.381 395.348 330.194 386.179 330.194 376.617C330.194 367.055 326.381 357.886 319.593 351.125C312.805 344.364 303.599 340.565 293.999 340.565C284.4 340.565 275.194 344.364 268.406 351.125C261.618 357.886 257.805 367.055 257.805 376.617C257.805 386.179 261.618 395.348 268.406 402.109C275.194 408.87 284.4 412.669 293.999 412.669Z" fill="#F6FFFF"/>
<path d="M231.262 446.144C231.262 435.617 239.823 427.089 250.392 427.089H337.607C348.176 427.089 356.737 435.617 356.737 446.144V449.942C356.737 452.249 356.737 465.631 348.726 478.591C340.329 492.204 323.978 504 293.999 504C264.02 504 247.67 492.194 239.273 478.6C231.262 465.631 231.262 452.258 231.262 449.942V446.144Z" fill="#F6FFFF"/>
<path d="M240.914 345.372C250.513 345.372 259.719 341.574 266.507 334.813C273.295 328.052 277.109 318.882 277.109 309.32C277.109 299.759 273.295 290.589 266.507 283.828C259.719 277.067 250.513 273.269 240.914 273.269C231.314 273.269 222.108 277.067 215.32 283.828C208.532 290.589 204.719 299.759 204.719 309.32C204.719 318.882 208.532 328.052 215.32 334.813C222.108 341.574 231.314 345.372 240.914 345.372Z" fill="#A68CD3"/>
<path d="M178.176 378.847C178.176 368.32 186.737 359.793 197.306 359.793H251.357C247.127 370.423 247.055 382.247 251.154 392.927C255.254 403.608 263.228 412.368 273.499 417.476H250.401C244.697 417.472 239.12 419.159 234.38 422.321C229.639 425.482 225.95 429.977 223.781 435.232C204.429 431.666 192.827 422.042 186.197 411.294C178.176 398.344 178.176 384.962 178.176 382.654V378.847Z" fill="#A68CD3"/>
<path d="M383.28 309.32C383.28 318.882 379.467 328.052 372.679 334.813C365.891 341.574 356.685 345.372 347.085 345.372C337.486 345.372 328.279 341.574 321.492 334.813C314.704 328.052 310.89 318.882 310.89 309.32C310.89 299.759 314.704 290.589 321.492 283.828C328.279 277.067 337.486 273.269 347.085 273.269C356.685 273.269 365.891 277.067 372.679 283.828C379.467 290.589 383.28 299.759 383.28 309.32Z" fill="#BA75DF"/>
<path d="M314.5 417.476H337.607C349.624 417.476 359.922 424.811 364.227 435.232C383.579 431.666 395.181 422.042 401.812 411.294C409.823 398.335 409.823 384.952 409.823 382.645V378.847C409.826 376.344 409.333 373.865 408.372 371.553C407.412 369.24 406.003 367.138 404.226 365.368C402.449 363.598 400.339 362.195 398.017 361.238C395.695 360.281 393.206 359.79 390.693 359.793H336.642C340.872 370.423 340.944 382.247 336.844 392.927C332.745 403.608 324.771 412.368 314.5 417.476Z" fill="#BA75DF"/>
</g>
<defs>
<filter id="filter0_d_254_174" x="192.107" y="547.469" width="209.188" height="70.3896" filterUnits="userSpaceOnUse" color-interpolation-filters="sRGB">
<feFlood flood-opacity="0" result="BackgroundImageFix"/>
<feColorMatrix in="SourceAlpha" type="matrix" values="0 0 0 0 0 0 0 0 0 0 0 0 0 0 0 0 0 0 127 0" result="hardAlpha"/>
<feOffset dy="3.44531"/>
<feComposite in2="hardAlpha" operator="out"/>
<feColorMatrix type="matrix" values="0 0 0 0 0.666536 0 0 0 0 0.211765 0 0 0 0 0.768627 0 0 0 1 0"/>
<feBlend mode="normal" in2="BackgroundImageFix" result="effect1_dropShadow_254_174"/>
<feBlend mode="normal" in="SourceGraphic" in2="effect1_dropShadow_254_174" result="shape"/>
</filter>
<filter id="filter1_i_254_174" x="115" y="146" width="358" height="354.175" filterUnits="userSpaceOnUse" color-interpolation-filters="sRGB">
<feFlood flood-opacity="0" result="BackgroundImageFix"/>
<feBlend mode="normal" in="SourceGraphic" in2="BackgroundImageFix" result="shape"/>
<feColorMatrix in="SourceAlpha" type="matrix" values="0 0 0 0 0 0 0 0 0 0 0 0 0 0 0 0 0 0 127 0" result="hardAlpha"/>
<feOffset dy="2.60049"/>
<feGaussianBlur stdDeviation="4.33414"/>
<feComposite in2="hardAlpha" operator="arithmetic" k2="-1" k3="1"/>
<feColorMatrix type="matrix" values="0 0 0 0 0 0 0 0 0 0 0 0 0 0 0 0 0 0 0.25 0"/>
<feBlend mode="normal" in2="shape" result="effect1_innerShadow_254_174"/>
</filter>
<filter id="filter2_i_254_174" x="178.176" y="273.269" width="234.248" height="233.332" filterUnits="userSpaceOnUse" color-interpolation-filters="sRGB">
<feFlood flood-opacity="0" result="BackgroundImageFix"/>
<feBlend mode="normal" in="SourceGraphic" in2="BackgroundImageFix" result="shape"/>
<feColorMatrix in="SourceAlpha" type="matrix" values="0 0 0 0 0 0 0 0 0 0 0 0 0 0 0 0 0 0 127 0" result="hardAlpha"/>
<feOffset dx="2.60049" dy="2.60049"/>
<feGaussianBlur stdDeviation="4.33414"/>
<feComposite in2="hardAlpha" operator="arithmetic" k2="-1" k3="1"/>
<feColorMatrix type="matrix" values="0 0 0 0 0 0 0 0 0 0 0 0 0 0 0 0 0 0 0.3 0"/>
<feBlend mode="normal" in2="shape" result="effect1_innerShadow_254_174"/>
</filter>
</defs>
</svg>
