<svg width="588" height="651" viewBox="0 0 588 651" fill="none" xmlns="http://www.w3.org/2000/svg">
<g filter="url(#filter0_d_256_416)">
<path d="M199.043 572V547.883H209.345C212.698 547.883 215.305 548.664 217.166 550.226C219.026 551.765 219.956 553.901 219.956 556.634C219.956 558.425 219.531 559.976 218.682 561.285C217.832 562.571 216.626 563.559 215.064 564.248C213.502 564.937 211.642 565.282 209.483 565.282H202.144L204.625 562.835V572H199.043ZM214.375 572L208.346 563.249H214.306L220.404 572H214.375ZM204.625 563.456L202.144 560.837H209.173C210.895 560.837 212.181 560.47 213.031 559.735C213.881 558.977 214.306 557.943 214.306 556.634C214.306 555.302 213.881 554.268 213.031 553.533C212.181 552.798 210.895 552.431 209.173 552.431H202.144L204.625 549.778V563.456ZM224.378 572V547.883H242.604V552.362H229.925V567.521H243.052V572H224.378ZM229.512 561.94V557.599H241.123V561.94H229.512ZM255.417 572.413C253.488 572.413 251.639 572.161 249.87 571.655C248.102 571.127 246.678 570.45 245.598 569.623L247.493 565.419C248.527 566.154 249.744 566.763 251.145 567.245C252.569 567.705 254.005 567.935 255.452 567.935C256.554 567.935 257.438 567.831 258.105 567.624C258.794 567.395 259.299 567.085 259.62 566.694C259.942 566.304 260.103 565.856 260.103 565.351C260.103 564.707 259.85 564.202 259.345 563.835C258.84 563.444 258.173 563.134 257.347 562.904C256.52 562.652 255.601 562.422 254.59 562.215C253.603 561.986 252.604 561.71 251.593 561.388C250.605 561.067 249.698 560.653 248.871 560.148C248.044 559.643 247.367 558.977 246.838 558.15C246.333 557.323 246.08 556.266 246.08 554.98C246.08 553.602 246.448 552.35 247.183 551.225C247.941 550.076 249.066 549.169 250.559 548.503C252.075 547.814 253.97 547.469 256.244 547.469C257.76 547.469 259.253 547.653 260.723 548.021C262.193 548.365 263.491 548.893 264.616 549.605L262.894 553.843C261.768 553.2 260.643 552.729 259.517 552.431C258.392 552.109 257.289 551.948 256.21 551.948C255.13 551.948 254.246 552.075 253.557 552.327C252.868 552.58 252.374 552.913 252.075 553.326C251.777 553.717 251.627 554.176 251.627 554.705C251.627 555.325 251.88 555.83 252.385 556.22C252.891 556.588 253.557 556.887 254.384 557.116C255.21 557.346 256.118 557.576 257.105 557.805C258.116 558.035 259.115 558.299 260.103 558.598C261.113 558.896 262.032 559.298 262.859 559.804C263.686 560.309 264.352 560.975 264.857 561.802C265.386 562.629 265.65 563.674 265.65 564.937C265.65 566.292 265.271 567.533 264.513 568.658C263.755 569.784 262.618 570.691 261.102 571.38C259.609 572.069 257.714 572.413 255.417 572.413ZM281.178 572.413C279.271 572.413 277.503 572.103 275.872 571.483C274.264 570.863 272.863 569.99 271.669 568.865C270.497 567.739 269.578 566.419 268.912 564.903C268.269 563.387 267.948 561.733 267.948 559.941C267.948 558.15 268.269 556.496 268.912 554.98C269.578 553.464 270.509 552.144 271.703 551.018C272.897 549.893 274.299 549.02 275.906 548.4C277.514 547.779 279.26 547.469 281.143 547.469C283.05 547.469 284.795 547.779 286.38 548.4C287.988 549.02 289.377 549.893 290.549 551.018C291.743 552.144 292.674 553.464 293.34 554.98C294.006 556.473 294.339 558.127 294.339 559.941C294.339 561.733 294.006 563.398 293.34 564.937C292.674 566.453 291.743 567.774 290.549 568.899C289.377 570.002 287.988 570.863 286.38 571.483C284.795 572.103 283.061 572.413 281.178 572.413ZM281.143 567.659C282.223 567.659 283.21 567.475 284.106 567.108C285.025 566.74 285.829 566.212 286.518 565.523C287.207 564.834 287.735 564.018 288.103 563.077C288.493 562.135 288.688 561.09 288.688 559.941C288.688 558.793 288.493 557.748 288.103 556.806C287.735 555.864 287.207 555.049 286.518 554.36C285.852 553.671 285.059 553.143 284.141 552.775C283.222 552.408 282.223 552.224 281.143 552.224C280.064 552.224 279.065 552.408 278.146 552.775C277.25 553.143 276.458 553.671 275.769 554.36C275.079 555.049 274.54 555.864 274.149 556.806C273.782 557.748 273.598 558.793 273.598 559.941C273.598 561.067 273.782 562.112 274.149 563.077C274.54 564.018 275.068 564.834 275.734 565.523C276.423 566.212 277.227 566.74 278.146 567.108C279.065 567.475 280.064 567.659 281.143 567.659ZM309.248 572.413C305.826 572.413 303.15 571.46 301.221 569.554C299.291 567.647 298.327 564.926 298.327 561.388V547.883H303.908V561.182C303.908 563.479 304.379 565.132 305.321 566.143C306.262 567.154 307.583 567.659 309.283 567.659C310.982 567.659 312.303 567.154 313.245 566.143C314.187 565.132 314.657 563.479 314.657 561.182V547.883H320.17V561.388C320.17 564.926 319.205 567.647 317.276 569.554C315.347 571.46 312.671 572.413 309.248 572.413ZM325.685 572V547.883H335.987C339.34 547.883 341.947 548.664 343.808 550.226C345.668 551.765 346.598 553.901 346.598 556.634C346.598 558.425 346.174 559.976 345.324 561.285C344.474 562.571 343.268 563.559 341.706 564.248C340.144 564.937 338.284 565.282 336.125 565.282H328.786L331.267 562.835V572H325.685ZM341.017 572L334.988 563.249H340.948L347.046 572H341.017ZM331.267 563.456L328.786 560.837H335.815C337.537 560.837 338.824 560.47 339.673 559.735C340.523 558.977 340.948 557.943 340.948 556.634C340.948 555.302 340.523 554.268 339.673 553.533C338.824 552.798 337.537 552.431 335.815 552.431H328.786L331.267 549.778V563.456ZM362.562 572.413C360.702 572.413 358.968 572.115 357.36 571.518C355.775 570.897 354.397 570.025 353.226 568.899C352.054 567.774 351.135 566.453 350.469 564.937C349.826 563.421 349.505 561.756 349.505 559.941C349.505 558.127 349.826 556.462 350.469 554.946C351.135 553.43 352.054 552.109 353.226 550.984C354.42 549.858 355.81 548.997 357.394 548.4C358.979 547.779 360.713 547.469 362.597 547.469C364.687 547.469 366.57 547.837 368.247 548.572C369.947 549.284 371.371 550.34 372.519 551.742L368.936 555.049C368.109 554.107 367.191 553.407 366.18 552.947C365.169 552.465 364.067 552.224 362.872 552.224C361.747 552.224 360.713 552.408 359.772 552.775C358.83 553.143 358.015 553.671 357.326 554.36C356.636 555.049 356.097 555.864 355.706 556.806C355.339 557.748 355.155 558.793 355.155 559.941C355.155 561.09 355.339 562.135 355.706 563.077C356.097 564.018 356.636 564.834 357.326 565.523C358.015 566.212 358.83 566.74 359.772 567.108C360.713 567.475 361.747 567.659 362.872 567.659C364.067 567.659 365.169 567.429 366.18 566.97C367.191 566.487 368.109 565.764 368.936 564.799L372.519 568.107C371.371 569.508 369.947 570.576 368.247 571.311C366.57 572.046 364.676 572.413 362.562 572.413ZM375.952 572V547.883H394.178V552.362H381.499V567.521H394.626V572H375.952ZM381.086 561.94V557.599H392.696V561.94H381.086ZM160.651 614.413L146.628 601.39C145.824 600.655 145.181 599.966 144.699 599.323C144.217 598.68 143.861 598.048 143.631 597.428C143.424 596.808 143.321 596.165 143.321 595.499C143.321 594.327 143.631 593.294 144.251 592.398C144.871 591.502 145.744 590.813 146.869 590.331C147.995 589.825 149.316 589.573 150.832 589.573C152.233 589.573 153.438 589.802 154.449 590.262C155.483 590.698 156.287 591.33 156.861 592.157C157.458 592.984 157.757 593.971 157.757 595.12C157.757 596.13 157.504 597.061 156.999 597.91C156.493 598.737 155.701 599.518 154.621 600.253C153.565 600.988 152.175 601.735 150.453 602.493C149.281 603.021 148.351 603.538 147.662 604.043C146.996 604.525 146.513 605.019 146.215 605.525C145.916 606.03 145.767 606.593 145.767 607.213C145.767 607.787 145.939 608.304 146.284 608.763C146.651 609.222 147.157 609.579 147.8 609.831C148.443 610.084 149.201 610.21 150.074 610.21C151.475 610.21 152.761 609.889 153.932 609.245C155.104 608.579 156.091 607.603 156.895 606.317C157.722 605.008 158.308 603.423 158.652 601.562L162.959 602.906C162.477 605.249 161.615 607.282 160.375 609.004C159.135 610.727 157.607 612.059 155.793 613.001C153.978 613.943 151.946 614.413 149.695 614.413C147.926 614.413 146.353 614.126 144.974 613.552C143.596 612.978 142.505 612.197 141.701 611.209C140.898 610.222 140.496 609.085 140.496 607.798C140.496 606.604 140.76 605.536 141.288 604.594C141.816 603.63 142.655 602.734 143.803 601.907C144.952 601.057 146.41 600.23 148.179 599.426C149.465 598.829 150.476 598.301 151.211 597.841C151.946 597.382 152.462 596.946 152.761 596.532C153.059 596.096 153.209 595.659 153.209 595.223C153.209 594.626 153.002 594.144 152.589 593.776C152.198 593.409 151.612 593.225 150.832 593.225C150.005 593.225 149.362 593.431 148.902 593.845C148.443 594.258 148.213 594.787 148.213 595.43C148.213 595.774 148.282 596.119 148.42 596.463C148.558 596.785 148.822 597.164 149.212 597.6C149.603 598.014 150.154 598.554 150.866 599.22L163.579 611.003L160.651 614.413ZM176.938 614V589.883H187.894C190.513 589.883 192.821 590.388 194.819 591.399C196.818 592.386 198.379 593.776 199.505 595.568C200.63 597.359 201.193 599.484 201.193 601.941C201.193 604.376 200.63 606.501 199.505 608.315C198.379 610.107 196.818 611.508 194.819 612.519C192.821 613.506 190.513 614 187.894 614H176.938ZM182.52 609.418H187.619C189.226 609.418 190.616 609.119 191.787 608.522C192.982 607.902 193.901 607.029 194.544 605.904C195.21 604.778 195.543 603.457 195.543 601.941C195.543 600.402 195.21 599.082 194.544 597.979C193.901 596.854 192.982 595.992 191.787 595.395C190.616 594.775 189.226 594.465 187.619 594.465H182.52V609.418ZM205.402 614V589.883H223.628V594.362H210.949V609.521H224.076V614H205.402ZM210.536 603.94V599.599H222.147V603.94H210.536ZM235.416 614L225.011 589.883H231.04L240.136 611.244H236.587L245.82 589.883H251.367L240.928 614H235.416ZM253.381 614V589.883H271.607V594.362H258.928V609.521H272.055V614H253.381ZM258.515 603.94V599.599H270.125V603.94H258.515ZM276.496 614V589.883H282.077V609.452H294.17V614H276.496ZM308.599 614.413C306.692 614.413 304.924 614.103 303.293 613.483C301.685 612.863 300.284 611.99 299.09 610.865C297.918 609.739 297 608.419 296.334 606.903C295.69 605.387 295.369 603.733 295.369 601.941C295.369 600.15 295.69 598.496 296.334 596.98C297 595.464 297.93 594.144 299.124 593.018C300.319 591.893 301.72 591.02 303.328 590.4C304.935 589.779 306.681 589.469 308.564 589.469C310.471 589.469 312.216 589.779 313.801 590.4C315.409 591.02 316.799 591.893 317.97 593.018C319.164 594.144 320.095 595.464 320.761 596.98C321.427 598.473 321.76 600.127 321.76 601.941C321.76 603.733 321.427 605.398 320.761 606.937C320.095 608.453 319.164 609.774 317.97 610.899C316.799 612.002 315.409 612.863 313.801 613.483C312.216 614.103 310.482 614.413 308.599 614.413ZM308.564 609.659C309.644 609.659 310.632 609.475 311.527 609.108C312.446 608.74 313.25 608.212 313.939 607.523C314.628 606.834 315.156 606.018 315.524 605.077C315.914 604.135 316.11 603.09 316.11 601.941C316.11 600.793 315.914 599.748 315.524 598.806C315.156 597.864 314.628 597.049 313.939 596.36C313.273 595.671 312.481 595.143 311.562 594.775C310.643 594.408 309.644 594.224 308.564 594.224C307.485 594.224 306.486 594.408 305.567 594.775C304.671 595.143 303.879 595.671 303.19 596.36C302.501 597.049 301.961 597.864 301.57 598.806C301.203 599.748 301.019 600.793 301.019 601.941C301.019 603.067 301.203 604.112 301.57 605.077C301.961 606.018 302.489 606.834 303.155 607.523C303.844 608.212 304.648 608.74 305.567 609.108C306.486 609.475 307.485 609.659 308.564 609.659ZM325.955 614V589.883H336.394C338.553 589.883 340.413 590.239 341.975 590.951C343.537 591.64 344.743 592.639 345.593 593.948C346.443 595.257 346.868 596.819 346.868 598.634C346.868 600.425 346.443 601.976 345.593 603.285C344.743 604.594 343.537 605.605 341.975 606.317C340.413 607.006 338.553 607.351 336.394 607.351H329.055L331.536 604.835V614H325.955ZM331.536 605.456L329.055 602.803H336.084C337.806 602.803 339.093 602.435 339.943 601.7C340.792 600.965 341.217 599.943 341.217 598.634C341.217 597.302 340.792 596.268 339.943 595.533C339.093 594.798 337.806 594.431 336.084 594.431H329.055L331.536 591.778V605.456ZM350.852 614V589.883H355.469L365.736 606.903H363.29L373.385 589.883H377.967L378.036 614H372.799L372.765 597.91H373.729L365.667 611.45H363.152L354.918 597.91H356.089V614H350.852ZM383.758 614V589.883H401.984V594.362H389.305V609.521H402.431V614H383.758ZM388.891 603.94V599.599H400.502V603.94H388.891ZM406.872 614V589.883H411.489L425.718 607.247H423.479V589.883H428.991V614H424.409L410.145 596.636H412.385V614H406.872ZM439.693 614V594.431H431.975V589.883H452.992V594.431H445.274V614H439.693Z" fill="white"/>
</g>
<path d="M59.1905 87.39C57.33 87.39 55.5959 87.0914 53.988 86.4942C52.4032 85.8741 51.0251 85.0012 49.8537 83.8758C48.6823 82.7503 47.7635 81.4296 47.0974 79.9137C46.4543 78.3977 46.1327 76.7325 46.1327 74.918C46.1327 73.1034 46.4543 71.4382 47.0974 69.9223C47.7635 68.4063 48.6823 67.0856 49.8537 65.9602C51.048 64.8347 52.4377 63.9734 54.0225 63.3762C55.6073 62.756 57.3415 62.4459 59.2249 62.4459C61.3151 62.4459 63.1985 62.8134 64.8752 63.5484C66.5749 64.2605 67.999 65.317 69.1474 66.7181L65.5643 70.0256C64.7374 69.0839 63.8187 68.3834 62.808 67.924C61.7974 67.4416 60.6949 67.2005 59.5005 67.2005C58.3751 67.2005 57.3415 67.3842 56.3998 67.7517C55.458 68.1192 54.6427 68.6475 53.9536 69.3366C53.2645 70.0256 52.7248 70.841 52.3343 71.7827C51.9668 72.7245 51.783 73.7695 51.783 74.918C51.783 76.0664 51.9668 77.1115 52.3343 78.0532C52.7248 78.9949 53.2645 79.8103 53.9536 80.4994C54.6427 81.1884 55.458 81.7167 56.3998 82.0842C57.3415 82.4517 58.3751 82.6355 59.5005 82.6355C60.6949 82.6355 61.7974 82.4058 62.808 81.9464C63.8187 81.4641 64.7374 80.7405 65.5643 79.7759L69.1474 83.0834C67.999 84.4845 66.5749 85.5525 64.8752 86.2875C63.1985 87.0225 61.3036 87.39 59.1905 87.39ZM83.2175 87.39C81.3111 87.39 79.5425 87.0799 77.9117 86.4598C76.3039 85.8396 74.9028 84.9668 73.7084 83.8413C72.537 82.7159 71.6183 81.3952 70.9522 79.8792C70.309 78.3633 69.9875 76.7095 69.9875 74.918C69.9875 73.1264 70.309 71.4727 70.9522 69.9567C71.6183 68.4408 72.5485 67.1201 73.7429 65.9946C74.9373 64.8691 76.3383 63.9963 77.9462 63.3762C79.554 62.756 81.2996 62.4459 83.183 62.4459C85.0894 62.4459 86.8351 62.756 88.4199 63.3762C90.0277 63.9963 91.4173 64.8691 92.5887 65.9946C93.7831 67.1201 94.7133 68.4408 95.3794 69.9567C96.0455 71.4497 96.3786 73.1034 96.3786 74.918C96.3786 76.7095 96.0455 78.3748 95.3794 79.9137C94.7133 81.4296 93.7831 82.7503 92.5887 83.8758C91.4173 84.9783 90.0277 85.8396 88.4199 86.4598C86.8351 87.0799 85.1009 87.39 83.2175 87.39ZM83.183 82.6355C84.2626 82.6355 85.2502 82.4517 86.146 82.0842C87.0648 81.7167 87.8687 81.1884 88.5577 80.4994C89.2468 79.8103 89.7751 78.9949 90.1426 78.0532C90.533 77.1115 90.7283 76.0664 90.7283 74.918C90.7283 73.7695 90.533 72.7245 90.1426 71.7827C89.7751 70.841 89.2468 70.0256 88.5577 69.3366C87.8916 68.6475 87.0992 68.1192 86.1805 67.7517C85.2617 67.3842 84.2626 67.2005 83.183 67.2005C82.1035 67.2005 81.1044 67.3842 80.1856 67.7517C79.2898 68.1192 78.4974 68.6475 77.8083 69.3366C77.1193 70.0256 76.5795 70.841 76.189 71.7827C75.8215 72.7245 75.6378 73.7695 75.6378 74.918C75.6378 76.0434 75.8215 77.0885 76.189 78.0532C76.5795 78.9949 77.1078 79.8103 77.7739 80.4994C78.463 81.1884 79.2669 81.7167 80.1856 82.0842C81.1044 82.4517 82.1035 82.6355 83.183 82.6355ZM100.573 86.9766V62.8594H105.19L115.457 79.8792H113.011L123.106 62.8594H127.688L127.757 86.9766H122.52L122.485 70.887H123.45L115.388 84.427H112.873L104.639 70.887H105.81V86.9766H100.573ZM133.479 86.9766V62.8594H138.095L148.362 79.8792H145.916L156.011 62.8594H160.593L160.662 86.9766H155.425L155.391 70.887H156.356L148.294 84.427H145.778L137.544 70.887H138.716V86.9766H133.479ZM166.384 86.9766V62.8594H171.966V86.9766H166.384ZM185.613 87.39C183.684 87.39 181.835 87.1373 180.066 86.632C178.298 86.1037 176.874 85.4262 175.794 84.5993L177.689 80.396C178.723 81.131 179.94 81.7397 181.341 82.222C182.765 82.6814 184.201 82.9111 185.648 82.9111C186.75 82.9111 187.635 82.8077 188.301 82.601C188.99 82.3713 189.495 82.0612 189.817 81.6708C190.138 81.2803 190.299 80.8324 190.299 80.3271C190.299 79.684 190.046 79.1787 189.541 78.8112C189.036 78.4207 188.37 78.1106 187.543 77.8809C186.716 77.6283 185.797 77.3986 184.786 77.1919C183.799 76.9622 182.8 76.6866 181.789 76.365C180.801 76.0434 179.894 75.63 179.067 75.1247C178.24 74.6194 177.563 73.9533 177.034 73.1264C176.529 72.2995 176.276 71.243 176.276 69.9567C176.276 68.5786 176.644 67.3268 177.379 66.2013C178.137 65.0529 179.262 64.1456 180.755 63.4795C182.271 62.7905 184.166 62.4459 186.44 62.4459C187.956 62.4459 189.449 62.6297 190.919 62.9972C192.389 63.3417 193.687 63.87 194.812 64.582L193.09 68.8198C191.964 68.1766 190.839 67.7058 189.713 67.4072C188.588 67.0856 187.485 66.9248 186.406 66.9248C185.326 66.9248 184.442 67.0512 183.753 67.3038C183.064 67.5565 182.57 67.8895 182.271 68.303C181.973 68.6934 181.823 69.1528 181.823 69.6811C181.823 70.3012 182.076 70.8066 182.581 71.197C183.087 71.5645 183.753 71.8631 184.58 72.0928C185.407 72.3225 186.314 72.5522 187.301 72.7819C188.312 73.0116 189.311 73.2757 190.299 73.5743C191.31 73.8729 192.228 74.2748 193.055 74.7802C193.882 75.2855 194.548 75.9516 195.053 76.7784C195.582 77.6053 195.846 78.6504 195.846 79.9137C195.846 81.2688 195.467 82.5091 194.709 83.6346C193.951 84.7601 192.814 85.6673 191.298 86.3564C189.805 87.0455 187.91 87.39 185.613 87.39ZM207.584 87.39C205.654 87.39 203.805 87.1373 202.037 86.632C200.268 86.1037 198.844 85.4262 197.765 84.5993L199.66 80.396C200.693 81.131 201.911 81.7397 203.312 82.222C204.736 82.6814 206.171 82.9111 207.618 82.9111C208.721 82.9111 209.605 82.8077 210.271 82.601C210.96 82.3713 211.466 82.0612 211.787 81.6708C212.109 81.2803 212.269 80.8324 212.269 80.3271C212.269 79.684 212.017 79.1787 211.512 78.8112C211.006 78.4207 210.34 78.1106 209.513 77.8809C208.686 77.6283 207.768 77.3986 206.757 77.1919C205.769 76.9622 204.77 76.6866 203.76 76.365C202.772 76.0434 201.865 75.63 201.038 75.1247C200.211 74.6194 199.533 73.9533 199.005 73.1264C198.5 72.2995 198.247 71.243 198.247 69.9567C198.247 68.5786 198.615 67.3268 199.35 66.2013C200.108 65.0529 201.233 64.1456 202.726 63.4795C204.242 62.7905 206.137 62.4459 208.411 62.4459C209.927 62.4459 211.42 62.6297 212.89 62.9972C214.36 63.3417 215.657 63.87 216.783 64.582L215.06 68.8198C213.935 68.1766 212.809 67.7058 211.684 67.4072C210.558 67.0856 209.456 66.9248 208.376 66.9248C207.297 66.9248 206.412 67.0512 205.723 67.3038C205.034 67.5565 204.54 67.8895 204.242 68.303C203.943 68.6934 203.794 69.1528 203.794 69.6811C203.794 70.3012 204.047 70.8066 204.552 71.197C205.057 71.5645 205.723 71.8631 206.55 72.0928C207.377 72.3225 208.284 72.5522 209.272 72.7819C210.283 73.0116 211.282 73.2757 212.269 73.5743C213.28 73.8729 214.199 74.2748 215.026 74.7802C215.853 75.2855 216.519 75.9516 217.024 76.7784C217.552 77.6053 217.816 78.6504 217.816 79.9137C217.816 81.2688 217.437 82.5091 216.679 83.6346C215.922 84.7601 214.785 85.6673 213.269 86.3564C211.776 87.0455 209.881 87.39 207.584 87.39ZM221.63 86.9766V62.8594H227.212V86.9766H221.63ZM244.649 87.39C242.743 87.39 240.974 87.0799 239.343 86.4598C237.736 85.8396 236.335 84.9668 235.14 83.8413C233.969 82.7159 233.05 81.3952 232.384 79.8792C231.741 78.3633 231.419 76.7095 231.419 74.918C231.419 73.1264 231.741 71.4727 232.384 69.9567C233.05 68.4408 233.98 67.1201 235.175 65.9946C236.369 64.8691 237.77 63.9963 239.378 63.3762C240.986 62.756 242.731 62.4459 244.615 62.4459C246.521 62.4459 248.267 62.756 249.852 63.3762C251.459 63.9963 252.849 64.8691 254.02 65.9946C255.215 67.1201 256.145 68.4408 256.811 69.9567C257.477 71.4497 257.81 73.1034 257.81 74.918C257.81 76.7095 257.477 78.3748 256.811 79.9137C256.145 81.4296 255.215 82.7503 254.02 83.8758C252.849 84.9783 251.459 85.8396 249.852 86.4598C248.267 87.0799 246.533 87.39 244.649 87.39ZM244.615 82.6355C245.694 82.6355 246.682 82.4517 247.578 82.0842C248.496 81.7167 249.3 81.1884 249.989 80.4994C250.679 79.8103 251.207 78.9949 251.574 78.0532C251.965 77.1115 252.16 76.0664 252.16 74.918C252.16 73.7695 251.965 72.7245 251.574 71.7827C251.207 70.841 250.679 70.0256 249.989 69.3366C249.323 68.6475 248.531 68.1192 247.612 67.7517C246.693 67.3842 245.694 67.2005 244.615 67.2005C243.535 67.2005 242.536 67.3842 241.617 67.7517C240.722 68.1192 239.929 68.6475 239.24 69.3366C238.551 70.0256 238.011 70.841 237.621 71.7827C237.253 72.7245 237.07 73.7695 237.07 74.918C237.07 76.0434 237.253 77.0885 237.621 78.0532C238.011 78.9949 238.54 79.8103 239.206 80.4994C239.895 81.1884 240.699 81.7167 241.617 82.0842C242.536 82.4517 243.535 82.6355 244.615 82.6355ZM262.005 86.9766V62.8594H266.622L280.851 80.2237H278.611V62.8594H284.124V86.9766H279.542L265.278 69.6122H267.517V86.9766H262.005ZM297.796 81.912V78.1566L309.165 62.8594H315.022L303.894 78.1566L301.172 77.3641H320.156V81.912H297.796ZM310.784 86.9766V81.912L310.957 77.3641V72.8508H316.228V86.9766H310.784Z" fill="white"/>
<g filter="url(#filter1_i_256_416)">
<path fill-rule="evenodd" clip-rule="evenodd" d="M178.172 188.492C192.882 177.149 210.977 170.995 229.6 171C248.23 170.985 266.334 177.134 281.053 188.476C295.772 199.818 306.267 215.707 310.881 233.633C315.495 251.56 313.965 270.501 306.532 287.468C299.099 304.434 286.187 318.457 269.836 327.324C277.331 329.497 284.598 332.262 291.575 335.576C287.748 336.629 280.093 340.38 280.093 346.958V377.006C281.236 381.941 285.825 391.811 295.028 391.811C305.09 391.811 322.196 394.803 310.121 406.772C303.408 412.275 293.521 426.171 307.677 437.727L319.128 448.561C324.332 454.58 334.742 463.523 348.274 450.109C348.274 450.109 357.122 439.791 362.326 442.37C365.017 443.704 365.511 450.123 365.993 456.378C366.443 462.224 366.882 467.926 369.092 469.198C375.338 476.42 364.426 478.937 362.326 479L98.6135 478.484C97.0407 478.437 95.4927 478.082 94.0579 477.441C92.6232 476.799 91.3298 475.883 90.2518 474.744C89.1738 473.606 88.3322 472.268 87.7753 470.806C87.2183 469.345 86.9568 467.788 87.0058 466.226C87.9297 436.093 97.3913 400.833 115.968 376.99C134.545 353.148 160.242 335.757 189.38 327.308C173.038 318.438 160.135 304.416 152.708 287.455C145.28 270.494 143.751 251.559 148.362 233.639C152.973 215.719 163.462 199.834 178.172 188.492Z" fill="#8646C4"/>
</g>
<g filter="url(#filter2_i_256_416)">
<path fill-rule="evenodd" clip-rule="evenodd" d="M415.828 262.854C416.763 264.679 417 267.022 417.462 271.71C418.344 280.566 418.784 284.994 420.633 287.434C421.785 288.95 423.316 290.132 425.07 290.86C426.824 291.589 428.739 291.838 430.62 291.582C433.63 291.182 437.07 288.363 443.928 282.726C447.551 279.734 449.368 278.244 451.314 277.617C453.792 276.822 456.473 276.956 458.86 277.995C460.741 278.816 462.408 280.479 465.708 283.806L475.318 293.461C478.629 296.787 480.285 298.45 481.102 300.34C482.136 302.739 482.27 305.432 481.478 307.922C480.855 309.877 479.371 311.702 476.404 315.342C470.782 322.243 467.976 325.688 467.568 328.723C467.316 330.612 467.566 332.534 468.293 334.294C469.02 336.054 470.198 337.59 471.706 338.745C474.125 340.603 478.544 341.046 487.369 341.931C492.024 342.396 494.357 342.633 496.184 343.573C498.49 344.774 500.284 346.772 501.237 349.2C502 351.111 502 353.466 502 358.174V371.826C502 376.534 502 378.889 501.247 380.79C500.292 383.224 498.489 385.228 496.174 386.427C494.357 387.367 492.024 387.604 487.359 388.069C478.544 388.954 474.136 389.397 471.706 391.255C470.198 392.412 469.021 393.95 468.296 395.712C467.571 397.475 467.324 399.398 467.579 401.288C467.987 404.312 470.793 407.768 476.404 414.658C479.371 418.298 480.855 420.112 481.478 422.078C482.27 424.568 482.136 427.261 481.102 429.66C480.285 431.55 478.629 433.213 475.318 436.539L465.708 446.184C462.397 449.521 460.741 451.184 458.86 451.994C456.473 453.033 453.792 453.168 451.314 452.372C449.368 451.746 447.551 450.255 443.928 447.274C437.059 441.637 433.63 438.818 430.62 438.418C428.739 438.162 426.824 438.411 425.07 439.14C423.316 439.868 421.785 441.05 420.633 442.566C418.784 444.996 418.344 449.424 417.462 458.29C417 462.978 416.763 465.321 415.828 467.146C414.637 469.471 412.647 471.282 410.227 472.244C408.325 473 405.981 473 401.294 473H387.706C383.019 473 380.676 473 378.784 472.244C376.36 471.284 374.366 469.473 373.172 467.146C372.237 465.321 372 462.978 371.538 458.29C370.657 449.434 370.216 445.006 368.367 442.566C367.216 441.052 365.687 439.871 363.935 439.143C362.183 438.414 360.27 438.164 358.391 438.418C355.37 438.818 351.941 441.637 345.071 447.274C341.449 450.266 339.632 451.756 337.686 452.383C335.208 453.178 332.527 453.044 330.14 452.005C328.259 451.184 326.592 449.521 323.292 446.194L313.681 436.539C310.371 433.213 308.715 431.55 307.898 429.66C306.864 427.261 306.73 424.568 307.522 422.078C308.145 420.123 309.629 418.298 312.596 414.658C318.218 407.757 321.024 404.312 321.422 401.277C321.674 399.389 321.426 397.468 320.701 395.708C319.976 393.947 318.8 392.411 317.293 391.255C314.875 389.397 310.456 388.954 301.631 388.069C296.976 387.604 294.643 387.367 292.816 386.427C290.51 385.226 288.716 383.228 287.763 380.8C287 378.889 287 376.534 287 371.826V358.174C287 353.466 287 351.111 287.752 349.21C288.708 346.776 290.511 344.772 292.827 343.573C294.643 342.633 296.976 342.396 301.641 341.931C310.456 341.046 314.875 340.603 317.293 338.745C318.802 337.59 319.98 336.054 320.707 334.294C321.434 332.534 321.684 330.612 321.432 328.723C321.024 325.688 318.207 322.243 312.596 315.331C309.629 311.691 308.145 309.877 307.522 307.911C306.73 305.422 306.864 302.728 307.898 300.33C308.715 298.45 310.371 296.776 313.681 293.45L323.292 283.806C326.603 280.479 328.259 278.805 330.14 277.995C332.527 276.956 335.208 276.822 337.686 277.617C339.632 278.244 341.449 279.734 345.071 282.715C351.941 288.352 355.37 291.171 358.38 291.582C360.264 291.838 362.181 291.589 363.937 290.858C365.694 290.128 367.226 288.943 368.377 287.424C370.205 284.994 370.657 280.566 371.538 271.699C372 267.022 372.237 264.679 373.172 262.843C374.365 260.523 376.355 258.716 378.773 257.756C380.675 257 383.019 257 387.706 257H401.294C405.981 257 408.325 257 410.216 257.756C412.64 258.716 414.634 260.527 415.828 262.854ZM394.5 408.2C405.904 408.2 416.842 403.649 424.906 395.547C432.97 387.445 437.5 376.457 437.5 365C437.5 353.543 432.97 342.555 424.906 334.453C416.842 326.351 405.904 321.8 394.5 321.8C383.096 321.8 372.158 326.351 364.094 334.453C356.03 342.555 351.5 353.543 351.5 365C351.5 376.457 356.03 387.445 364.094 395.547C372.158 403.649 383.096 408.2 394.5 408.2Z" fill="#BA75DF"/>
</g>
<defs>
<filter id="filter0_d_256_416" x="140.495" y="547.469" width="312.497" height="70.3896" filterUnits="userSpaceOnUse" color-interpolation-filters="sRGB">
<feFlood flood-opacity="0" result="BackgroundImageFix"/>
<feColorMatrix in="SourceAlpha" type="matrix" values="0 0 0 0 0 0 0 0 0 0 0 0 0 0 0 0 0 0 127 0" result="hardAlpha"/>
<feOffset dy="3.44531"/>
<feComposite in2="hardAlpha" operator="out"/>
<feColorMatrix type="matrix" values="0 0 0 0 0.666536 0 0 0 0 0.211765 0 0 0 0 0.768627 0 0 0 1 0"/>
<feBlend mode="normal" in2="BackgroundImageFix" result="effect1_dropShadow_256_416"/>
<feBlend mode="normal" in="SourceGraphic" in2="effect1_dropShadow_256_416" result="shape"/>
</filter>
<filter id="filter1_i_256_416" x="87" y="171" width="287" height="311" filterUnits="userSpaceOnUse" color-interpolation-filters="sRGB">
<feFlood flood-opacity="0" result="BackgroundImageFix"/>
<feBlend mode="normal" in="SourceGraphic" in2="BackgroundImageFix" result="shape"/>
<feColorMatrix in="SourceAlpha" type="matrix" values="0 0 0 0 0 0 0 0 0 0 0 0 0 0 0 0 0 0 127 0" result="hardAlpha"/>
<feOffset dx="3" dy="3"/>
<feGaussianBlur stdDeviation="5"/>
<feComposite in2="hardAlpha" operator="arithmetic" k2="-1" k3="1"/>
<feColorMatrix type="matrix" values="0 0 0 0 0 0 0 0 0 0 0 0 0 0 0 0 0 0 0.2 0"/>
<feBlend mode="normal" in2="shape" result="effect1_innerShadow_256_416"/>
</filter>
<filter id="filter2_i_256_416" x="287" y="257" width="218" height="219" filterUnits="userSpaceOnUse" color-interpolation-filters="sRGB">
<feFlood flood-opacity="0" result="BackgroundImageFix"/>
<feBlend mode="normal" in="SourceGraphic" in2="BackgroundImageFix" result="shape"/>
<feColorMatrix in="SourceAlpha" type="matrix" values="0 0 0 0 0 0 0 0 0 0 0 0 0 0 0 0 0 0 127 0" result="hardAlpha"/>
<feOffset dx="3" dy="3"/>
<feGaussianBlur stdDeviation="5"/>
<feComposite in2="hardAlpha" operator="arithmetic" k2="-1" k3="1"/>
<feColorMatrix type="matrix" values="0 0 0 0 0 0 0 0 0 0 0 0 0 0 0 0 0 0 0.2 0"/>
<feBlend mode="normal" in2="shape" result="effect1_innerShadow_256_416"/>
</filter>
</defs>
</svg>
