<svg width="588" height="651" viewBox="0 0 588 651" fill="none" xmlns="http://www.w3.org/2000/svg">
<g filter="url(#filter0_d_253_35)">
<path d="M190.127 585.398V561.281H208.353V565.76H195.674V580.92H208.801V585.398H190.127ZM195.261 575.338V570.997H206.871V575.338H195.261ZM213.242 585.398V561.281H224.198C226.816 561.281 229.125 561.787 231.123 562.797C233.121 563.785 234.683 565.174 235.809 566.966C236.934 568.758 237.497 570.882 237.497 573.34C237.497 575.775 236.934 577.899 235.809 579.714C234.683 581.505 233.121 582.906 231.123 583.917C229.125 584.905 226.816 585.398 224.198 585.398H213.242ZM218.823 580.816H223.922C225.53 580.816 226.92 580.518 228.091 579.92C229.285 579.3 230.204 578.427 230.847 577.302C231.513 576.176 231.846 574.856 231.846 573.34C231.846 571.801 231.513 570.48 230.847 569.378C230.204 568.252 229.285 567.391 228.091 566.794C226.92 566.174 225.53 565.864 223.922 565.864H218.823V580.816ZM252.421 585.812C248.999 585.812 246.323 584.859 244.393 582.952C242.464 581.046 241.499 578.324 241.499 574.787V561.281H247.081V574.58C247.081 576.877 247.551 578.531 248.493 579.541C249.435 580.552 250.756 581.057 252.455 581.057C254.155 581.057 255.476 580.552 256.417 579.541C257.359 578.531 257.83 576.877 257.83 574.58V561.281H263.343V574.787C263.343 578.324 262.378 581.046 260.448 582.952C258.519 584.859 255.843 585.812 252.421 585.812ZM280.4 585.812C278.539 585.812 276.805 585.513 275.197 584.916C273.613 584.296 272.234 583.423 271.063 582.298C269.892 581.172 268.973 579.851 268.307 578.336C267.664 576.82 267.342 575.154 267.342 573.34C267.342 571.525 267.664 569.86 268.307 568.344C268.973 566.828 269.892 565.507 271.063 564.382C272.257 563.257 273.647 562.395 275.232 561.798C276.817 561.178 278.551 560.868 280.434 560.868C282.524 560.868 284.408 561.235 286.085 561.97C287.784 562.682 289.208 563.739 290.357 565.14L286.774 568.447C285.947 567.506 285.028 566.805 284.017 566.346C283.007 565.864 281.904 565.622 280.71 565.622C279.584 565.622 278.551 565.806 277.609 566.174C276.667 566.541 275.852 567.069 275.163 567.758C274.474 568.447 273.934 569.263 273.544 570.205C273.176 571.146 272.992 572.191 272.992 573.34C272.992 574.488 273.176 575.533 273.544 576.475C273.934 577.417 274.474 578.232 275.163 578.921C275.852 579.61 276.667 580.139 277.609 580.506C278.551 580.874 279.584 581.057 280.71 581.057C281.904 581.057 283.007 580.828 284.017 580.368C285.028 579.886 285.947 579.162 286.774 578.198L290.357 581.505C289.208 582.906 287.784 583.974 286.085 584.709C284.408 585.444 282.513 585.812 280.4 585.812ZM290.149 585.398L300.898 561.281H306.411L317.194 585.398H311.337L302.517 564.106H304.722L295.868 585.398H290.149ZM295.523 580.23L297.005 575.993H309.408L310.924 580.23H295.523ZM323.481 585.398V565.829H315.763V561.281H336.78V565.829H329.062V585.398H323.481ZM339.783 585.398V561.281H345.364V585.398H339.783ZM362.802 585.812C360.896 585.812 359.127 585.502 357.496 584.882C355.888 584.261 354.487 583.389 353.293 582.263C352.121 581.138 351.203 579.817 350.537 578.301C349.894 576.785 349.572 575.131 349.572 573.34C349.572 571.548 349.894 569.895 350.537 568.379C351.203 566.863 352.133 565.542 353.327 564.416C354.522 563.291 355.923 562.418 357.531 561.798C359.138 561.178 360.884 560.868 362.767 560.868C364.674 560.868 366.42 561.178 368.004 561.798C369.612 562.418 371.002 563.291 372.173 564.416C373.368 565.542 374.298 566.863 374.964 568.379C375.63 569.872 375.963 571.525 375.963 573.34C375.963 575.131 375.63 576.797 374.964 578.336C374.298 579.851 373.368 581.172 372.173 582.298C371.002 583.4 369.612 584.261 368.004 584.882C366.42 585.502 364.685 585.812 362.802 585.812ZM362.767 581.057C363.847 581.057 364.835 580.874 365.73 580.506C366.649 580.139 367.453 579.61 368.142 578.921C368.831 578.232 369.36 577.417 369.727 576.475C370.117 575.533 370.313 574.488 370.313 573.34C370.313 572.191 370.117 571.146 369.727 570.205C369.36 569.263 368.831 568.447 368.142 567.758C367.476 567.069 366.684 566.541 365.765 566.174C364.846 565.806 363.847 565.622 362.767 565.622C361.688 565.622 360.689 565.806 359.77 566.174C358.874 566.541 358.082 567.069 357.393 567.758C356.704 568.447 356.164 569.263 355.774 570.205C355.406 571.146 355.222 572.191 355.222 573.34C355.222 574.465 355.406 575.51 355.774 576.475C356.164 577.417 356.692 578.232 357.358 578.921C358.047 579.61 358.851 580.139 359.77 580.506C360.689 580.874 361.688 581.057 362.767 581.057ZM380.158 585.398V561.281H384.774L399.004 578.646H396.764V561.281H402.277V585.398H397.694L383.431 568.034H385.67V585.398H380.158Z" fill="white"/>
</g>
<path d="M59.1905 87.39C57.33 87.39 55.5959 87.0914 53.988 86.4942C52.4032 85.8741 51.0251 85.0012 49.8537 83.8758C48.6823 82.7503 47.7635 81.4296 47.0974 79.9137C46.4543 78.3977 46.1327 76.7325 46.1327 74.918C46.1327 73.1034 46.4543 71.4382 47.0974 69.9223C47.7635 68.4063 48.6823 67.0856 49.8537 65.9602C51.048 64.8347 52.4377 63.9734 54.0225 63.3762C55.6073 62.756 57.3415 62.4459 59.2249 62.4459C61.3151 62.4459 63.1985 62.8134 64.8752 63.5484C66.5749 64.2605 67.999 65.317 69.1474 66.7181L65.5643 70.0256C64.7374 69.0839 63.8187 68.3834 62.808 67.924C61.7974 67.4416 60.6949 67.2005 59.5005 67.2005C58.3751 67.2005 57.3415 67.3842 56.3998 67.7517C55.458 68.1192 54.6427 68.6475 53.9536 69.3366C53.2645 70.0256 52.7248 70.841 52.3343 71.7827C51.9668 72.7245 51.783 73.7695 51.783 74.918C51.783 76.0664 51.9668 77.1115 52.3343 78.0532C52.7248 78.9949 53.2645 79.8103 53.9536 80.4994C54.6427 81.1884 55.458 81.7167 56.3998 82.0842C57.3415 82.4517 58.3751 82.6355 59.5005 82.6355C60.6949 82.6355 61.7974 82.4058 62.808 81.9464C63.8187 81.4641 64.7374 80.7405 65.5643 79.7759L69.1474 83.0834C67.999 84.4845 66.5749 85.5525 64.8752 86.2875C63.1985 87.0225 61.3036 87.39 59.1905 87.39ZM83.2175 87.39C81.3111 87.39 79.5425 87.0799 77.9117 86.4598C76.3039 85.8396 74.9028 84.9668 73.7084 83.8413C72.537 82.7159 71.6183 81.3952 70.9522 79.8792C70.309 78.3633 69.9875 76.7095 69.9875 74.918C69.9875 73.1264 70.309 71.4727 70.9522 69.9567C71.6183 68.4408 72.5485 67.1201 73.7429 65.9946C74.9373 64.8691 76.3383 63.9963 77.9462 63.3762C79.554 62.756 81.2996 62.4459 83.183 62.4459C85.0894 62.4459 86.8351 62.756 88.4199 63.3762C90.0277 63.9963 91.4173 64.8691 92.5887 65.9946C93.7831 67.1201 94.7133 68.4408 95.3794 69.9567C96.0455 71.4497 96.3786 73.1034 96.3786 74.918C96.3786 76.7095 96.0455 78.3748 95.3794 79.9137C94.7133 81.4296 93.7831 82.7503 92.5887 83.8758C91.4173 84.9783 90.0277 85.8396 88.4199 86.4598C86.8351 87.0799 85.1009 87.39 83.2175 87.39ZM83.183 82.6355C84.2626 82.6355 85.2502 82.4517 86.146 82.0842C87.0648 81.7167 87.8687 81.1884 88.5577 80.4994C89.2468 79.8103 89.7751 78.9949 90.1426 78.0532C90.533 77.1115 90.7283 76.0664 90.7283 74.918C90.7283 73.7695 90.533 72.7245 90.1426 71.7827C89.7751 70.841 89.2468 70.0256 88.5577 69.3366C87.8916 68.6475 87.0992 68.1192 86.1805 67.7517C85.2617 67.3842 84.2626 67.2005 83.183 67.2005C82.1035 67.2005 81.1044 67.3842 80.1856 67.7517C79.2898 68.1192 78.4974 68.6475 77.8083 69.3366C77.1193 70.0256 76.5795 70.841 76.189 71.7827C75.8215 72.7245 75.6378 73.7695 75.6378 74.918C75.6378 76.0434 75.8215 77.0885 76.189 78.0532C76.5795 78.9949 77.1078 79.8103 77.7739 80.4994C78.463 81.1884 79.2669 81.7167 80.1856 82.0842C81.1044 82.4517 82.1035 82.6355 83.183 82.6355ZM100.573 86.9766V62.8594H105.19L115.457 79.8792H113.011L123.106 62.8594H127.688L127.757 86.9766H122.52L122.485 70.887H123.45L115.388 84.427H112.873L104.639 70.887H105.81V86.9766H100.573ZM133.479 86.9766V62.8594H138.095L148.362 79.8792H145.916L156.011 62.8594H160.593L160.662 86.9766H155.425L155.391 70.887H156.356L148.294 84.427H145.778L137.544 70.887H138.716V86.9766H133.479ZM166.384 86.9766V62.8594H171.966V86.9766H166.384ZM185.613 87.39C183.684 87.39 181.835 87.1373 180.066 86.632C178.298 86.1037 176.874 85.4262 175.794 84.5993L177.689 80.396C178.723 81.131 179.94 81.7397 181.341 82.222C182.765 82.6814 184.201 82.9111 185.648 82.9111C186.75 82.9111 187.635 82.8077 188.301 82.601C188.99 82.3713 189.495 82.0612 189.817 81.6708C190.138 81.2803 190.299 80.8324 190.299 80.3271C190.299 79.684 190.046 79.1787 189.541 78.8112C189.036 78.4207 188.37 78.1106 187.543 77.8809C186.716 77.6283 185.797 77.3986 184.786 77.1919C183.799 76.9622 182.8 76.6866 181.789 76.365C180.801 76.0434 179.894 75.63 179.067 75.1247C178.24 74.6194 177.563 73.9533 177.034 73.1264C176.529 72.2995 176.276 71.243 176.276 69.9567C176.276 68.5786 176.644 67.3268 177.379 66.2013C178.137 65.0529 179.262 64.1456 180.755 63.4795C182.271 62.7905 184.166 62.4459 186.44 62.4459C187.956 62.4459 189.449 62.6297 190.919 62.9972C192.389 63.3417 193.687 63.87 194.812 64.582L193.09 68.8198C191.964 68.1766 190.839 67.7058 189.713 67.4072C188.588 67.0856 187.485 66.9248 186.406 66.9248C185.326 66.9248 184.442 67.0512 183.753 67.3038C183.064 67.5565 182.57 67.8895 182.271 68.303C181.973 68.6934 181.823 69.1528 181.823 69.6811C181.823 70.3012 182.076 70.8066 182.581 71.197C183.087 71.5645 183.753 71.8631 184.58 72.0928C185.407 72.3225 186.314 72.5522 187.301 72.7819C188.312 73.0116 189.311 73.2757 190.299 73.5743C191.31 73.8729 192.228 74.2748 193.055 74.7802C193.882 75.2855 194.548 75.9516 195.053 76.7784C195.582 77.6053 195.846 78.6504 195.846 79.9137C195.846 81.2688 195.467 82.5091 194.709 83.6346C193.951 84.7601 192.814 85.6673 191.298 86.3564C189.805 87.0455 187.91 87.39 185.613 87.39ZM207.584 87.39C205.654 87.39 203.805 87.1373 202.037 86.632C200.268 86.1037 198.844 85.4262 197.765 84.5993L199.66 80.396C200.693 81.131 201.911 81.7397 203.312 82.222C204.736 82.6814 206.171 82.9111 207.618 82.9111C208.721 82.9111 209.605 82.8077 210.271 82.601C210.96 82.3713 211.466 82.0612 211.787 81.6708C212.109 81.2803 212.269 80.8324 212.269 80.3271C212.269 79.684 212.017 79.1787 211.512 78.8112C211.006 78.4207 210.34 78.1106 209.513 77.8809C208.686 77.6283 207.768 77.3986 206.757 77.1919C205.769 76.9622 204.77 76.6866 203.76 76.365C202.772 76.0434 201.865 75.63 201.038 75.1247C200.211 74.6194 199.533 73.9533 199.005 73.1264C198.5 72.2995 198.247 71.243 198.247 69.9567C198.247 68.5786 198.615 67.3268 199.35 66.2013C200.108 65.0529 201.233 64.1456 202.726 63.4795C204.242 62.7905 206.137 62.4459 208.411 62.4459C209.927 62.4459 211.42 62.6297 212.89 62.9972C214.36 63.3417 215.657 63.87 216.783 64.582L215.06 68.8198C213.935 68.1766 212.809 67.7058 211.684 67.4072C210.558 67.0856 209.456 66.9248 208.376 66.9248C207.297 66.9248 206.412 67.0512 205.723 67.3038C205.034 67.5565 204.54 67.8895 204.242 68.303C203.943 68.6934 203.794 69.1528 203.794 69.6811C203.794 70.3012 204.047 70.8066 204.552 71.197C205.057 71.5645 205.723 71.8631 206.55 72.0928C207.377 72.3225 208.284 72.5522 209.272 72.7819C210.283 73.0116 211.282 73.2757 212.269 73.5743C213.28 73.8729 214.199 74.2748 215.026 74.7802C215.853 75.2855 216.519 75.9516 217.024 76.7784C217.552 77.6053 217.816 78.6504 217.816 79.9137C217.816 81.2688 217.437 82.5091 216.679 83.6346C215.922 84.7601 214.785 85.6673 213.269 86.3564C211.776 87.0455 209.881 87.39 207.584 87.39ZM221.63 86.9766V62.8594H227.212V86.9766H221.63ZM244.649 87.39C242.743 87.39 240.974 87.0799 239.343 86.4598C237.736 85.8396 236.335 84.9668 235.14 83.8413C233.969 82.7159 233.05 81.3952 232.384 79.8792C231.741 78.3633 231.419 76.7095 231.419 74.918C231.419 73.1264 231.741 71.4727 232.384 69.9567C233.05 68.4408 233.98 67.1201 235.175 65.9946C236.369 64.8691 237.77 63.9963 239.378 63.3762C240.986 62.756 242.731 62.4459 244.615 62.4459C246.521 62.4459 248.267 62.756 249.852 63.3762C251.459 63.9963 252.849 64.8691 254.02 65.9946C255.215 67.1201 256.145 68.4408 256.811 69.9567C257.477 71.4497 257.81 73.1034 257.81 74.918C257.81 76.7095 257.477 78.3748 256.811 79.9137C256.145 81.4296 255.215 82.7503 254.02 83.8758C252.849 84.9783 251.459 85.8396 249.852 86.4598C248.267 87.0799 246.533 87.39 244.649 87.39ZM244.615 82.6355C245.694 82.6355 246.682 82.4517 247.578 82.0842C248.496 81.7167 249.3 81.1884 249.989 80.4994C250.679 79.8103 251.207 78.9949 251.574 78.0532C251.965 77.1115 252.16 76.0664 252.16 74.918C252.16 73.7695 251.965 72.7245 251.574 71.7827C251.207 70.841 250.679 70.0256 249.989 69.3366C249.323 68.6475 248.531 68.1192 247.612 67.7517C246.693 67.3842 245.694 67.2005 244.615 67.2005C243.535 67.2005 242.536 67.3842 241.617 67.7517C240.722 68.1192 239.929 68.6475 239.24 69.3366C238.551 70.0256 238.011 70.841 237.621 71.7827C237.253 72.7245 237.07 73.7695 237.07 74.918C237.07 76.0434 237.253 77.0885 237.621 78.0532C238.011 78.9949 238.54 79.8103 239.206 80.4994C239.895 81.1884 240.699 81.7167 241.617 82.0842C242.536 82.4517 243.535 82.6355 244.615 82.6355ZM262.005 86.9766V62.8594H266.622L280.851 80.2237H278.611V62.8594H284.124V86.9766H279.542L265.278 69.6122H267.517V86.9766H262.005ZM301.792 86.9766V64.9266L304.204 67.3383H296.969V62.8594H307.374V86.9766H301.792Z" fill="white"/>
<g filter="url(#filter1_d_253_35)">
<path d="M462.778 198.166H125.222C112.433 198.166 100.167 203.247 91.124 212.29C82.0805 221.333 77 233.599 77 246.388L77 427.222C77 440.011 82.0805 452.276 91.124 461.32C100.167 470.363 112.433 475.444 125.222 475.444H262.848C269.117 482.629 280.655 487.499 294 487.499C307.346 487.499 318.895 482.629 325.152 475.444H462.778C475.567 475.444 487.833 470.363 496.876 461.32C505.919 452.276 511 440.011 511 427.222V246.388C511 233.599 505.919 221.333 496.876 212.29C487.833 203.247 475.567 198.166 462.778 198.166Z" fill="#8646C4"/>
</g>
<path d="M318.111 439.277C318.111 445.672 315.571 451.805 311.049 456.326C306.527 460.848 300.394 463.388 294 463.388C287.605 463.388 281.472 460.848 276.951 456.326C272.429 451.805 269.889 445.672 269.889 439.277V222.277C269.889 215.882 272.429 209.75 276.951 205.228C281.472 200.706 287.605 198.166 294 198.166C300.394 198.166 306.527 200.706 311.049 205.228C315.571 209.75 318.111 215.882 318.111 222.277V439.277Z" fill="#292F33"/>
<g filter="url(#filter2_d_253_35)">
<path d="M296.181 427.221C296.181 433.616 293.641 439.749 289.119 444.27C284.597 448.792 278.464 451.332 272.07 451.332H127.403C121.008 451.332 114.876 448.792 110.354 444.27C105.832 439.749 103.292 433.616 103.292 427.221V210.221C103.292 203.827 105.832 197.694 110.354 193.172C114.876 188.65 121.008 186.11 127.403 186.11H272.07C278.464 186.11 284.597 188.65 289.119 193.172C293.641 197.694 296.181 203.827 296.181 210.221V427.221Z" fill="#BA75DF"/>
</g>
<g filter="url(#filter3_d_253_35)">
<path d="M294 427.222C281.957 403.135 249.913 403.111 245.778 403.111C221.667 403.111 185.5 427.222 149.334 427.222C137.278 427.222 125.223 416.42 125.223 403.111V210.222C125.223 196.913 137.278 186.111 149.334 186.111C188.575 186.111 221.667 162 245.778 162C281.945 162 294 184.857 294 198.167V427.222Z" fill="#F6FFFF"/>
</g>
<g filter="url(#filter4_d_253_35)">
<path d="M486.889 427.221C486.889 433.616 484.349 439.749 479.827 444.27C475.305 448.792 469.172 451.332 462.778 451.332H318.111C311.716 451.332 305.584 448.792 301.062 444.27C296.54 439.749 294 433.616 294 427.221V210.221C294 203.827 296.54 197.694 301.062 193.172C305.584 188.65 311.716 186.11 318.111 186.11H462.778C469.172 186.11 475.305 188.65 479.827 193.172C484.349 197.694 486.889 203.827 486.889 210.221V427.221Z" fill="#BA75DF"/>
</g>
<g filter="url(#filter5_d_253_35)">
<path d="M294 427.222C306.044 403.135 338.087 403.111 342.222 403.111C366.333 403.111 402.5 427.222 438.667 427.222C450.722 427.222 462.778 416.42 462.778 403.111V210.222C462.778 196.913 450.722 186.111 438.667 186.111C399.414 186.111 366.333 162 342.222 162C306.056 162 294 184.857 294 198.167V427.222Z" fill="#F6FFFF"/>
</g>
<defs>
<filter id="filter0_d_253_35" x="190.127" y="560.868" width="212.149" height="28.3892" filterUnits="userSpaceOnUse" color-interpolation-filters="sRGB">
<feFlood flood-opacity="0" result="BackgroundImageFix"/>
<feColorMatrix in="SourceAlpha" type="matrix" values="0 0 0 0 0 0 0 0 0 0 0 0 0 0 0 0 0 0 127 0" result="hardAlpha"/>
<feOffset dy="3.44531"/>
<feComposite in2="hardAlpha" operator="out"/>
<feColorMatrix type="matrix" values="0 0 0 0 0.666536 0 0 0 0 0.211765 0 0 0 0 0.768627 0 0 0 1 0"/>
<feBlend mode="normal" in2="BackgroundImageFix" result="effect1_dropShadow_253_35"/>
<feBlend mode="normal" in="SourceGraphic" in2="effect1_dropShadow_253_35" result="shape"/>
</filter>
<filter id="filter1_d_253_35" x="67" y="191.166" width="454" height="309.333" filterUnits="userSpaceOnUse" color-interpolation-filters="sRGB">
<feFlood flood-opacity="0" result="BackgroundImageFix"/>
<feColorMatrix in="SourceAlpha" type="matrix" values="0 0 0 0 0 0 0 0 0 0 0 0 0 0 0 0 0 0 127 0" result="hardAlpha"/>
<feOffset dy="3"/>
<feGaussianBlur stdDeviation="5"/>
<feComposite in2="hardAlpha" operator="out"/>
<feColorMatrix type="matrix" values="0 0 0 0 0 0 0 0 0 0 0 0 0 0 0 0 0 0 0.2 0"/>
<feBlend mode="normal" in2="BackgroundImageFix" result="effect1_dropShadow_253_35"/>
<feBlend mode="normal" in="SourceGraphic" in2="effect1_dropShadow_253_35" result="shape"/>
</filter>
<filter id="filter2_d_253_35" x="90.292" y="179.11" width="212.889" height="285.222" filterUnits="userSpaceOnUse" color-interpolation-filters="sRGB">
<feFlood flood-opacity="0" result="BackgroundImageFix"/>
<feColorMatrix in="SourceAlpha" type="matrix" values="0 0 0 0 0 0 0 0 0 0 0 0 0 0 0 0 0 0 127 0" result="hardAlpha"/>
<feOffset dx="-3" dy="3"/>
<feGaussianBlur stdDeviation="5"/>
<feComposite in2="hardAlpha" operator="out"/>
<feColorMatrix type="matrix" values="0 0 0 0 0 0 0 0 0 0 0 0 0 0 0 0 0 0 0.2 0"/>
<feBlend mode="normal" in2="BackgroundImageFix" result="effect1_dropShadow_253_35"/>
<feBlend mode="normal" in="SourceGraphic" in2="effect1_dropShadow_253_35" result="shape"/>
</filter>
<filter id="filter3_d_253_35" x="118.223" y="155" width="188.777" height="285.222" filterUnits="userSpaceOnUse" color-interpolation-filters="sRGB">
<feFlood flood-opacity="0" result="BackgroundImageFix"/>
<feColorMatrix in="SourceAlpha" type="matrix" values="0 0 0 0 0 0 0 0 0 0 0 0 0 0 0 0 0 0 127 0" result="hardAlpha"/>
<feOffset dx="3" dy="3"/>
<feGaussianBlur stdDeviation="5"/>
<feComposite in2="hardAlpha" operator="out"/>
<feColorMatrix type="matrix" values="0 0 0 0 0 0 0 0 0 0 0 0 0 0 0 0 0 0 0.2 0"/>
<feBlend mode="normal" in2="BackgroundImageFix" result="effect1_dropShadow_253_35"/>
<feBlend mode="normal" in="SourceGraphic" in2="effect1_dropShadow_253_35" result="shape"/>
</filter>
<filter id="filter4_d_253_35" x="290" y="179.11" width="212.889" height="285.222" filterUnits="userSpaceOnUse" color-interpolation-filters="sRGB">
<feFlood flood-opacity="0" result="BackgroundImageFix"/>
<feColorMatrix in="SourceAlpha" type="matrix" values="0 0 0 0 0 0 0 0 0 0 0 0 0 0 0 0 0 0 127 0" result="hardAlpha"/>
<feOffset dx="6" dy="3"/>
<feGaussianBlur stdDeviation="5"/>
<feComposite in2="hardAlpha" operator="out"/>
<feColorMatrix type="matrix" values="0 0 0 0 0 0 0 0 0 0 0 0 0 0 0 0 0 0 0.2 0"/>
<feBlend mode="normal" in2="BackgroundImageFix" result="effect1_dropShadow_253_35"/>
<feBlend mode="normal" in="SourceGraphic" in2="effect1_dropShadow_253_35" result="shape"/>
</filter>
<filter id="filter5_d_253_35" x="282" y="155" width="188.777" height="285.222" filterUnits="userSpaceOnUse" color-interpolation-filters="sRGB">
<feFlood flood-opacity="0" result="BackgroundImageFix"/>
<feColorMatrix in="SourceAlpha" type="matrix" values="0 0 0 0 0 0 0 0 0 0 0 0 0 0 0 0 0 0 127 0" result="hardAlpha"/>
<feOffset dx="-2" dy="3"/>
<feGaussianBlur stdDeviation="5"/>
<feComposite in2="hardAlpha" operator="out"/>
<feColorMatrix type="matrix" values="0 0 0 0 0 0 0 0 0 0 0 0 0 0 0 0 0 0 0.2 0"/>
<feBlend mode="normal" in2="BackgroundImageFix" result="effect1_dropShadow_253_35"/>
<feBlend mode="normal" in="SourceGraphic" in2="effect1_dropShadow_253_35" result="shape"/>
</filter>
</defs>
</svg>
