<svg width="588" height="651" viewBox="0 0 588 651" fill="none" xmlns="http://www.w3.org/2000/svg">
<g filter="url(#filter0_d_254_252)">
<path d="M200.053 572V547.883H210.354C213.708 547.883 216.315 548.664 218.175 550.226C220.035 551.765 220.966 553.901 220.966 556.634C220.966 558.425 220.541 559.976 219.691 561.285C218.841 562.571 217.635 563.559 216.073 564.248C214.511 564.937 212.651 565.282 210.492 565.282H203.153L205.634 562.835V572H200.053ZM215.384 572L209.355 563.249H215.315L221.414 572H215.384ZM205.634 563.456L203.153 560.837H210.182C211.905 560.837 213.191 560.47 214.041 559.735C214.89 558.977 215.315 557.943 215.315 556.634C215.315 555.302 214.89 554.268 214.041 553.533C213.191 552.798 211.905 552.431 210.182 552.431H203.153L205.634 549.778V563.456ZM225.388 572V547.883H243.614V552.362H230.935V567.521H244.061V572H225.388ZM230.521 561.94V557.599H242.132V561.94H230.521ZM256.427 572.413C254.497 572.413 252.648 572.161 250.88 571.655C249.111 571.127 247.687 570.45 246.607 569.623L248.502 565.419C249.536 566.154 250.753 566.763 252.154 567.245C253.578 567.705 255.014 567.935 256.461 567.935C257.564 567.935 258.448 567.831 259.114 567.624C259.803 567.395 260.308 567.085 260.63 566.694C260.951 566.304 261.112 565.856 261.112 565.351C261.112 564.707 260.86 564.202 260.354 563.835C259.849 563.444 259.183 563.134 258.356 562.904C257.529 562.652 256.61 562.422 255.6 562.215C254.612 561.986 253.613 561.71 252.602 561.388C251.615 561.067 250.707 560.653 249.88 560.148C249.054 559.643 248.376 558.977 247.848 558.15C247.342 557.323 247.09 556.266 247.09 554.98C247.09 553.602 247.457 552.35 248.192 551.225C248.95 550.076 250.076 549.169 251.569 548.503C253.085 547.814 254.98 547.469 257.253 547.469C258.769 547.469 260.262 547.653 261.732 548.021C263.202 548.365 264.5 548.893 265.626 549.605L263.903 553.843C262.777 553.2 261.652 552.729 260.527 552.431C259.401 552.109 258.299 551.948 257.219 551.948C256.139 551.948 255.255 552.075 254.566 552.327C253.877 552.58 253.383 552.913 253.085 553.326C252.786 553.717 252.637 554.176 252.637 554.705C252.637 555.325 252.889 555.83 253.395 556.22C253.9 556.588 254.566 556.887 255.393 557.116C256.22 557.346 257.127 557.576 258.115 557.805C259.125 558.035 260.125 558.299 261.112 558.598C262.123 558.896 263.042 559.298 263.868 559.804C264.695 560.309 265.361 560.975 265.867 561.802C266.395 562.629 266.659 563.674 266.659 564.937C266.659 566.292 266.28 567.533 265.522 568.658C264.764 569.784 263.627 570.691 262.111 571.38C260.618 572.069 258.723 572.413 256.427 572.413ZM270.473 572V547.883H288.699V552.362H276.02V567.521H289.147V572H270.473ZM275.606 561.94V557.599H287.217V561.94H275.606ZM290.418 572L301.167 547.883H306.68L317.464 572H311.606L302.786 550.708H304.992L296.137 572H290.418ZM295.793 566.832L297.274 562.594H309.677L311.193 566.832H295.793ZM319.966 572V547.883H330.267C333.621 547.883 336.228 548.664 338.088 550.226C339.949 551.765 340.879 553.901 340.879 556.634C340.879 558.425 340.454 559.976 339.604 561.285C338.754 562.571 337.548 563.559 335.986 564.248C334.425 564.937 332.564 565.282 330.405 565.282H323.066L325.547 562.835V572H319.966ZM335.297 572L329.268 563.249H335.228L341.327 572H335.297ZM325.547 563.456L323.066 560.837H330.095C331.818 560.837 333.104 560.47 333.954 559.735C334.804 558.977 335.228 557.943 335.228 556.634C335.228 555.302 334.804 554.268 333.954 553.533C333.104 552.798 331.818 552.431 330.095 552.431H323.066L325.547 549.778V563.456ZM356.843 572.413C354.982 572.413 353.248 572.115 351.64 571.518C350.055 570.897 348.677 570.025 347.506 568.899C346.334 567.774 345.416 566.453 344.75 564.937C344.106 563.421 343.785 561.756 343.785 559.941C343.785 558.127 344.106 556.462 344.75 554.946C345.416 553.43 346.334 552.109 347.506 550.984C348.7 549.858 350.09 548.997 351.675 548.4C353.26 547.779 354.994 547.469 356.877 547.469C358.967 547.469 360.851 547.837 362.527 548.572C364.227 549.284 365.651 550.34 366.8 551.742L363.216 555.049C362.39 554.107 361.471 553.407 360.46 552.947C359.45 552.465 358.347 552.224 357.153 552.224C356.027 552.224 354.994 552.408 354.052 552.775C353.11 553.143 352.295 553.671 351.606 554.36C350.917 555.049 350.377 555.864 349.986 556.806C349.619 557.748 349.435 558.793 349.435 559.941C349.435 561.09 349.619 562.135 349.986 563.077C350.377 564.018 350.917 564.834 351.606 565.523C352.295 566.212 353.11 566.74 354.052 567.108C354.994 567.475 356.027 567.659 357.153 567.659C358.347 567.659 359.45 567.429 360.46 566.97C361.471 566.487 362.39 565.764 363.216 564.799L366.8 568.107C365.651 569.508 364.227 570.576 362.527 571.311C360.851 572.046 358.956 572.413 356.843 572.413ZM386.77 572V547.883H392.351V572H386.77ZM370.232 572V547.883H375.814V572H370.232ZM375.4 562.112V557.392H387.183V562.112H375.4ZM160.651 614.413L146.628 601.39C145.824 600.655 145.181 599.966 144.699 599.323C144.217 598.68 143.861 598.048 143.631 597.428C143.424 596.808 143.321 596.165 143.321 595.499C143.321 594.327 143.631 593.294 144.251 592.398C144.871 591.502 145.744 590.813 146.869 590.331C147.995 589.825 149.316 589.573 150.832 589.573C152.233 589.573 153.438 589.802 154.449 590.262C155.483 590.698 156.287 591.33 156.861 592.157C157.458 592.984 157.757 593.971 157.757 595.12C157.757 596.13 157.504 597.061 156.999 597.91C156.493 598.737 155.701 599.518 154.621 600.253C153.565 600.988 152.175 601.735 150.453 602.493C149.281 603.021 148.351 603.538 147.662 604.043C146.996 604.525 146.513 605.019 146.215 605.525C145.916 606.03 145.767 606.593 145.767 607.213C145.767 607.787 145.939 608.304 146.284 608.763C146.651 609.222 147.157 609.579 147.8 609.831C148.443 610.084 149.201 610.21 150.074 610.21C151.475 610.21 152.761 609.889 153.932 609.245C155.104 608.579 156.091 607.603 156.895 606.317C157.722 605.008 158.308 603.423 158.652 601.562L162.959 602.906C162.477 605.249 161.615 607.282 160.375 609.004C159.135 610.727 157.607 612.059 155.793 613.001C153.978 613.943 151.946 614.413 149.695 614.413C147.926 614.413 146.353 614.126 144.974 613.552C143.596 612.978 142.505 612.197 141.701 611.209C140.898 610.222 140.496 609.085 140.496 607.798C140.496 606.604 140.76 605.536 141.288 604.594C141.816 603.63 142.655 602.734 143.803 601.907C144.952 601.057 146.41 600.23 148.179 599.426C149.465 598.829 150.476 598.301 151.211 597.841C151.946 597.382 152.462 596.946 152.761 596.532C153.059 596.096 153.209 595.659 153.209 595.223C153.209 594.626 153.002 594.144 152.589 593.776C152.198 593.409 151.612 593.225 150.832 593.225C150.005 593.225 149.362 593.431 148.902 593.845C148.443 594.258 148.213 594.787 148.213 595.43C148.213 595.774 148.282 596.119 148.42 596.463C148.558 596.785 148.822 597.164 149.212 597.6C149.603 598.014 150.154 598.554 150.866 599.22L163.579 611.003L160.651 614.413ZM176.938 614V589.883H187.894C190.513 589.883 192.821 590.388 194.819 591.399C196.818 592.386 198.379 593.776 199.505 595.568C200.63 597.359 201.193 599.484 201.193 601.941C201.193 604.376 200.63 606.501 199.505 608.315C198.379 610.107 196.818 611.508 194.819 612.519C192.821 613.506 190.513 614 187.894 614H176.938ZM182.52 609.418H187.619C189.226 609.418 190.616 609.119 191.787 608.522C192.982 607.902 193.901 607.029 194.544 605.904C195.21 604.778 195.543 603.457 195.543 601.941C195.543 600.402 195.21 599.082 194.544 597.979C193.901 596.854 192.982 595.992 191.787 595.395C190.616 594.775 189.226 594.465 187.619 594.465H182.52V609.418ZM205.402 614V589.883H223.628V594.362H210.949V609.521H224.076V614H205.402ZM210.536 603.94V599.599H222.147V603.94H210.536ZM235.416 614L225.011 589.883H231.04L240.136 611.244H236.587L245.82 589.883H251.367L240.928 614H235.416ZM253.381 614V589.883H271.607V594.362H258.928V609.521H272.055V614H253.381ZM258.515 603.94V599.599H270.125V603.94H258.515ZM276.496 614V589.883H282.077V609.452H294.17V614H276.496ZM308.599 614.413C306.692 614.413 304.924 614.103 303.293 613.483C301.685 612.863 300.284 611.99 299.09 610.865C297.918 609.739 297 608.419 296.334 606.903C295.69 605.387 295.369 603.733 295.369 601.941C295.369 600.15 295.69 598.496 296.334 596.98C297 595.464 297.93 594.144 299.124 593.018C300.319 591.893 301.72 591.02 303.328 590.4C304.935 589.779 306.681 589.469 308.564 589.469C310.471 589.469 312.216 589.779 313.801 590.4C315.409 591.02 316.799 591.893 317.97 593.018C319.164 594.144 320.095 595.464 320.761 596.98C321.427 598.473 321.76 600.127 321.76 601.941C321.76 603.733 321.427 605.398 320.761 606.937C320.095 608.453 319.164 609.774 317.97 610.899C316.799 612.002 315.409 612.863 313.801 613.483C312.216 614.103 310.482 614.413 308.599 614.413ZM308.564 609.659C309.644 609.659 310.632 609.475 311.527 609.108C312.446 608.74 313.25 608.212 313.939 607.523C314.628 606.834 315.156 606.018 315.524 605.077C315.914 604.135 316.11 603.09 316.11 601.941C316.11 600.793 315.914 599.748 315.524 598.806C315.156 597.864 314.628 597.049 313.939 596.36C313.273 595.671 312.481 595.143 311.562 594.775C310.643 594.408 309.644 594.224 308.564 594.224C307.485 594.224 306.486 594.408 305.567 594.775C304.671 595.143 303.879 595.671 303.19 596.36C302.501 597.049 301.961 597.864 301.57 598.806C301.203 599.748 301.019 600.793 301.019 601.941C301.019 603.067 301.203 604.112 301.57 605.077C301.961 606.018 302.489 606.834 303.155 607.523C303.844 608.212 304.648 608.74 305.567 609.108C306.486 609.475 307.485 609.659 308.564 609.659ZM325.955 614V589.883H336.394C338.553 589.883 340.413 590.239 341.975 590.951C343.537 591.64 344.743 592.639 345.593 593.948C346.443 595.257 346.868 596.819 346.868 598.634C346.868 600.425 346.443 601.976 345.593 603.285C344.743 604.594 343.537 605.605 341.975 606.317C340.413 607.006 338.553 607.351 336.394 607.351H329.055L331.536 604.835V614H325.955ZM331.536 605.456L329.055 602.803H336.084C337.806 602.803 339.093 602.435 339.943 601.7C340.792 600.965 341.217 599.943 341.217 598.634C341.217 597.302 340.792 596.268 339.943 595.533C339.093 594.798 337.806 594.431 336.084 594.431H329.055L331.536 591.778V605.456ZM350.852 614V589.883H355.469L365.736 606.903H363.29L373.385 589.883H377.967L378.036 614H372.799L372.765 597.91H373.729L365.667 611.45H363.152L354.918 597.91H356.089V614H350.852ZM383.758 614V589.883H401.984V594.362H389.305V609.521H402.431V614H383.758ZM388.891 603.94V599.599H400.502V603.94H388.891ZM406.872 614V589.883H411.489L425.718 607.247H423.479V589.883H428.991V614H424.409L410.145 596.636H412.385V614H406.872ZM439.693 614V594.431H431.975V589.883H452.992V594.431H445.274V614H439.693Z" fill="white"/>
</g>
<path d="M59.1905 87.39C57.33 87.39 55.5959 87.0914 53.988 86.4942C52.4032 85.8741 51.0251 85.0012 49.8537 83.8758C48.6823 82.7503 47.7635 81.4296 47.0974 79.9137C46.4543 78.3977 46.1327 76.7325 46.1327 74.918C46.1327 73.1034 46.4543 71.4382 47.0974 69.9223C47.7635 68.4063 48.6823 67.0856 49.8537 65.9602C51.048 64.8347 52.4377 63.9734 54.0225 63.3762C55.6073 62.756 57.3415 62.4459 59.2249 62.4459C61.3151 62.4459 63.1985 62.8134 64.8752 63.5484C66.5749 64.2605 67.999 65.317 69.1474 66.7181L65.5643 70.0256C64.7374 69.0839 63.8187 68.3834 62.808 67.924C61.7974 67.4416 60.6949 67.2005 59.5005 67.2005C58.3751 67.2005 57.3415 67.3842 56.3998 67.7517C55.458 68.1192 54.6427 68.6475 53.9536 69.3366C53.2645 70.0256 52.7248 70.841 52.3343 71.7827C51.9668 72.7245 51.783 73.7695 51.783 74.918C51.783 76.0664 51.9668 77.1115 52.3343 78.0532C52.7248 78.9949 53.2645 79.8103 53.9536 80.4994C54.6427 81.1884 55.458 81.7167 56.3998 82.0842C57.3415 82.4517 58.3751 82.6355 59.5005 82.6355C60.6949 82.6355 61.7974 82.4058 62.808 81.9464C63.8187 81.4641 64.7374 80.7405 65.5643 79.7759L69.1474 83.0834C67.999 84.4845 66.5749 85.5525 64.8752 86.2875C63.1985 87.0225 61.3036 87.39 59.1905 87.39ZM83.2175 87.39C81.3111 87.39 79.5425 87.0799 77.9117 86.4598C76.3039 85.8396 74.9028 84.9668 73.7084 83.8413C72.537 82.7159 71.6183 81.3952 70.9522 79.8792C70.309 78.3633 69.9875 76.7095 69.9875 74.918C69.9875 73.1264 70.309 71.4727 70.9522 69.9567C71.6183 68.4408 72.5485 67.1201 73.7429 65.9946C74.9373 64.8691 76.3383 63.9963 77.9462 63.3762C79.554 62.756 81.2996 62.4459 83.183 62.4459C85.0894 62.4459 86.8351 62.756 88.4199 63.3762C90.0277 63.9963 91.4173 64.8691 92.5887 65.9946C93.7831 67.1201 94.7133 68.4408 95.3794 69.9567C96.0455 71.4497 96.3786 73.1034 96.3786 74.918C96.3786 76.7095 96.0455 78.3748 95.3794 79.9137C94.7133 81.4296 93.7831 82.7503 92.5887 83.8758C91.4173 84.9783 90.0277 85.8396 88.4199 86.4598C86.8351 87.0799 85.1009 87.39 83.2175 87.39ZM83.183 82.6355C84.2626 82.6355 85.2502 82.4517 86.146 82.0842C87.0648 81.7167 87.8687 81.1884 88.5577 80.4994C89.2468 79.8103 89.7751 78.9949 90.1426 78.0532C90.533 77.1115 90.7283 76.0664 90.7283 74.918C90.7283 73.7695 90.533 72.7245 90.1426 71.7827C89.7751 70.841 89.2468 70.0256 88.5577 69.3366C87.8916 68.6475 87.0992 68.1192 86.1805 67.7517C85.2617 67.3842 84.2626 67.2005 83.183 67.2005C82.1035 67.2005 81.1044 67.3842 80.1856 67.7517C79.2898 68.1192 78.4974 68.6475 77.8083 69.3366C77.1193 70.0256 76.5795 70.841 76.189 71.7827C75.8215 72.7245 75.6378 73.7695 75.6378 74.918C75.6378 76.0434 75.8215 77.0885 76.189 78.0532C76.5795 78.9949 77.1078 79.8103 77.7739 80.4994C78.463 81.1884 79.2669 81.7167 80.1856 82.0842C81.1044 82.4517 82.1035 82.6355 83.183 82.6355ZM100.573 86.9766V62.8594H105.19L115.457 79.8792H113.011L123.106 62.8594H127.688L127.757 86.9766H122.52L122.485 70.887H123.45L115.388 84.427H112.873L104.639 70.887H105.81V86.9766H100.573ZM133.479 86.9766V62.8594H138.095L148.362 79.8792H145.916L156.011 62.8594H160.593L160.662 86.9766H155.425L155.391 70.887H156.356L148.294 84.427H145.778L137.544 70.887H138.716V86.9766H133.479ZM166.384 86.9766V62.8594H171.966V86.9766H166.384ZM185.613 87.39C183.684 87.39 181.835 87.1373 180.066 86.632C178.298 86.1037 176.874 85.4262 175.794 84.5993L177.689 80.396C178.723 81.131 179.94 81.7397 181.341 82.222C182.765 82.6814 184.201 82.9111 185.648 82.9111C186.75 82.9111 187.635 82.8077 188.301 82.601C188.99 82.3713 189.495 82.0612 189.817 81.6708C190.138 81.2803 190.299 80.8324 190.299 80.3271C190.299 79.684 190.046 79.1787 189.541 78.8112C189.036 78.4207 188.37 78.1106 187.543 77.8809C186.716 77.6283 185.797 77.3986 184.786 77.1919C183.799 76.9622 182.8 76.6866 181.789 76.365C180.801 76.0434 179.894 75.63 179.067 75.1247C178.24 74.6194 177.563 73.9533 177.034 73.1264C176.529 72.2995 176.276 71.243 176.276 69.9567C176.276 68.5786 176.644 67.3268 177.379 66.2013C178.137 65.0529 179.262 64.1456 180.755 63.4795C182.271 62.7905 184.166 62.4459 186.44 62.4459C187.956 62.4459 189.449 62.6297 190.919 62.9972C192.389 63.3417 193.687 63.87 194.812 64.582L193.09 68.8198C191.964 68.1766 190.839 67.7058 189.713 67.4072C188.588 67.0856 187.485 66.9248 186.406 66.9248C185.326 66.9248 184.442 67.0512 183.753 67.3038C183.064 67.5565 182.57 67.8895 182.271 68.303C181.973 68.6934 181.823 69.1528 181.823 69.6811C181.823 70.3012 182.076 70.8066 182.581 71.197C183.087 71.5645 183.753 71.8631 184.58 72.0928C185.407 72.3225 186.314 72.5522 187.301 72.7819C188.312 73.0116 189.311 73.2757 190.299 73.5743C191.31 73.8729 192.228 74.2748 193.055 74.7802C193.882 75.2855 194.548 75.9516 195.053 76.7784C195.582 77.6053 195.846 78.6504 195.846 79.9137C195.846 81.2688 195.467 82.5091 194.709 83.6346C193.951 84.7601 192.814 85.6673 191.298 86.3564C189.805 87.0455 187.91 87.39 185.613 87.39ZM207.584 87.39C205.654 87.39 203.805 87.1373 202.037 86.632C200.268 86.1037 198.844 85.4262 197.765 84.5993L199.66 80.396C200.693 81.131 201.911 81.7397 203.312 82.222C204.736 82.6814 206.171 82.9111 207.618 82.9111C208.721 82.9111 209.605 82.8077 210.271 82.601C210.96 82.3713 211.466 82.0612 211.787 81.6708C212.109 81.2803 212.269 80.8324 212.269 80.3271C212.269 79.684 212.017 79.1787 211.512 78.8112C211.006 78.4207 210.34 78.1106 209.513 77.8809C208.686 77.6283 207.768 77.3986 206.757 77.1919C205.769 76.9622 204.77 76.6866 203.76 76.365C202.772 76.0434 201.865 75.63 201.038 75.1247C200.211 74.6194 199.533 73.9533 199.005 73.1264C198.5 72.2995 198.247 71.243 198.247 69.9567C198.247 68.5786 198.615 67.3268 199.35 66.2013C200.108 65.0529 201.233 64.1456 202.726 63.4795C204.242 62.7905 206.137 62.4459 208.411 62.4459C209.927 62.4459 211.42 62.6297 212.89 62.9972C214.36 63.3417 215.657 63.87 216.783 64.582L215.06 68.8198C213.935 68.1766 212.809 67.7058 211.684 67.4072C210.558 67.0856 209.456 66.9248 208.376 66.9248C207.297 66.9248 206.412 67.0512 205.723 67.3038C205.034 67.5565 204.54 67.8895 204.242 68.303C203.943 68.6934 203.794 69.1528 203.794 69.6811C203.794 70.3012 204.047 70.8066 204.552 71.197C205.057 71.5645 205.723 71.8631 206.55 72.0928C207.377 72.3225 208.284 72.5522 209.272 72.7819C210.283 73.0116 211.282 73.2757 212.269 73.5743C213.28 73.8729 214.199 74.2748 215.026 74.7802C215.853 75.2855 216.519 75.9516 217.024 76.7784C217.552 77.6053 217.816 78.6504 217.816 79.9137C217.816 81.2688 217.437 82.5091 216.679 83.6346C215.922 84.7601 214.785 85.6673 213.269 86.3564C211.776 87.0455 209.881 87.39 207.584 87.39ZM221.63 86.9766V62.8594H227.212V86.9766H221.63ZM244.649 87.39C242.743 87.39 240.974 87.0799 239.343 86.4598C237.736 85.8396 236.335 84.9668 235.14 83.8413C233.969 82.7159 233.05 81.3952 232.384 79.8792C231.741 78.3633 231.419 76.7095 231.419 74.918C231.419 73.1264 231.741 71.4727 232.384 69.9567C233.05 68.4408 233.98 67.1201 235.175 65.9946C236.369 64.8691 237.77 63.9963 239.378 63.3762C240.986 62.756 242.731 62.4459 244.615 62.4459C246.521 62.4459 248.267 62.756 249.852 63.3762C251.459 63.9963 252.849 64.8691 254.02 65.9946C255.215 67.1201 256.145 68.4408 256.811 69.9567C257.477 71.4497 257.81 73.1034 257.81 74.918C257.81 76.7095 257.477 78.3748 256.811 79.9137C256.145 81.4296 255.215 82.7503 254.02 83.8758C252.849 84.9783 251.459 85.8396 249.852 86.4598C248.267 87.0799 246.533 87.39 244.649 87.39ZM244.615 82.6355C245.694 82.6355 246.682 82.4517 247.578 82.0842C248.496 81.7167 249.3 81.1884 249.989 80.4994C250.679 79.8103 251.207 78.9949 251.574 78.0532C251.965 77.1115 252.16 76.0664 252.16 74.918C252.16 73.7695 251.965 72.7245 251.574 71.7827C251.207 70.841 250.679 70.0256 249.989 69.3366C249.323 68.6475 248.531 68.1192 247.612 67.7517C246.693 67.3842 245.694 67.2005 244.615 67.2005C243.535 67.2005 242.536 67.3842 241.617 67.7517C240.722 68.1192 239.929 68.6475 239.24 69.3366C238.551 70.0256 238.011 70.841 237.621 71.7827C237.253 72.7245 237.07 73.7695 237.07 74.918C237.07 76.0434 237.253 77.0885 237.621 78.0532C238.011 78.9949 238.54 79.8103 239.206 80.4994C239.895 81.1884 240.699 81.7167 241.617 82.0842C242.536 82.4517 243.535 82.6355 244.615 82.6355ZM262.005 86.9766V62.8594H266.622L280.851 80.2237H278.611V62.8594H284.124V86.9766H279.542L265.278 69.6122H267.517V86.9766H262.005ZM305.892 87.39C304.215 87.39 302.55 87.1718 300.896 86.7354C299.243 86.276 297.842 85.6329 296.693 84.806L298.864 80.5338C299.782 81.1999 300.85 81.7282 302.068 82.1187C303.285 82.5091 304.514 82.7044 305.754 82.7044C307.155 82.7044 308.258 82.4287 309.062 81.8775C309.866 81.3262 310.268 80.5683 310.268 79.6036C310.268 78.6848 309.912 77.9613 309.2 77.433C308.488 76.9048 307.339 76.6406 305.754 76.6406H303.205V72.9541L309.923 65.34L310.543 67.3383H297.899V62.8594H314.781V66.477L308.097 74.0911L305.272 72.4718H306.891C309.854 72.4718 312.094 73.1379 313.61 74.4701C315.126 75.8023 315.883 77.5134 315.883 79.6036C315.883 80.9587 315.527 82.2335 314.815 83.4279C314.103 84.5993 313.012 85.5525 311.542 86.2875C310.072 87.0225 308.189 87.39 305.892 87.39Z" fill="white"/>
<g filter="url(#filter1_i_254_252)">
<path fill-rule="evenodd" clip-rule="evenodd" d="M467.279 424.436C462.836 414.175 457.732 403.04 445.969 403.04H435.314C445.315 403.04 454.739 397 456.624 385.5L442.199 372.1C399.647 404.982 339.911 393.123 314.231 381.645C200.841 327.406 242.237 199.738 281.609 178.342H158.276C146.513 178.342 136.966 187.921 136.966 199.738V381.645C136.966 393.461 146.513 403.04 158.276 403.04H147.621C135.858 403.04 129.859 413.738 126.311 424.436L105 476.594C105 488.421 114.547 498 126.311 498H467.279C479.043 498 488.59 488.421 488.59 476.604L467.279 424.436Z" fill="#A68CD3"/>
</g>
<g filter="url(#filter2_i_254_252)">
<path d="M105.085 477.488L105.149 478.096L106.96 485.469C108.644 489.193 111.364 492.355 114.795 494.577C118.225 496.798 122.223 497.987 126.31 498H467.279C472.781 497.982 478.062 495.837 482.018 492.014C485.974 488.191 488.298 482.986 488.504 477.488H105.085Z" fill="#BA75DF"/>
</g>
<g filter="url(#filter3_i_254_252)">
<path fill-rule="evenodd" clip-rule="evenodd" d="M260.798 199.749C236.613 234.587 215.802 333.578 313.668 381.634H168.932C163.05 381.634 158.276 376.85 158.276 370.936V210.446C158.276 204.533 163.05 199.749 168.932 199.749H260.798Z" fill="#F6FFFF"/>
</g>
<g filter="url(#filter4_i_254_252)">
<path d="M455.623 445.172L447.525 421.997C444.979 417.095 440.759 413.078 434.867 413.078H159.449C153.568 413.078 149.796 417.425 147.132 424.117L139.801 445.182C137.467 451.533 144.574 455.88 150.456 455.88H231.202C231.202 455.88 241.186 455.38 242.955 449.402C245 442.497 247.377 432.098 247.888 430.265C248.677 427.452 252.022 424.607 257.009 424.607H348.41C353.738 424.607 356.359 427.303 357.051 430.638C357.499 432.812 360.376 442.796 361.718 449.626C362.901 455.71 374.728 455.87 374.728 455.87H444.989C450.86 455.87 457.957 450.851 455.623 445.172Z" fill="#BA75DF"/>
</g>
<g filter="url(#filter5_i_254_252)">
<path d="M343.412 467.238H260.503C256.507 467.238 254.77 463.583 255.346 460.045C255.921 456.518 259.171 440.94 259.427 439.129C259.672 437.307 262.346 435.133 265.01 435.133H339.757C342.921 435.133 344.978 436.87 345.617 440.344C346.246 443.828 348.835 457.829 349.038 461.026C349.24 464.222 347.237 467.238 343.412 467.238Z" fill="#8646C4"/>
</g>
<g filter="url(#filter6_i_254_252)">
<path d="M361.635 155.896C378.31 155.115 404.74 158 420.239 169.5C413.74 173 396.302 176.794 395.24 185.933C383.24 181.5 360.469 180.698 342.58 185.933C324.691 191.169 308.964 202.027 297.73 216.901C286.495 231.774 280.351 249.871 280.207 268.51C280.063 287.149 285.927 305.338 296.93 320.383C307.933 335.428 323.49 346.529 341.297 352.04C359.103 357.551 378.21 357.18 395.789 350.981C413.367 344.782 428.481 333.085 438.892 317.624C449.302 302.162 454.455 283.759 453.586 265.139L453.352 261.557C460.796 267.62 475.24 268 481.24 263C479.24 294.5 472.748 316.318 459.232 335.17L510.193 381.569C512.738 383.969 514.24 387.274 514.373 390.77C514.507 394.266 513.261 397.675 510.906 400.263C508.55 402.85 505.272 404.408 501.779 404.602C498.285 404.797 494.855 403.611 492.227 401.3L441.267 354.901C427.601 366.749 411.3 375.156 393.724 379.423C376.148 383.69 357.807 383.691 340.23 379.428C322.653 375.165 306.35 366.76 292.682 354.915C279.014 343.07 268.377 328.129 261.657 311.337C254.938 294.545 252.332 276.389 254.056 258.385C255.78 240.381 261.784 223.05 271.568 207.839C281.352 192.627 294.632 179.976 310.3 170.94C325.967 161.904 343.569 156.746 361.635 155.896Z" fill="#BA75DF"/>
<path d="M363.509 195.885C375.865 195.306 380.24 195 392.74 198C394.515 204.669 395.24 208.5 399.74 213.5C403.24 219 417.24 223 422.239 224.5C427.239 226 432.239 233.5 432.239 233.5C440.3 247.344 441.762 262.213 439.816 278.115C437.869 294.016 430.774 308.844 419.612 320.335C408.45 331.826 393.834 339.35 377.996 341.758C362.158 344.165 345.967 341.325 331.895 333.67C317.822 326.015 306.64 313.965 300.057 299.361C293.473 284.756 291.848 268.398 295.431 252.784C299.013 237.17 307.606 223.157 319.898 212.883C332.19 202.609 347.506 196.64 363.509 195.885Z" fill="#F6FFFF"/>
</g>
<g filter="url(#filter7_i_254_252)">
<path d="M461.784 132.949C464.729 132.812 467.653 133.502 470.224 134.942C472.795 136.381 474.911 138.513 476.33 141.095L477.172 142.899L479.496 148.748C481.952 154.973 485.703 160.604 490.5 165.271C495.298 169.937 501.033 173.531 507.326 175.816L510.289 176.781L516.333 178.531C519.326 179.397 521.995 181.131 524.002 183.513C526.009 185.895 527.264 188.819 527.608 191.914C527.952 195.008 527.37 198.136 525.936 200.901C524.501 203.665 522.279 205.943 519.549 207.445L517.727 208.287L511.874 210.61C505.645 213.064 500.009 216.813 495.339 221.608C490.67 226.402 487.072 232.134 484.786 238.422L483.82 241.383L482.068 247.423C481.2 250.414 479.463 253.08 477.078 255.084C474.693 257.088 471.767 258.34 468.67 258.683C465.573 259.025 462.444 258.442 459.678 257.008C456.913 255.573 454.635 253.351 453.133 250.623L452.292 248.819L449.967 242.969C447.511 236.745 443.76 231.114 438.963 226.447C434.165 221.781 428.43 218.186 422.137 215.902L419.174 214.937L413.13 213.187C410.137 212.321 407.468 210.587 405.461 208.205C403.454 205.823 402.199 202.899 401.855 199.804C401.511 196.709 402.093 193.582 403.527 190.817C404.962 188.053 407.185 185.775 409.914 184.273L411.736 183.431L417.589 181.108C423.818 178.653 429.454 174.905 434.124 170.11C438.794 165.315 442.391 159.584 444.678 153.296L445.643 150.334L447.395 144.294C448.31 141.14 450.189 138.35 452.769 136.316C455.349 134.282 458.501 133.105 461.784 132.949Z" fill="#8646C4"/>
</g>
<defs>
<filter id="filter0_d_254_252" x="140.495" y="547.469" width="312.497" height="70.3896" filterUnits="userSpaceOnUse" color-interpolation-filters="sRGB">
<feFlood flood-opacity="0" result="BackgroundImageFix"/>
<feColorMatrix in="SourceAlpha" type="matrix" values="0 0 0 0 0 0 0 0 0 0 0 0 0 0 0 0 0 0 127 0" result="hardAlpha"/>
<feOffset dy="3.44531"/>
<feComposite in2="hardAlpha" operator="out"/>
<feColorMatrix type="matrix" values="0 0 0 0 0.666536 0 0 0 0 0.211765 0 0 0 0 0.768627 0 0 0 1 0"/>
<feBlend mode="normal" in2="BackgroundImageFix" result="effect1_dropShadow_254_252"/>
<feBlend mode="normal" in="SourceGraphic" in2="effect1_dropShadow_254_252" result="shape"/>
</filter>
<filter id="filter1_i_254_252" x="105" y="178.342" width="386.59" height="322.658" filterUnits="userSpaceOnUse" color-interpolation-filters="sRGB">
<feFlood flood-opacity="0" result="BackgroundImageFix"/>
<feBlend mode="normal" in="SourceGraphic" in2="BackgroundImageFix" result="shape"/>
<feColorMatrix in="SourceAlpha" type="matrix" values="0 0 0 0 0 0 0 0 0 0 0 0 0 0 0 0 0 0 127 0" result="hardAlpha"/>
<feOffset dx="3" dy="3"/>
<feGaussianBlur stdDeviation="5"/>
<feComposite in2="hardAlpha" operator="arithmetic" k2="-1" k3="1"/>
<feColorMatrix type="matrix" values="0 0 0 0 0 0 0 0 0 0 0 0 0 0 0 0 0 0 0.25 0"/>
<feBlend mode="normal" in2="shape" result="effect1_innerShadow_254_252"/>
</filter>
<filter id="filter2_i_254_252" x="105.085" y="477.488" width="386.42" height="23.5112" filterUnits="userSpaceOnUse" color-interpolation-filters="sRGB">
<feFlood flood-opacity="0" result="BackgroundImageFix"/>
<feBlend mode="normal" in="SourceGraphic" in2="BackgroundImageFix" result="shape"/>
<feColorMatrix in="SourceAlpha" type="matrix" values="0 0 0 0 0 0 0 0 0 0 0 0 0 0 0 0 0 0 127 0" result="hardAlpha"/>
<feOffset dx="3" dy="3"/>
<feGaussianBlur stdDeviation="5"/>
<feComposite in2="hardAlpha" operator="arithmetic" k2="-1" k3="1"/>
<feColorMatrix type="matrix" values="0 0 0 0 0 0 0 0 0 0 0 0 0 0 0 0 0 0 0.2 0"/>
<feBlend mode="normal" in2="shape" result="effect1_innerShadow_254_252"/>
</filter>
<filter id="filter3_i_254_252" x="158.276" y="199.749" width="280.037" height="184.886" filterUnits="userSpaceOnUse" color-interpolation-filters="sRGB">
<feFlood flood-opacity="0" result="BackgroundImageFix"/>
<feBlend mode="normal" in="SourceGraphic" in2="BackgroundImageFix" result="shape"/>
<feColorMatrix in="SourceAlpha" type="matrix" values="0 0 0 0 0 0 0 0 0 0 0 0 0 0 0 0 0 0 127 0" result="hardAlpha"/>
<feOffset dx="3" dy="3"/>
<feGaussianBlur stdDeviation="5"/>
<feComposite in2="hardAlpha" operator="arithmetic" k2="-1" k3="1"/>
<feColorMatrix type="matrix" values="0 0 0 0 0 0 0 0 0 0 0 0 0 0 0 0 0 0 0.15 0"/>
<feBlend mode="normal" in2="shape" result="effect1_innerShadow_254_252"/>
</filter>
<filter id="filter4_i_254_252" x="139.346" y="413.078" width="319.733" height="45.8022" filterUnits="userSpaceOnUse" color-interpolation-filters="sRGB">
<feFlood flood-opacity="0" result="BackgroundImageFix"/>
<feBlend mode="normal" in="SourceGraphic" in2="BackgroundImageFix" result="shape"/>
<feColorMatrix in="SourceAlpha" type="matrix" values="0 0 0 0 0 0 0 0 0 0 0 0 0 0 0 0 0 0 127 0" result="hardAlpha"/>
<feOffset dx="3" dy="3"/>
<feGaussianBlur stdDeviation="5"/>
<feComposite in2="hardAlpha" operator="arithmetic" k2="-1" k3="1"/>
<feColorMatrix type="matrix" values="0 0 0 0 0 0 0 0 0 0 0 0 0 0 0 0 0 0 0.2 0"/>
<feBlend mode="normal" in2="shape" result="effect1_innerShadow_254_252"/>
</filter>
<filter id="filter5_i_254_252" x="255.238" y="435.133" width="96.8135" height="35.1045" filterUnits="userSpaceOnUse" color-interpolation-filters="sRGB">
<feFlood flood-opacity="0" result="BackgroundImageFix"/>
<feBlend mode="normal" in="SourceGraphic" in2="BackgroundImageFix" result="shape"/>
<feColorMatrix in="SourceAlpha" type="matrix" values="0 0 0 0 0 0 0 0 0 0 0 0 0 0 0 0 0 0 127 0" result="hardAlpha"/>
<feOffset dx="3" dy="3"/>
<feGaussianBlur stdDeviation="5"/>
<feComposite in2="hardAlpha" operator="arithmetic" k2="-1" k3="1"/>
<feColorMatrix type="matrix" values="0 0 0 0 0 0 0 0 0 0 0 0 0 0 0 0 0 0 0.2 0"/>
<feBlend mode="normal" in2="shape" result="effect1_innerShadow_254_252"/>
</filter>
<filter id="filter6_i_254_252" x="253.539" y="155.776" width="263.844" height="251.847" filterUnits="userSpaceOnUse" color-interpolation-filters="sRGB">
<feFlood flood-opacity="0" result="BackgroundImageFix"/>
<feBlend mode="normal" in="SourceGraphic" in2="BackgroundImageFix" result="shape"/>
<feColorMatrix in="SourceAlpha" type="matrix" values="0 0 0 0 0 0 0 0 0 0 0 0 0 0 0 0 0 0 127 0" result="hardAlpha"/>
<feOffset dx="3" dy="3"/>
<feGaussianBlur stdDeviation="5"/>
<feComposite in2="hardAlpha" operator="arithmetic" k2="-1" k3="1"/>
<feColorMatrix type="matrix" values="0 0 0 0 0 0 0 0 0 0 0 0 0 0 0 0 0 0 0.2 0"/>
<feBlend mode="normal" in2="shape" result="effect1_innerShadow_254_252"/>
</filter>
<filter id="filter7_i_254_252" x="401.759" y="132.932" width="127.945" height="128.846" filterUnits="userSpaceOnUse" color-interpolation-filters="sRGB">
<feFlood flood-opacity="0" result="BackgroundImageFix"/>
<feBlend mode="normal" in="SourceGraphic" in2="BackgroundImageFix" result="shape"/>
<feColorMatrix in="SourceAlpha" type="matrix" values="0 0 0 0 0 0 0 0 0 0 0 0 0 0 0 0 0 0 127 0" result="hardAlpha"/>
<feOffset dx="2" dy="3"/>
<feGaussianBlur stdDeviation="5"/>
<feComposite in2="hardAlpha" operator="arithmetic" k2="-1" k3="1"/>
<feColorMatrix type="matrix" values="0 0 0 0 0 0 0 0 0 0 0 0 0 0 0 0 0 0 0.2 0"/>
<feBlend mode="normal" in2="shape" result="effect1_innerShadow_254_252"/>
</filter>
</defs>
</svg>
