<svg width="588" height="651" viewBox="0 0 588 651" fill="none" xmlns="http://www.w3.org/2000/svg">
<g filter="url(#filter0_d_254_118)">
<path d="M174.297 572V547.883H184.736C186.895 547.883 188.756 548.239 190.318 548.951C191.88 549.64 193.085 550.639 193.935 551.948C194.785 553.257 195.21 554.819 195.21 556.634C195.21 558.425 194.785 559.976 193.935 561.285C193.085 562.594 191.88 563.605 190.318 564.317C188.756 565.006 186.895 565.351 184.736 565.351H177.398L179.878 562.835V572H174.297ZM179.878 563.456L177.398 560.803H184.426C186.149 560.803 187.435 560.435 188.285 559.7C189.135 558.965 189.56 557.943 189.56 556.634C189.56 555.302 189.135 554.268 188.285 553.533C187.435 552.798 186.149 552.431 184.426 552.431H177.398L179.878 549.778V563.456ZM209.809 572.413C206.386 572.413 203.71 571.46 201.781 569.554C199.852 567.647 198.887 564.926 198.887 561.388V547.883H204.468V561.182C204.468 563.479 204.939 565.132 205.881 566.143C206.823 567.154 208.143 567.659 209.843 567.659C211.543 567.659 212.864 567.154 213.805 566.143C214.747 565.132 215.218 563.479 215.218 561.182V547.883H220.73V561.388C220.73 564.926 219.766 567.647 217.836 569.554C215.907 571.46 213.231 572.413 209.809 572.413ZM226.246 572V547.883H238.029C241.061 547.883 243.335 548.457 244.85 549.605C246.389 550.754 247.159 552.27 247.159 554.153C247.159 555.417 246.849 556.519 246.229 557.461C245.608 558.38 244.759 559.092 243.679 559.597C242.6 560.102 241.359 560.355 239.958 560.355L240.613 558.942C242.129 558.942 243.472 559.195 244.644 559.7C245.815 560.183 246.722 560.906 247.366 561.871C248.032 562.835 248.365 564.018 248.365 565.419C248.365 567.487 247.549 569.106 245.919 570.277C244.288 571.426 241.887 572 238.718 572H226.246ZM231.793 567.797H238.304C239.751 567.797 240.842 567.567 241.577 567.108C242.335 566.625 242.714 565.867 242.714 564.834C242.714 563.823 242.335 563.077 241.577 562.594C240.842 562.089 239.751 561.836 238.304 561.836H231.379V557.771H237.34C238.695 557.771 239.728 557.541 240.44 557.082C241.175 556.599 241.543 555.876 241.543 554.911C241.543 553.97 241.175 553.269 240.44 552.81C239.728 552.327 238.695 552.086 237.34 552.086H231.793V567.797ZM252.59 572V547.883H258.172V567.452H270.265V572H252.59ZM273.383 572V547.883H278.965V572H273.383ZM296.23 572.413C294.37 572.413 292.635 572.115 291.028 571.518C289.443 570.897 288.065 570.025 286.893 568.899C285.722 567.774 284.803 566.453 284.137 564.937C283.494 563.421 283.172 561.756 283.172 559.941C283.172 558.127 283.494 556.462 284.137 554.946C284.803 553.43 285.722 552.109 286.893 550.984C288.088 549.858 289.477 548.997 291.062 548.4C292.647 547.779 294.381 547.469 296.264 547.469C298.355 547.469 300.238 547.837 301.915 548.572C303.614 549.284 305.039 550.34 306.187 551.742L302.604 555.049C301.777 554.107 300.858 553.407 299.848 552.947C298.837 552.465 297.734 552.224 296.54 552.224C295.415 552.224 294.381 552.408 293.439 552.775C292.498 553.143 291.682 553.671 290.993 554.36C290.304 555.049 289.764 555.864 289.374 556.806C289.006 557.748 288.823 558.793 288.823 559.941C288.823 561.09 289.006 562.135 289.374 563.077C289.764 564.018 290.304 564.834 290.993 565.523C291.682 566.212 292.498 566.74 293.439 567.108C294.381 567.475 295.415 567.659 296.54 567.659C297.734 567.659 298.837 567.429 299.848 566.97C300.858 566.487 301.777 565.764 302.604 564.799L306.187 568.107C305.039 569.508 303.614 570.576 301.915 571.311C300.238 572.046 298.343 572.413 296.23 572.413ZM305.979 572L316.728 547.883H322.241L333.025 572H327.168L318.348 550.708H320.553L311.698 572H305.979ZM311.354 566.832L312.835 562.594H325.238L326.754 566.832H311.354ZM339.311 572V552.431H331.594V547.883H352.61V552.431H344.893V572H339.311ZM355.613 572V547.883H361.195V572H355.613ZM378.632 572.413C376.726 572.413 374.957 572.103 373.326 571.483C371.719 570.863 370.318 569.99 369.123 568.865C367.952 567.739 367.033 566.419 366.367 564.903C365.724 563.387 365.402 561.733 365.402 559.941C365.402 558.15 365.724 556.496 366.367 554.98C367.033 553.464 367.963 552.144 369.158 551.018C370.352 549.893 371.753 549.02 373.361 548.4C374.969 547.779 376.714 547.469 378.598 547.469C380.504 547.469 382.25 547.779 383.835 548.4C385.442 549.02 386.832 549.893 388.003 551.018C389.198 552.144 390.128 553.464 390.794 554.98C391.46 556.473 391.793 558.127 391.793 559.941C391.793 561.733 391.46 563.398 390.794 564.937C390.128 566.453 389.198 567.774 388.003 568.899C386.832 570.002 385.442 570.863 383.835 571.483C382.25 572.103 380.516 572.413 378.632 572.413ZM378.598 567.659C379.677 567.659 380.665 567.475 381.561 567.108C382.479 566.74 383.283 566.212 383.972 565.523C384.662 564.834 385.19 564.018 385.557 563.077C385.948 562.135 386.143 561.09 386.143 559.941C386.143 558.793 385.948 557.748 385.557 556.806C385.19 555.864 384.662 555.049 383.972 554.36C383.306 553.671 382.514 553.143 381.595 552.775C380.676 552.408 379.677 552.224 378.598 552.224C377.518 552.224 376.519 552.408 375.6 552.775C374.705 553.143 373.912 553.671 373.223 554.36C372.534 555.049 371.994 555.864 371.604 556.806C371.236 557.748 371.053 558.793 371.053 559.941C371.053 561.067 371.236 562.112 371.604 563.077C371.994 564.018 372.523 564.834 373.189 565.523C373.878 566.212 374.682 566.74 375.6 567.108C376.519 567.475 377.518 567.659 378.598 567.659ZM395.988 572V547.883H400.605L414.834 565.247H412.594V547.883H418.107V572H413.525L399.261 554.636H401.5V572H395.988ZM190.057 614.413L176.035 601.39C175.231 600.655 174.587 599.966 174.105 599.323C173.623 598.68 173.267 598.048 173.037 597.428C172.83 596.808 172.727 596.165 172.727 595.499C172.727 594.327 173.037 593.294 173.657 592.398C174.277 591.502 175.15 590.813 176.276 590.331C177.401 589.825 178.722 589.573 180.238 589.573C181.639 589.573 182.845 589.802 183.855 590.262C184.889 590.698 185.693 591.33 186.267 592.157C186.864 592.984 187.163 593.971 187.163 595.12C187.163 596.13 186.91 597.061 186.405 597.91C185.9 598.737 185.107 599.518 184.028 600.253C182.971 600.988 181.581 601.735 179.859 602.493C178.687 603.021 177.757 603.538 177.068 604.043C176.402 604.525 175.92 605.019 175.621 605.525C175.322 606.03 175.173 606.593 175.173 607.213C175.173 607.787 175.345 608.304 175.69 608.763C176.057 609.222 176.563 609.579 177.206 609.831C177.849 610.084 178.607 610.21 179.48 610.21C180.881 610.21 182.167 609.889 183.339 609.245C184.51 608.579 185.498 607.603 186.302 606.317C187.128 605.008 187.714 603.423 188.059 601.562L192.365 602.906C191.883 605.249 191.022 607.282 189.781 609.004C188.541 610.727 187.014 612.059 185.199 613.001C183.385 613.943 181.352 614.413 179.101 614.413C177.332 614.413 175.759 614.126 174.381 613.552C173.003 612.978 171.912 612.197 171.108 611.209C170.304 610.222 169.902 609.085 169.902 607.798C169.902 606.604 170.166 605.536 170.694 604.594C171.223 603.63 172.061 602.734 173.209 601.907C174.358 601.057 175.816 600.23 177.585 599.426C178.871 598.829 179.882 598.301 180.617 597.841C181.352 597.382 181.869 596.946 182.167 596.532C182.466 596.096 182.615 595.659 182.615 595.223C182.615 594.626 182.408 594.144 181.995 593.776C181.604 593.409 181.019 593.225 180.238 593.225C179.411 593.225 178.768 593.431 178.308 593.845C177.849 594.258 177.619 594.787 177.619 595.43C177.619 595.774 177.688 596.119 177.826 596.463C177.964 596.785 178.228 597.164 178.619 597.6C179.009 598.014 179.56 598.554 180.272 599.22L192.985 611.003L190.057 614.413ZM206.344 614V589.883H210.961L221.228 606.903H218.782L228.877 589.883H233.459L233.528 614H228.291L228.257 597.91H229.221L221.159 611.45H218.644L210.41 597.91H211.581V614H206.344ZM236.08 614L246.83 589.883H252.342L263.126 614H257.269L248.449 592.708H250.654L241.799 614H236.08ZM241.455 608.832L242.936 604.594H255.339L256.855 608.832H241.455ZM265.628 614V589.883H275.929C279.283 589.883 281.89 590.664 283.75 592.226C285.611 593.765 286.541 595.901 286.541 598.634C286.541 600.425 286.116 601.976 285.266 603.285C284.416 604.571 283.211 605.559 281.649 606.248C280.087 606.937 278.226 607.282 276.067 607.282H268.729L271.209 604.835V614H265.628ZM280.96 614L274.93 605.249H280.891L286.989 614H280.96ZM271.209 605.456L268.729 602.837H275.757C277.48 602.837 278.766 602.47 279.616 601.735C280.466 600.977 280.891 599.943 280.891 598.634C280.891 597.302 280.466 596.268 279.616 595.533C278.766 594.798 277.48 594.431 275.757 594.431H268.729L271.209 591.778V605.456ZM295.959 608.487L295.649 602.045L307.191 589.883H313.392L302.987 601.08L299.887 604.388L295.959 608.487ZM290.963 614V589.883H296.51V614H290.963ZM307.466 614L298.887 603.492L302.539 599.53L313.978 614H307.466ZM316.467 614V589.883H334.692V594.362H322.013V609.521H335.14V614H316.467ZM321.6 603.94V599.599H333.211V603.94H321.6ZM344.577 614V594.431H336.859V589.883H357.876V594.431H350.158V614H344.577ZM360.879 614V589.883H366.46V614H360.879ZM372.184 614V589.883H376.8L391.03 607.247H388.79V589.883H394.303V614H389.72L375.457 596.636H377.696V614H372.184ZM411.654 614.413C409.747 614.413 407.99 614.115 406.382 613.518C404.798 612.897 403.408 612.025 402.214 610.899C401.042 609.774 400.123 608.453 399.457 606.937C398.814 605.421 398.493 603.756 398.493 601.941C398.493 600.127 398.814 598.462 399.457 596.946C400.123 595.43 401.054 594.109 402.248 592.984C403.442 591.858 404.844 590.997 406.451 590.4C408.059 589.779 409.828 589.469 411.757 589.469C413.893 589.469 415.811 589.825 417.511 590.537C419.233 591.249 420.681 592.283 421.852 593.638L418.269 596.946C417.396 596.027 416.443 595.349 415.409 594.913C414.376 594.454 413.25 594.224 412.033 594.224C410.861 594.224 409.793 594.408 408.829 594.775C407.864 595.143 407.026 595.671 406.314 596.36C405.624 597.049 405.085 597.864 404.694 598.806C404.327 599.748 404.143 600.793 404.143 601.941C404.143 603.067 404.327 604.1 404.694 605.042C405.085 605.984 405.624 606.811 406.314 607.523C407.026 608.212 407.852 608.74 408.794 609.108C409.759 609.475 410.815 609.659 411.964 609.659C413.066 609.659 414.134 609.487 415.168 609.142C416.225 608.775 417.247 608.166 418.234 607.316L421.404 611.347C420.095 612.335 418.567 613.093 416.822 613.621C415.099 614.149 413.376 614.413 411.654 614.413ZM421.404 611.347L416.305 610.624V601.562H421.404V611.347Z" fill="white"/>
</g>
<path d="M46.8641 77.9766V60.4766H54.3391C56.7724 60.4766 58.6641 61.0432 60.0141 62.1766C61.3641 63.2932 62.0391 64.8432 62.0391 66.8266C62.0391 68.1266 61.7307 69.2516 61.1141 70.2016C60.4974 71.1349 59.6224 71.8516 58.4891 72.3516C57.3557 72.8516 56.0057 73.1016 54.4391 73.1016H49.1141L50.9141 71.3266V77.9766H46.8641ZM57.9891 77.9766L53.6141 71.6266H57.9391L62.3641 77.9766H57.9891ZM50.9141 71.7766L49.1141 69.8766H54.2141C55.4641 69.8766 56.3974 69.6099 57.0141 69.0766C57.6307 68.5266 57.9391 67.7766 57.9391 66.8266C57.9391 65.8599 57.6307 65.1099 57.0141 64.5766C56.3974 64.0432 55.4641 63.7766 54.2141 63.7766H49.1141L50.9141 61.8516V71.7766ZM65.2479 77.9766V60.4766H78.4729V63.7266H69.2729V74.7266H78.7979V77.9766H65.2479ZM68.9729 70.6766V67.5266H77.3979V70.6766H68.9729ZM82.0203 77.9766V60.4766H86.0703V74.6766H94.8453V77.9766H82.0203ZM94.9059 77.9766L102.706 60.4766H106.706L114.531 77.9766H110.281L103.881 62.5266H105.481L99.0559 77.9766H94.9059ZM98.8059 74.2266L99.8809 71.1516H108.881L109.981 74.2266H98.8059ZM119.093 77.9766V63.7766H113.493V60.4766H128.743V63.7766H123.143V77.9766H119.093ZM130.922 77.9766V60.4766H134.972V77.9766H130.922ZM147.625 78.2766C146.241 78.2766 144.958 78.0516 143.775 77.6016C142.608 77.1516 141.591 76.5182 140.725 75.7016C139.875 74.8849 139.208 73.9266 138.725 72.8266C138.258 71.7266 138.025 70.5266 138.025 69.2266C138.025 67.9266 138.258 66.7266 138.725 65.6266C139.208 64.5266 139.883 63.5682 140.75 62.7516C141.616 61.9349 142.633 61.3016 143.8 60.8516C144.966 60.4016 146.233 60.1766 147.6 60.1766C148.983 60.1766 150.25 60.4016 151.4 60.8516C152.566 61.3016 153.575 61.9349 154.425 62.7516C155.291 63.5682 155.966 64.5266 156.45 65.6266C156.933 66.7099 157.175 67.9099 157.175 69.2266C157.175 70.5266 156.933 71.7349 156.45 72.8516C155.966 73.9516 155.291 74.9099 154.425 75.7266C153.575 76.5266 152.566 77.1516 151.4 77.6016C150.25 78.0516 148.991 78.2766 147.625 78.2766ZM147.6 74.8266C148.383 74.8266 149.1 74.6932 149.75 74.4266C150.416 74.1599 151 73.7766 151.5 73.2766C152 72.7766 152.383 72.1849 152.65 71.5016C152.933 70.8182 153.075 70.0599 153.075 69.2266C153.075 68.3932 152.933 67.6349 152.65 66.9516C152.383 66.2682 152 65.6766 151.5 65.1766C151.016 64.6766 150.441 64.2932 149.775 64.0266C149.108 63.7599 148.383 63.6266 147.6 63.6266C146.816 63.6266 146.091 63.7599 145.425 64.0266C144.775 64.2932 144.2 64.6766 143.7 65.1766C143.2 65.6766 142.808 66.2682 142.525 66.9516C142.258 67.6349 142.125 68.3932 142.125 69.2266C142.125 70.0432 142.258 70.8016 142.525 71.5016C142.808 72.1849 143.191 72.7766 143.675 73.2766C144.175 73.7766 144.758 74.1599 145.425 74.4266C146.091 74.6932 146.816 74.8266 147.6 74.8266ZM160.219 77.9766V60.4766H163.569L173.894 73.0766H172.269V60.4766H176.269V77.9766H172.944L162.594 65.3766H164.219V77.9766H160.219ZM187.489 77.9766V60.4766H200.714V63.7266H191.514V74.7266H201.039V77.9766H187.489ZM191.214 70.6766V67.5266H199.639V70.6766H191.214ZM202.115 77.9766L209.64 67.6016V70.5516L202.44 60.4766H207.04L212.015 67.5016L210.09 67.5266L214.99 60.4766H219.39L212.24 70.3766V67.4766L219.815 77.9766H215.14L209.99 70.5516H211.84L206.765 77.9766H202.115ZM221.473 77.9766V60.4766H229.048C230.615 60.4766 231.965 60.7349 233.098 61.2516C234.232 61.7516 235.107 62.4766 235.723 63.4266C236.34 64.3766 236.648 65.5099 236.648 66.8266C236.648 68.1266 236.34 69.2516 235.723 70.2016C235.107 71.1516 234.232 71.8849 233.098 72.4016C231.965 72.9016 230.615 73.1516 229.048 73.1516H223.723L225.523 71.3266V77.9766H221.473ZM225.523 71.7766L223.723 69.8516H228.823C230.073 69.8516 231.007 69.5849 231.623 69.0516C232.24 68.5182 232.548 67.7766 232.548 66.8266C232.548 65.8599 232.24 65.1099 231.623 64.5766C231.007 64.0432 230.073 63.7766 228.823 63.7766H223.723L225.523 61.8516V71.7766ZM236.361 77.9766L244.161 60.4766H248.161L255.986 77.9766H251.736L245.336 62.5266H246.936L240.511 77.9766H236.361ZM240.261 74.2266L241.336 71.1516H250.336L251.436 74.2266H240.261ZM257.802 77.9766V60.4766H261.152L271.477 73.0766H269.852V60.4766H273.852V77.9766H270.527L260.177 65.3766H261.802V77.9766H257.802ZM283.742 78.2766C282.342 78.2766 281 78.0932 279.717 77.7266C278.434 77.3432 277.4 76.8516 276.617 76.2516L277.992 73.2016C278.742 73.7349 279.625 74.1766 280.642 74.5266C281.675 74.8599 282.717 75.0266 283.767 75.0266C284.567 75.0266 285.209 74.9516 285.692 74.8016C286.192 74.6349 286.559 74.4099 286.792 74.1266C287.025 73.8432 287.142 73.5182 287.142 73.1516C287.142 72.6849 286.959 72.3182 286.592 72.0516C286.225 71.7682 285.742 71.5432 285.142 71.3766C284.542 71.1932 283.875 71.0266 283.142 70.8766C282.425 70.7099 281.7 70.5099 280.967 70.2766C280.25 70.0432 279.592 69.7432 278.992 69.3766C278.392 69.0099 277.9 68.5266 277.517 67.9266C277.15 67.3266 276.967 66.5599 276.967 65.6266C276.967 64.6266 277.234 63.7182 277.767 62.9016C278.317 62.0682 279.134 61.4099 280.217 60.9266C281.317 60.4266 282.692 60.1766 284.342 60.1766C285.442 60.1766 286.525 60.3099 287.592 60.5766C288.659 60.8266 289.6 61.2099 290.417 61.7266L289.167 64.8016C288.35 64.3349 287.534 63.9932 286.717 63.7766C285.9 63.5432 285.1 63.4266 284.317 63.4266C283.534 63.4266 282.892 63.5182 282.392 63.7016C281.892 63.8849 281.534 64.1266 281.317 64.4266C281.1 64.7099 280.992 65.0432 280.992 65.4266C280.992 65.8766 281.175 66.2432 281.542 66.5266C281.909 66.7932 282.392 67.0099 282.992 67.1766C283.592 67.3432 284.25 67.5099 284.967 67.6766C285.7 67.8432 286.425 68.0349 287.142 68.2516C287.875 68.4682 288.542 68.7599 289.142 69.1266C289.742 69.4932 290.225 69.9766 290.592 70.5766C290.975 71.1766 291.167 71.9349 291.167 72.8516C291.167 73.8349 290.892 74.7349 290.342 75.5516C289.792 76.3682 288.967 77.0266 287.867 77.5266C286.784 78.0266 285.409 78.2766 283.742 78.2766ZM293.934 77.9766V60.4766H297.984V77.9766H293.934ZM310.638 78.2766C309.254 78.2766 307.971 78.0516 306.788 77.6016C305.621 77.1516 304.604 76.5182 303.737 75.7016C302.888 74.8849 302.221 73.9266 301.738 72.8266C301.271 71.7266 301.038 70.5266 301.038 69.2266C301.038 67.9266 301.271 66.7266 301.738 65.6266C302.221 64.5266 302.896 63.5682 303.763 62.7516C304.629 61.9349 305.646 61.3016 306.813 60.8516C307.979 60.4016 309.246 60.1766 310.613 60.1766C311.996 60.1766 313.262 60.4016 314.413 60.8516C315.579 61.3016 316.588 61.9349 317.438 62.7516C318.304 63.5682 318.979 64.5266 319.463 65.6266C319.946 66.7099 320.188 67.9099 320.188 69.2266C320.188 70.5266 319.946 71.7349 319.463 72.8516C318.979 73.9516 318.304 74.9099 317.438 75.7266C316.588 76.5266 315.579 77.1516 314.413 77.6016C313.262 78.0516 312.004 78.2766 310.638 78.2766ZM310.613 74.8266C311.396 74.8266 312.113 74.6932 312.763 74.4266C313.429 74.1599 314.013 73.7766 314.513 73.2766C315.013 72.7766 315.396 72.1849 315.663 71.5016C315.946 70.8182 316.088 70.0599 316.088 69.2266C316.088 68.3932 315.946 67.6349 315.663 66.9516C315.396 66.2682 315.013 65.6766 314.513 65.1766C314.029 64.6766 313.454 64.2932 312.788 64.0266C312.121 63.7599 311.396 63.6266 310.613 63.6266C309.829 63.6266 309.104 63.7599 308.438 64.0266C307.788 64.2932 307.213 64.6766 306.713 65.1766C306.213 65.6766 305.821 66.2682 305.538 66.9516C305.271 67.6349 305.138 68.3932 305.138 69.2266C305.138 70.0432 305.271 70.8016 305.538 71.5016C305.821 72.1849 306.204 72.7766 306.688 73.2766C307.188 73.7766 307.771 74.1599 308.438 74.4266C309.104 74.6932 309.829 74.8266 310.613 74.8266ZM323.231 77.9766V60.4766H326.581L336.906 73.0766H335.281V60.4766H339.281V77.9766H335.956L325.606 65.3766H327.231V77.9766H323.231Z" fill="white"/>
<path d="M293.782 145.158C293.782 145.158 199.061 157.178 199.061 321.618C199.061 482.693 293.782 497.598 293.782 497.598C293.782 466.438 293.782 438.377 293.782 412.012M293.782 145.158C293.782 145.158 388.503 160.544 388.503 321.618C388.503 482.693 293.782 498.079 293.782 498.079M293.782 145.158C244.201 145.158 199.397 165.606 167.341 198.529M293.782 145.158C293.782 175.939 293.782 199 293.782 229.782M293.782 145.158C345.901 145.158 392.743 167.023 425.046 202.664M470.243 321.618H117.321M470.243 321.618C470.243 275.093 453.145 233.666 425.046 202.664M470.243 321.618C470.243 368.165 453.13 409.607 425.008 440.615M293.782 498.079C242.178 498.079 195.747 475.928 163.48 440.615M293.782 498.079C345.881 498.079 392.707 476.231 425.008 440.615M117.321 321.618C117.321 273.742 136.387 230.32 167.341 198.529M117.321 321.618C117.321 367.471 134.81 409.238 163.48 440.615M167.341 198.529C167.341 198.529 216.851 229.782 293.782 229.782M293.782 229.782C360.616 229.782 425.046 202.664 425.046 202.664M293.782 229.782C293.782 293.828 293.782 347.966 293.782 412.012M163.48 440.615C163.48 440.615 212.052 412.012 293.782 412.012M293.782 412.012C375.512 412.012 425.008 440.615 425.008 440.615" stroke="#8646C4" stroke-width="9.61638"/>
<ellipse cx="342.328" cy="254.719" rx="35.2348" ry="106.953" transform="rotate(-41.9903 342.328 254.719)" fill="#3494CC"/>
<path d="M411.941 334.872C356.919 334.872 267.678 198.459 267.678 187.225C267.678 175.992 247.057 252.187 230.963 280.829C194.143 346.356 148.508 393.16 151.083 398.777C161.067 420.557 173.224 432.12 195.391 441.213C197.888 442.237 254.275 394.858 310.843 369.82C348.91 352.97 417.953 334.872 411.941 334.872Z" fill="#7ED8FE"/>
<path d="M298.41 478.029C296.018 479.386 223.994 421.248 223.994 421.248L256.092 399.643C256.092 399.643 327.892 446.567 325.33 451.847C322.767 457.128 320.318 459.582 316.31 463.869C312.015 468.464 303.88 474.925 298.41 478.029Z" fill="#3494CC"/>
<g filter="url(#filter1_i_254_118)">
<path d="M411.941 334.872C356.919 334.872 267.678 198.459 267.678 187.225C267.678 175.992 247.057 252.187 230.963 280.829C194.143 346.356 148.508 393.16 151.083 398.777C161.067 420.557 173.224 432.12 195.391 441.213C197.888 442.237 254.275 394.858 310.843 369.82C348.91 352.97 417.953 334.872 411.941 334.872Z" fill="#BA75DF"/>
</g>
<g filter="url(#filter2_i_254_118)">
<path d="M298.41 478.029C296.018 479.386 223.994 421.248 223.994 421.248L256.092 399.643C256.092 399.643 327.892 446.567 325.33 451.847C322.767 457.128 320.318 459.582 316.31 463.869C312.015 468.464 303.88 474.925 298.41 478.029Z" fill="#A68CD3"/>
</g>
<g filter="url(#filter3_i_254_118)">
<ellipse cx="342.328" cy="254.719" rx="35.2348" ry="106.953" transform="rotate(-41.9903 342.328 254.719)" fill="#8646C4"/>
</g>
<path d="M327.464 207.956L353.449 145.157" stroke="white" stroke-width="10.8273" stroke-linecap="round"/>
<path d="M363.194 238.273L443.317 171.143" stroke="white" stroke-width="10.8273" stroke-linecap="round"/>
<path d="M390.263 284.83L443.317 272.92" stroke="white" stroke-width="10.8273" stroke-linecap="round"/>
<defs>
<filter id="filter0_d_254_118" x="169.902" y="547.469" width="251.949" height="70.3896" filterUnits="userSpaceOnUse" color-interpolation-filters="sRGB">
<feFlood flood-opacity="0" result="BackgroundImageFix"/>
<feColorMatrix in="SourceAlpha" type="matrix" values="0 0 0 0 0 0 0 0 0 0 0 0 0 0 0 0 0 0 127 0" result="hardAlpha"/>
<feOffset dy="3.44531"/>
<feComposite in2="hardAlpha" operator="out"/>
<feColorMatrix type="matrix" values="0 0 0 0 0.666536 0 0 0 0 0.211765 0 0 0 0 0.768627 0 0 0 1 0"/>
<feBlend mode="normal" in2="BackgroundImageFix" result="effect1_dropShadow_254_118"/>
<feBlend mode="normal" in="SourceGraphic" in2="effect1_dropShadow_254_118" result="shape"/>
</filter>
<filter id="filter1_i_254_118" x="150.979" y="186.104" width="265.661" height="281.111" filterUnits="userSpaceOnUse" color-interpolation-filters="sRGB">
<feFlood flood-opacity="0" result="BackgroundImageFix"/>
<feBlend mode="normal" in="SourceGraphic" in2="BackgroundImageFix" result="shape"/>
<feColorMatrix in="SourceAlpha" type="matrix" values="0 0 0 0 0 0 0 0 0 0 0 0 0 0 0 0 0 0 127 0" result="hardAlpha"/>
<feOffset dx="4.33093" dy="49.8058"/>
<feGaussianBlur stdDeviation="12.9928"/>
<feComposite in2="hardAlpha" operator="arithmetic" k2="-1" k3="1"/>
<feColorMatrix type="matrix" values="0 0 0 0 0 0 0 0 0 0 0 0 0 0 0 0 0 0 0.25 0"/>
<feBlend mode="normal" in2="shape" result="effect1_innerShadow_254_118"/>
</filter>
<filter id="filter2_i_254_118" x="223.993" y="399.643" width="109.849" height="82.7401" filterUnits="userSpaceOnUse" color-interpolation-filters="sRGB">
<feFlood flood-opacity="0" result="BackgroundImageFix"/>
<feBlend mode="normal" in="SourceGraphic" in2="BackgroundImageFix" result="shape"/>
<feColorMatrix in="SourceAlpha" type="matrix" values="0 0 0 0 0 0 0 0 0 0 0 0 0 0 0 0 0 0 127 0" result="hardAlpha"/>
<feOffset dx="19.4892" dy="4.33093"/>
<feGaussianBlur stdDeviation="4.22266"/>
<feComposite in2="hardAlpha" operator="arithmetic" k2="-1" k3="1"/>
<feColorMatrix type="matrix" values="0 0 0 0 0 0 0 0 0 0 0 0 0 0 0 0 0 0 0.25 0"/>
<feBlend mode="normal" in2="shape" result="effect1_innerShadow_254_118"/>
</filter>
<filter id="filter3_i_254_118" x="266.113" y="171.782" width="164.448" height="177.891" filterUnits="userSpaceOnUse" color-interpolation-filters="sRGB">
<feFlood flood-opacity="0" result="BackgroundImageFix"/>
<feBlend mode="normal" in="SourceGraphic" in2="BackgroundImageFix" result="shape"/>
<feColorMatrix in="SourceAlpha" type="matrix" values="0 0 0 0 0 0 0 0 0 0 0 0 0 0 0 0 0 0 127 0" result="hardAlpha"/>
<feOffset dx="21.6547" dy="14.0755"/>
<feGaussianBlur stdDeviation="6.00917"/>
<feComposite in2="hardAlpha" operator="arithmetic" k2="-1" k3="1"/>
<feColorMatrix type="matrix" values="0 0 0 0 0 0 0 0 0 0 0 0 0 0 0 0 0 0 0.25 0"/>
<feBlend mode="normal" in2="shape" result="effect1_innerShadow_254_118"/>
</filter>
</defs>
</svg>
