<svg width="588" height="651" viewBox="0 0 588 651" fill="none" xmlns="http://www.w3.org/2000/svg">
<g filter="url(#filter0_d_253_2)">
<path d="M206.143 585.398V561.281H216.444C219.797 561.281 222.404 562.062 224.265 563.624C226.125 565.163 227.056 567.299 227.056 570.032C227.056 571.824 226.631 573.374 225.781 574.684C224.931 575.97 223.725 576.957 222.163 577.646C220.601 578.336 218.741 578.68 216.582 578.68H209.243L211.724 576.234V585.398H206.143ZM221.474 585.398L215.445 576.647H221.405L227.503 585.398H221.474ZM211.724 576.854L209.243 574.236H216.272C217.994 574.236 219.281 573.868 220.13 573.133C220.98 572.375 221.405 571.342 221.405 570.032C221.405 568.7 220.98 567.667 220.13 566.932C219.281 566.197 217.994 565.829 216.272 565.829H209.243L211.724 563.176V576.854ZM231.478 585.398V561.281H249.703V565.76H237.025V580.92H250.151V585.398H231.478ZM236.611 575.338V570.997H248.222V575.338H236.611ZM262.516 585.812C260.587 585.812 258.738 585.559 256.969 585.054C255.201 584.526 253.777 583.848 252.697 583.021L254.592 578.818C255.626 579.553 256.843 580.162 258.244 580.644C259.668 581.103 261.104 581.333 262.551 581.333C263.653 581.333 264.538 581.23 265.204 581.023C265.893 580.793 266.398 580.483 266.72 580.093C267.041 579.702 267.202 579.254 267.202 578.749C267.202 578.106 266.949 577.601 266.444 577.233C265.939 576.843 265.273 576.532 264.446 576.303C263.619 576.05 262.7 575.82 261.69 575.614C260.702 575.384 259.703 575.108 258.692 574.787C257.704 574.465 256.797 574.052 255.97 573.547C255.143 573.041 254.466 572.375 253.938 571.548C253.432 570.721 253.18 569.665 253.18 568.379C253.18 567 253.547 565.749 254.282 564.623C255.04 563.475 256.166 562.567 257.659 561.901C259.174 561.212 261.069 560.868 263.343 560.868C264.859 560.868 266.352 561.052 267.822 561.419C269.292 561.764 270.59 562.292 271.715 563.004L269.993 567.242C268.867 566.599 267.742 566.128 266.616 565.829C265.491 565.507 264.388 565.347 263.309 565.347C262.229 565.347 261.345 565.473 260.656 565.726C259.967 565.978 259.473 566.311 259.174 566.725C258.876 567.115 258.727 567.575 258.727 568.103C258.727 568.723 258.979 569.228 259.485 569.619C259.99 569.986 260.656 570.285 261.483 570.515C262.31 570.744 263.217 570.974 264.205 571.204C265.215 571.433 266.214 571.698 267.202 571.996C268.213 572.295 269.131 572.697 269.958 573.202C270.785 573.707 271.451 574.373 271.957 575.2C272.485 576.027 272.749 577.072 272.749 578.336C272.749 579.691 272.37 580.931 271.612 582.056C270.854 583.182 269.717 584.089 268.201 584.778C266.708 585.467 264.813 585.812 262.516 585.812ZM276.563 585.398V561.281H287.002C289.161 561.281 291.022 561.637 292.584 562.349C294.145 563.038 295.351 564.037 296.201 565.347C297.051 566.656 297.476 568.218 297.476 570.032C297.476 571.824 297.051 573.374 296.201 574.684C295.351 575.993 294.145 577.003 292.584 577.715C291.022 578.404 289.161 578.749 287.002 578.749H279.664L282.144 576.234V585.398H276.563ZM282.144 576.854L279.664 574.201H286.692C288.415 574.201 289.701 573.834 290.551 573.099C291.401 572.364 291.826 571.342 291.826 570.032C291.826 568.7 291.401 567.667 290.551 566.932C289.701 566.197 288.415 565.829 286.692 565.829H279.664L282.144 563.176V576.854ZM313.511 585.812C311.605 585.812 309.836 585.502 308.205 584.882C306.598 584.261 305.196 583.389 304.002 582.263C302.831 581.138 301.912 579.817 301.246 578.301C300.603 576.785 300.281 575.131 300.281 573.34C300.281 571.548 300.603 569.895 301.246 568.379C301.912 566.863 302.842 565.542 304.036 564.416C305.231 563.291 306.632 562.418 308.24 561.798C309.848 561.178 311.593 560.868 313.477 560.868C315.383 560.868 317.129 561.178 318.714 561.798C320.321 562.418 321.711 563.291 322.882 564.416C324.077 565.542 325.007 566.863 325.673 568.379C326.339 569.872 326.672 571.525 326.672 573.34C326.672 575.131 326.339 576.797 325.673 578.336C325.007 579.851 324.077 581.172 322.882 582.298C321.711 583.4 320.321 584.261 318.714 584.882C317.129 585.502 315.395 585.812 313.511 585.812ZM313.477 581.057C314.556 581.057 315.544 580.874 316.44 580.506C317.358 580.139 318.162 579.61 318.851 578.921C319.54 578.232 320.069 577.417 320.436 576.475C320.827 575.533 321.022 574.488 321.022 573.34C321.022 572.191 320.827 571.146 320.436 570.205C320.069 569.263 319.54 568.447 318.851 567.758C318.185 567.069 317.393 566.541 316.474 566.174C315.555 565.806 314.556 565.622 313.477 565.622C312.397 565.622 311.398 565.806 310.479 566.174C309.583 566.541 308.791 567.069 308.102 567.758C307.413 568.447 306.873 569.263 306.483 570.205C306.115 571.146 305.931 572.191 305.931 573.34C305.931 574.465 306.115 575.51 306.483 576.475C306.873 577.417 307.401 578.232 308.068 578.921C308.757 579.61 309.56 580.139 310.479 580.506C311.398 580.874 312.397 581.057 313.477 581.057ZM330.867 585.398V561.281H335.484L349.713 578.646H347.473V561.281H352.986V585.398H348.404L334.14 568.034H336.379V585.398H330.867ZM366.616 585.812C364.687 585.812 362.838 585.559 361.069 585.054C359.3 584.526 357.876 583.848 356.797 583.021L358.692 578.818C359.725 579.553 360.943 580.162 362.344 580.644C363.768 581.103 365.203 581.333 366.65 581.333C367.753 581.333 368.637 581.23 369.303 581.023C369.992 580.793 370.498 580.483 370.819 580.093C371.141 579.702 371.302 579.254 371.302 578.749C371.302 578.106 371.049 577.601 370.544 577.233C370.038 576.843 369.372 576.532 368.545 576.303C367.719 576.05 366.8 575.82 365.789 575.614C364.801 575.384 363.802 575.108 362.792 574.787C361.804 574.465 360.897 574.052 360.07 573.547C359.243 573.041 358.565 572.375 358.037 571.548C357.532 570.721 357.279 569.665 357.279 568.379C357.279 567 357.647 565.749 358.382 564.623C359.14 563.475 360.265 562.567 361.758 561.901C363.274 561.212 365.169 560.868 367.443 560.868C368.959 560.868 370.452 561.052 371.922 561.419C373.392 561.764 374.69 562.292 375.815 563.004L374.092 567.242C372.967 566.599 371.841 566.128 370.716 565.829C369.59 565.507 368.488 565.347 367.408 565.347C366.329 565.347 365.445 565.473 364.756 565.726C364.066 565.978 363.573 566.311 363.274 566.725C362.975 567.115 362.826 567.575 362.826 568.103C362.826 568.723 363.079 569.228 363.584 569.619C364.089 569.986 364.756 570.285 365.582 570.515C366.409 570.744 367.317 570.974 368.304 571.204C369.315 571.433 370.314 571.698 371.302 571.996C372.312 572.295 373.231 572.697 374.058 573.202C374.885 573.707 375.551 574.373 376.056 575.2C376.584 576.027 376.849 577.072 376.849 578.336C376.849 579.691 376.47 580.931 375.712 582.056C374.954 583.182 373.817 584.089 372.301 584.778C370.808 585.467 368.913 585.812 366.616 585.812ZM380.662 585.398V561.281H386.244V585.398H380.662Z" fill="white"/>
</g>
<path d="M46.8641 77.9766V60.4766H60.0891V63.7266H50.8891V74.7266H60.4141V77.9766H46.8641ZM50.5891 70.6766V67.5266H59.0141V70.6766H50.5891ZM63.6365 77.9766V60.4766H71.5865C73.4865 60.4766 75.1615 60.8432 76.6115 61.5766C78.0615 62.2932 79.1949 63.3016 80.0115 64.6016C80.8282 65.9016 81.2365 67.4432 81.2365 69.2266C81.2365 70.9932 80.8282 72.5349 80.0115 73.8516C79.1949 75.1516 78.0615 76.1682 76.6115 76.9016C75.1615 77.6182 73.4865 77.9766 71.5865 77.9766H63.6365ZM67.6865 74.6516H71.3865C72.5532 74.6516 73.5615 74.4349 74.4115 74.0016C75.2782 73.5516 75.9449 72.9182 76.4115 72.1016C76.8949 71.2849 77.1365 70.3266 77.1365 69.2266C77.1365 68.1099 76.8949 67.1516 76.4115 66.3516C75.9449 65.5349 75.2782 64.9099 74.4115 64.4766C73.5615 64.0266 72.5532 63.8016 71.3865 63.8016H67.6865V74.6516ZM92.0658 78.2766C89.5825 78.2766 87.6408 77.5849 86.2408 76.2016C84.8408 74.8182 84.1408 72.8432 84.1408 70.2766V60.4766H88.1908V70.1266C88.1908 71.7932 88.5325 72.9932 89.2158 73.7266C89.8992 74.4599 90.8575 74.8266 92.0908 74.8266C93.3242 74.8266 94.2825 74.4599 94.9658 73.7266C95.6492 72.9932 95.9908 71.7932 95.9908 70.1266V60.4766H99.9908V70.2766C99.9908 72.8432 99.2908 74.8182 97.8908 76.2016C96.4908 77.5849 94.5492 78.2766 92.0658 78.2766ZM112.368 78.2766C111.018 78.2766 109.76 78.0599 108.593 77.6266C107.443 77.1766 106.443 76.5432 105.593 75.7266C104.743 74.9099 104.076 73.9516 103.593 72.8516C103.126 71.7516 102.893 70.5432 102.893 69.2266C102.893 67.9099 103.126 66.7016 103.593 65.6016C104.076 64.5016 104.743 63.5432 105.593 62.7266C106.46 61.9099 107.468 61.2849 108.618 60.8516C109.768 60.4016 111.026 60.1766 112.393 60.1766C113.91 60.1766 115.276 60.4432 116.493 60.9766C117.726 61.4932 118.76 62.2599 119.593 63.2766L116.993 65.6766C116.393 64.9932 115.726 64.4849 114.993 64.1516C114.26 63.8016 113.46 63.6266 112.593 63.6266C111.776 63.6266 111.026 63.7599 110.343 64.0266C109.66 64.2932 109.068 64.6766 108.568 65.1766C108.068 65.6766 107.676 66.2682 107.393 66.9516C107.126 67.6349 106.993 68.3932 106.993 69.2266C106.993 70.0599 107.126 70.8182 107.393 71.5016C107.676 72.1849 108.068 72.7766 108.568 73.2766C109.068 73.7766 109.66 74.1599 110.343 74.4266C111.026 74.6932 111.776 74.8266 112.593 74.8266C113.46 74.8266 114.26 74.6599 114.993 74.3266C115.726 73.9766 116.393 73.4516 116.993 72.7516L119.593 75.1516C118.76 76.1682 117.726 76.9432 116.493 77.4766C115.276 78.0099 113.901 78.2766 112.368 78.2766ZM119.442 77.9766L127.242 60.4766H131.242L139.067 77.9766H134.817L128.417 62.5266H130.017L123.592 77.9766H119.442ZM123.342 74.2266L124.417 71.1516H133.417L134.517 74.2266H123.342ZM143.629 77.9766V63.7766H138.029V60.4766H153.279V63.7766H147.679V77.9766H143.629ZM155.458 77.9766V60.4766H159.508V77.9766H155.458ZM172.161 78.2766C170.778 78.2766 169.494 78.0516 168.311 77.6016C167.144 77.1516 166.128 76.5182 165.261 75.7016C164.411 74.8849 163.744 73.9266 163.261 72.8266C162.794 71.7266 162.561 70.5266 162.561 69.2266C162.561 67.9266 162.794 66.7266 163.261 65.6266C163.744 64.5266 164.419 63.5682 165.286 62.7516C166.153 61.9349 167.169 61.3016 168.336 60.8516C169.503 60.4016 170.769 60.1766 172.136 60.1766C173.519 60.1766 174.786 60.4016 175.936 60.8516C177.103 61.3016 178.111 61.9349 178.961 62.7516C179.828 63.5682 180.503 64.5266 180.986 65.6266C181.469 66.7099 181.711 67.9099 181.711 69.2266C181.711 70.5266 181.469 71.7349 180.986 72.8516C180.503 73.9516 179.828 74.9099 178.961 75.7266C178.111 76.5266 177.103 77.1516 175.936 77.6016C174.786 78.0516 173.528 78.2766 172.161 78.2766ZM172.136 74.8266C172.919 74.8266 173.636 74.6932 174.286 74.4266C174.953 74.1599 175.536 73.7766 176.036 73.2766C176.536 72.7766 176.919 72.1849 177.186 71.5016C177.469 70.8182 177.611 70.0599 177.611 69.2266C177.611 68.3932 177.469 67.6349 177.186 66.9516C176.919 66.2682 176.536 65.6766 176.036 65.1766C175.553 64.6766 174.978 64.2932 174.311 64.0266C173.644 63.7599 172.919 63.6266 172.136 63.6266C171.353 63.6266 170.628 63.7599 169.961 64.0266C169.311 64.2932 168.736 64.6766 168.236 65.1766C167.736 65.6766 167.344 66.2682 167.061 66.9516C166.794 67.6349 166.661 68.3932 166.661 69.2266C166.661 70.0432 166.794 70.8016 167.061 71.5016C167.344 72.1849 167.728 72.7766 168.211 73.2766C168.711 73.7766 169.294 74.1599 169.961 74.4266C170.628 74.6932 171.353 74.8266 172.136 74.8266ZM184.755 77.9766V60.4766H188.105L198.43 73.0766H196.805V60.4766H200.805V77.9766H197.48L187.13 65.3766H188.755V77.9766H184.755Z" fill="white"/>
<path d="M158.264 503.291C158.264 489.664 174.82 454.488 174.82 454.488" stroke="#8646C4" stroke-width="6.89864"/>
<path d="M433.52 503.291C433.52 489.664 416.963 454.488 416.963 454.488" stroke="#8646C4" stroke-width="6.89864"/>
<rect x="107.214" y="238.997" width="375.976" height="27.2534" rx="6.89864" fill="#A68CD3"/>
<rect x="141.707" y="417.095" width="306.989" height="50.0701" rx="10.348" fill="#A68CD3"/>
<path d="M474.566 264.348C474.566 264.348 486.595 360.273 467.668 392.376C458.7 407.587 300.376 397.129 300.376 397.129" stroke="#A68CD3" stroke-width="6.89864"/>
<path d="M115.811 264.983C115.811 264.983 103.783 360.907 122.71 393.01C131.678 408.221 290.002 397.764 290.002 397.764" stroke="#A68CD3" stroke-width="6.89864"/>
<rect x="125.149" y="143.293" width="340.103" height="218.027" rx="34.4932" fill="#A68CD3"/>
<rect x="277.955" y="381.947" width="33.8033" height="37.3381" rx="3.10439" fill="#A68CD3" stroke="#A68CD3" stroke-width="0.689864"/>
<g filter="url(#filter1_i_253_2)">
<rect x="141.788" y="158.761" width="307.529" height="187.429" rx="22.7463" fill="#F6FFFF"/>
</g>
<g filter="url(#filter2_d_253_2)">
<path d="M354.692 258.861C354.692 267.662 268.986 311.362 266.188 309.753C263.39 308.144 262.408 210.144 266.188 207.97C269.967 205.797 354.692 250.061 354.692 258.861Z" fill="#8646C4"/>
</g>
<rect x="148.157" y="422.618" width="294.791" height="37.3039" rx="9.0985" fill="#275DCF"/>
<g filter="url(#filter3_i_253_2)">
<rect x="148.157" y="422.618" width="294.791" height="37.3039" rx="9.0985" fill="#8646C4"/>
</g>
<g filter="url(#filter4_i_253_2)">
<rect x="153.615" y="426.731" width="217.454" height="9.09851" rx="4.54925" fill="#BA75DF"/>
</g>
<g filter="url(#filter5_i_253_2)">
<rect x="153.615" y="438.085" width="217.454" height="5.4591" rx="2.72955" fill="#BA75DF"/>
</g>
<g filter="url(#filter6_i_253_2)">
<rect x="153.615" y="445.364" width="217.454" height="3.6394" rx="1.8197" fill="#BA75DF"/>
</g>
<g filter="url(#filter7_i_253_2)">
<rect x="153.615" y="450.822" width="217.454" height="1.8197" rx="0.909851" fill="#BA75DF"/>
</g>
<g filter="url(#filter8_i_253_2)">
<rect x="153.615" y="454.462" width="217.454" height="1.8197" rx="0.909851" fill="#BA75DF"/>
</g>
<ellipse cx="410.192" cy="441.288" rx="15.4675" ry="15.4675" fill="#BA75DF"/>
<defs>
<filter id="filter0_d_253_2" x="206.143" y="560.868" width="180.102" height="28.3892" filterUnits="userSpaceOnUse" color-interpolation-filters="sRGB">
<feFlood flood-opacity="0" result="BackgroundImageFix"/>
<feColorMatrix in="SourceAlpha" type="matrix" values="0 0 0 0 0 0 0 0 0 0 0 0 0 0 0 0 0 0 127 0" result="hardAlpha"/>
<feOffset dy="3.44531"/>
<feComposite in2="hardAlpha" operator="out"/>
<feColorMatrix type="matrix" values="0 0 0 0 0.666536 0 0 0 0 0.211765 0 0 0 0 0.768627 0 0 0 1 0"/>
<feBlend mode="normal" in2="BackgroundImageFix" result="effect1_dropShadow_253_2"/>
<feBlend mode="normal" in="SourceGraphic" in2="effect1_dropShadow_253_2" result="shape"/>
</filter>
<filter id="filter1_i_253_2" x="141.788" y="158.761" width="307.529" height="187.429" filterUnits="userSpaceOnUse" color-interpolation-filters="sRGB">
<feFlood flood-opacity="0" result="BackgroundImageFix"/>
<feBlend mode="normal" in="SourceGraphic" in2="BackgroundImageFix" result="shape"/>
<feColorMatrix in="SourceAlpha" type="matrix" values="0 0 0 0 0 0 0 0 0 0 0 0 0 0 0 0 0 0 127 0" result="hardAlpha"/>
<feMorphology radius="4.54925" operator="erode" in="SourceAlpha" result="effect1_innerShadow_253_2"/>
<feOffset/>
<feGaussianBlur stdDeviation="4.13982"/>
<feComposite in2="hardAlpha" operator="arithmetic" k2="-1" k3="1"/>
<feColorMatrix type="matrix" values="0 0 0 0 0 0 0 0 0 0 0 0 0 0 0 0 0 0 0.25 0"/>
<feBlend mode="normal" in2="shape" result="effect1_innerShadow_253_2"/>
</filter>
<filter id="filter2_d_253_2" x="256.064" y="207.893" width="102.631" height="114.095" filterUnits="userSpaceOnUse" color-interpolation-filters="sRGB">
<feFlood flood-opacity="0" result="BackgroundImageFix"/>
<feColorMatrix in="SourceAlpha" type="matrix" values="0 0 0 0 0 0 0 0 0 0 0 0 0 0 0 0 0 0 127 0" result="hardAlpha"/>
<feOffset dx="-1.8197" dy="6.36895"/>
<feGaussianBlur stdDeviation="2.91152"/>
<feComposite in2="hardAlpha" operator="out"/>
<feColorMatrix type="matrix" values="0 0 0 0 0 0 0 0 0 0 0 0 0 0 0 0 0 0 0.25 0"/>
<feBlend mode="normal" in2="BackgroundImageFix" result="effect1_dropShadow_253_2"/>
<feBlend mode="normal" in="SourceGraphic" in2="effect1_dropShadow_253_2" result="shape"/>
</filter>
<filter id="filter3_i_253_2" x="148.157" y="422.618" width="294.791" height="37.304" filterUnits="userSpaceOnUse" color-interpolation-filters="sRGB">
<feFlood flood-opacity="0" result="BackgroundImageFix"/>
<feBlend mode="normal" in="SourceGraphic" in2="BackgroundImageFix" result="shape"/>
<feColorMatrix in="SourceAlpha" type="matrix" values="0 0 0 0 0 0 0 0 0 0 0 0 0 0 0 0 0 0 127 0" result="hardAlpha"/>
<feMorphology radius="2.72955" operator="erode" in="SourceAlpha" result="effect1_innerShadow_253_2"/>
<feOffset/>
<feGaussianBlur stdDeviation="3.6394"/>
<feComposite in2="hardAlpha" operator="arithmetic" k2="-1" k3="1"/>
<feColorMatrix type="matrix" values="0 0 0 0 0 0 0 0 0 0 0 0 0 0 0 0 0 0 0.25 0"/>
<feBlend mode="normal" in2="shape" result="effect1_innerShadow_253_2"/>
</filter>
<filter id="filter4_i_253_2" x="153.615" y="425.002" width="217.454" height="10.8271" filterUnits="userSpaceOnUse" color-interpolation-filters="sRGB">
<feFlood flood-opacity="0" result="BackgroundImageFix"/>
<feBlend mode="normal" in="SourceGraphic" in2="BackgroundImageFix" result="shape"/>
<feColorMatrix in="SourceAlpha" type="matrix" values="0 0 0 0 0 0 0 0 0 0 0 0 0 0 0 0 0 0 127 0" result="hardAlpha"/>
<feOffset dy="-1.8197"/>
<feGaussianBlur stdDeviation="0.864358"/>
<feComposite in2="hardAlpha" operator="arithmetic" k2="-1" k3="1"/>
<feColorMatrix type="matrix" values="0 0 0 0 0 0 0 0 0 0 0 0 0 0 0 0 0 0 0.25 0"/>
<feBlend mode="normal" in2="shape" result="effect1_innerShadow_253_2"/>
</filter>
<filter id="filter5_i_253_2" x="153.615" y="436.356" width="217.454" height="7.1877" filterUnits="userSpaceOnUse" color-interpolation-filters="sRGB">
<feFlood flood-opacity="0" result="BackgroundImageFix"/>
<feBlend mode="normal" in="SourceGraphic" in2="BackgroundImageFix" result="shape"/>
<feColorMatrix in="SourceAlpha" type="matrix" values="0 0 0 0 0 0 0 0 0 0 0 0 0 0 0 0 0 0 127 0" result="hardAlpha"/>
<feOffset dy="-1.8197"/>
<feGaussianBlur stdDeviation="0.864358"/>
<feComposite in2="hardAlpha" operator="arithmetic" k2="-1" k3="1"/>
<feColorMatrix type="matrix" values="0 0 0 0 0 0 0 0 0 0 0 0 0 0 0 0 0 0 0.25 0"/>
<feBlend mode="normal" in2="shape" result="effect1_innerShadow_253_2"/>
</filter>
<filter id="filter6_i_253_2" x="153.615" y="443.635" width="217.454" height="5.36812" filterUnits="userSpaceOnUse" color-interpolation-filters="sRGB">
<feFlood flood-opacity="0" result="BackgroundImageFix"/>
<feBlend mode="normal" in="SourceGraphic" in2="BackgroundImageFix" result="shape"/>
<feColorMatrix in="SourceAlpha" type="matrix" values="0 0 0 0 0 0 0 0 0 0 0 0 0 0 0 0 0 0 127 0" result="hardAlpha"/>
<feOffset dy="-1.8197"/>
<feGaussianBlur stdDeviation="0.864358"/>
<feComposite in2="hardAlpha" operator="arithmetic" k2="-1" k3="1"/>
<feColorMatrix type="matrix" values="0 0 0 0 0 0 0 0 0 0 0 0 0 0 0 0 0 0 0.25 0"/>
<feBlend mode="normal" in2="shape" result="effect1_innerShadow_253_2"/>
</filter>
<filter id="filter7_i_253_2" x="153.615" y="449.093" width="217.454" height="3.5483" filterUnits="userSpaceOnUse" color-interpolation-filters="sRGB">
<feFlood flood-opacity="0" result="BackgroundImageFix"/>
<feBlend mode="normal" in="SourceGraphic" in2="BackgroundImageFix" result="shape"/>
<feColorMatrix in="SourceAlpha" type="matrix" values="0 0 0 0 0 0 0 0 0 0 0 0 0 0 0 0 0 0 127 0" result="hardAlpha"/>
<feOffset dy="-1.8197"/>
<feGaussianBlur stdDeviation="0.864358"/>
<feComposite in2="hardAlpha" operator="arithmetic" k2="-1" k3="1"/>
<feColorMatrix type="matrix" values="0 0 0 0 0 0 0 0 0 0 0 0 0 0 0 0 0 0 0.25 0"/>
<feBlend mode="normal" in2="shape" result="effect1_innerShadow_253_2"/>
</filter>
<filter id="filter8_i_253_2" x="153.615" y="452.733" width="217.454" height="3.5483" filterUnits="userSpaceOnUse" color-interpolation-filters="sRGB">
<feFlood flood-opacity="0" result="BackgroundImageFix"/>
<feBlend mode="normal" in="SourceGraphic" in2="BackgroundImageFix" result="shape"/>
<feColorMatrix in="SourceAlpha" type="matrix" values="0 0 0 0 0 0 0 0 0 0 0 0 0 0 0 0 0 0 127 0" result="hardAlpha"/>
<feOffset dy="-1.8197"/>
<feGaussianBlur stdDeviation="0.864358"/>
<feComposite in2="hardAlpha" operator="arithmetic" k2="-1" k3="1"/>
<feColorMatrix type="matrix" values="0 0 0 0 0 0 0 0 0 0 0 0 0 0 0 0 0 0 0.25 0"/>
<feBlend mode="normal" in2="shape" result="effect1_innerShadow_253_2"/>
</filter>
</defs>
</svg>
