<svg width="588" height="651" viewBox="0 0 588 651" fill="none" xmlns="http://www.w3.org/2000/svg">
<g filter="url(#filter0_d_256_497)">
<path d="M189.304 585.812C187.374 585.812 185.525 585.559 183.757 585.054C181.988 584.526 180.564 583.848 179.484 583.021L181.379 578.818C182.413 579.553 183.63 580.162 185.031 580.644C186.455 581.103 187.891 581.333 189.338 581.333C190.441 581.333 191.325 581.23 191.991 581.023C192.68 580.793 193.185 580.483 193.507 580.093C193.828 579.702 193.989 579.254 193.989 578.749C193.989 578.106 193.737 577.601 193.231 577.233C192.726 576.843 192.06 576.532 191.233 576.303C190.406 576.05 189.487 575.82 188.477 575.614C187.489 575.384 186.49 575.108 185.479 574.787C184.492 574.465 183.584 574.052 182.757 573.547C181.931 573.041 181.253 572.375 180.725 571.548C180.219 570.721 179.967 569.665 179.967 568.379C179.967 567 180.334 565.749 181.069 564.623C181.827 563.475 182.953 562.567 184.446 561.901C185.962 561.212 187.857 560.868 190.13 560.868C191.646 560.868 193.139 561.052 194.609 561.419C196.079 561.764 197.377 562.292 198.503 563.004L196.78 567.242C195.654 566.599 194.529 566.128 193.403 565.829C192.278 565.507 191.176 565.347 190.096 565.347C189.016 565.347 188.132 565.473 187.443 565.726C186.754 565.978 186.26 566.311 185.962 566.725C185.663 567.115 185.514 567.575 185.514 568.103C185.514 568.723 185.766 569.228 186.272 569.619C186.777 569.986 187.443 570.285 188.27 570.515C189.097 570.744 190.004 570.974 190.992 571.204C192.002 571.433 193.002 571.698 193.989 571.996C195 572.295 195.919 572.697 196.745 573.202C197.572 573.707 198.238 574.373 198.744 575.2C199.272 576.027 199.536 577.072 199.536 578.336C199.536 579.691 199.157 580.931 198.399 582.056C197.641 583.182 196.504 584.089 194.988 584.778C193.495 585.467 191.6 585.812 189.304 585.812ZM214.065 585.812C210.643 585.812 207.967 584.859 206.037 582.952C204.108 581.046 203.143 578.324 203.143 574.787V561.281H208.725V574.58C208.725 576.877 209.195 578.531 210.137 579.541C211.079 580.552 212.4 581.057 214.099 581.057C215.799 581.057 217.12 580.552 218.061 579.541C219.003 578.531 219.474 576.877 219.474 574.58V561.281H224.986V574.787C224.986 578.324 224.022 581.046 222.092 582.952C220.163 584.859 217.487 585.812 214.065 585.812ZM230.502 585.398V561.281H240.941C243.1 561.281 244.961 561.637 246.523 562.349C248.085 563.038 249.29 564.037 250.14 565.347C250.99 566.656 251.415 568.218 251.415 570.032C251.415 571.824 250.99 573.374 250.14 574.684C249.29 575.993 248.085 577.003 246.523 577.715C244.961 578.404 243.1 578.749 240.941 578.749H233.603L236.083 576.234V585.398H230.502ZM236.083 576.854L233.603 574.201H240.631C242.354 574.201 243.64 573.834 244.49 573.099C245.34 572.364 245.765 571.342 245.765 570.032C245.765 568.7 245.34 567.667 244.49 566.932C243.64 566.197 242.354 565.829 240.631 565.829H233.603L236.083 563.176V576.854ZM255.4 585.398V561.281H273.625V565.76H260.947V580.92H274.073V585.398H255.4ZM260.533 575.338V570.997H272.144V575.338H260.533ZM278.514 585.398V561.281H288.816C292.169 561.281 294.776 562.062 296.637 563.624C298.497 565.163 299.427 567.299 299.427 570.032C299.427 571.824 299.002 573.374 298.153 574.684C297.303 575.97 296.097 576.957 294.535 577.646C292.973 578.336 291.113 578.68 288.954 578.68H281.615L284.096 576.234V585.398H278.514ZM293.846 585.398L287.817 576.647H293.777L299.875 585.398H293.846ZM284.096 576.854L281.615 574.236H288.643C290.366 574.236 291.652 573.868 292.502 573.133C293.352 572.375 293.777 571.342 293.777 570.032C293.777 568.7 293.352 567.667 292.502 566.932C291.652 566.197 290.366 565.829 288.643 565.829H281.615L284.096 563.176V576.854ZM311.085 585.398L300.68 561.281H306.709L315.805 582.642H312.256L321.489 561.281H327.036L316.597 585.398H311.085ZM329.05 585.398V561.281H334.631V585.398H329.05ZM348.279 585.812C346.35 585.812 344.501 585.559 342.732 585.054C340.964 584.526 339.54 583.848 338.46 583.021L340.355 578.818C341.389 579.553 342.606 580.162 344.007 580.644C345.431 581.103 346.867 581.333 348.314 581.333C349.416 581.333 350.3 581.23 350.967 581.023C351.656 580.793 352.161 580.483 352.482 580.093C352.804 579.702 352.965 579.254 352.965 578.749C352.965 578.106 352.712 577.601 352.207 577.233C351.702 576.843 351.035 576.532 350.209 576.303C349.382 576.05 348.463 575.82 347.452 575.614C346.465 575.384 345.465 575.108 344.455 574.787C343.467 574.465 342.56 574.052 341.733 573.547C340.906 573.041 340.229 572.375 339.7 571.548C339.195 570.721 338.942 569.665 338.942 568.379C338.942 567 339.31 565.749 340.045 564.623C340.803 563.475 341.928 562.567 343.421 561.901C344.937 561.212 346.832 560.868 349.106 560.868C350.622 560.868 352.115 561.052 353.585 561.419C355.055 561.764 356.353 562.292 357.478 563.004L355.755 567.242C354.63 566.599 353.505 566.128 352.379 565.829C351.254 565.507 350.151 565.347 349.072 565.347C347.992 565.347 347.108 565.473 346.419 565.726C345.73 565.978 345.236 566.311 344.937 566.725C344.639 567.115 344.489 567.575 344.489 568.103C344.489 568.723 344.742 569.228 345.247 569.619C345.753 569.986 346.419 570.285 347.246 570.515C348.072 570.744 348.98 570.974 349.967 571.204C350.978 571.433 351.977 571.698 352.965 571.996C353.975 572.295 354.894 572.697 355.721 573.202C356.548 573.707 357.214 574.373 357.719 575.2C358.248 576.027 358.512 577.072 358.512 578.336C358.512 579.691 358.133 580.931 357.375 582.056C356.617 583.182 355.48 584.089 353.964 584.778C352.471 585.467 350.576 585.812 348.279 585.812ZM374.04 585.812C372.133 585.812 370.365 585.502 368.734 584.882C367.126 584.261 365.725 583.389 364.531 582.263C363.359 581.138 362.44 579.817 361.774 578.301C361.131 576.785 360.81 575.131 360.81 573.34C360.81 571.548 361.131 569.895 361.774 568.379C362.44 566.863 363.371 565.542 364.565 564.416C365.759 563.291 367.16 562.418 368.768 561.798C370.376 561.178 372.122 560.868 374.005 560.868C375.912 560.868 377.657 561.178 379.242 561.798C380.85 562.418 382.239 563.291 383.411 564.416C384.605 565.542 385.535 566.863 386.202 568.379C386.868 569.872 387.201 571.525 387.201 573.34C387.201 575.131 386.868 576.797 386.202 578.336C385.535 579.851 384.605 581.172 383.411 582.298C382.239 583.4 380.85 584.261 379.242 584.882C377.657 585.502 375.923 585.812 374.04 585.812ZM374.005 581.057C375.085 581.057 376.072 580.874 376.968 580.506C377.887 580.139 378.691 579.61 379.38 578.921C380.069 578.232 380.597 577.417 380.965 576.475C381.355 575.533 381.55 574.488 381.55 573.34C381.55 572.191 381.355 571.146 380.965 570.205C380.597 569.263 380.069 568.447 379.38 567.758C378.714 567.069 377.921 566.541 377.003 566.174C376.084 565.806 375.085 565.622 374.005 565.622C372.926 565.622 371.926 565.806 371.008 566.174C370.112 566.541 369.32 567.069 368.63 567.758C367.941 568.447 367.402 569.263 367.011 570.205C366.644 571.146 366.46 572.191 366.46 573.34C366.46 574.465 366.644 575.51 367.011 576.475C367.402 577.417 367.93 578.232 368.596 578.921C369.285 579.61 370.089 580.139 371.008 580.506C371.926 580.874 372.926 581.057 374.005 581.057ZM391.395 585.398V561.281H401.697C405.05 561.281 407.657 562.062 409.518 563.624C411.378 565.163 412.308 567.299 412.308 570.032C412.308 571.824 411.883 573.374 411.034 574.684C410.184 575.97 408.978 576.957 407.416 577.646C405.854 578.336 403.994 578.68 401.835 578.68H394.496L396.977 576.234V585.398H391.395ZM406.727 585.398L400.698 576.647H406.658L412.756 585.398H406.727ZM396.977 576.854L394.496 574.236H401.525C403.247 574.236 404.533 573.868 405.383 573.133C406.233 572.375 406.658 571.342 406.658 570.032C406.658 568.7 406.233 567.667 405.383 566.932C404.533 566.197 403.247 565.829 401.525 565.829H394.496L396.977 563.176V576.854Z" fill="white"/>
</g>
<path d="M46.8641 77.9766V60.4766H54.3391C56.7724 60.4766 58.6641 61.0432 60.0141 62.1766C61.3641 63.2932 62.0391 64.8432 62.0391 66.8266C62.0391 68.1266 61.7307 69.2516 61.1141 70.2016C60.4974 71.1349 59.6224 71.8516 58.4891 72.3516C57.3557 72.8516 56.0057 73.1016 54.4391 73.1016H49.1141L50.9141 71.3266V77.9766H46.8641ZM57.9891 77.9766L53.6141 71.6266H57.9391L62.3641 77.9766H57.9891ZM50.9141 71.7766L49.1141 69.8766H54.2141C55.4641 69.8766 56.3974 69.6099 57.0141 69.0766C57.6307 68.5266 57.9391 67.7766 57.9391 66.8266C57.9391 65.8599 57.6307 65.1099 57.0141 64.5766C56.3974 64.0432 55.4641 63.7766 54.2141 63.7766H49.1141L50.9141 61.8516V71.7766ZM65.2479 77.9766V60.4766H78.4729V63.7266H69.2729V74.7266H78.7979V77.9766H65.2479ZM68.9729 70.6766V67.5266H77.3979V70.6766H68.9729ZM87.7703 78.2766C86.3703 78.2766 85.0286 78.0932 83.7453 77.7266C82.462 77.3432 81.4286 76.8516 80.6453 76.2516L82.0203 73.2016C82.7703 73.7349 83.6536 74.1766 84.6703 74.5266C85.7036 74.8599 86.7453 75.0266 87.7953 75.0266C88.5953 75.0266 89.237 74.9516 89.7203 74.8016C90.2203 74.6349 90.587 74.4099 90.8203 74.1266C91.0536 73.8432 91.1703 73.5182 91.1703 73.1516C91.1703 72.6849 90.987 72.3182 90.6203 72.0516C90.2536 71.7682 89.7703 71.5432 89.1703 71.3766C88.5703 71.1932 87.9036 71.0266 87.1703 70.8766C86.4536 70.7099 85.7286 70.5099 84.9953 70.2766C84.2786 70.0432 83.6203 69.7432 83.0203 69.3766C82.4203 69.0099 81.9286 68.5266 81.5453 67.9266C81.1786 67.3266 80.9953 66.5599 80.9953 65.6266C80.9953 64.6266 81.262 63.7182 81.7953 62.9016C82.3453 62.0682 83.162 61.4099 84.2453 60.9266C85.3453 60.4266 86.7203 60.1766 88.3703 60.1766C89.4703 60.1766 90.5536 60.3099 91.6203 60.5766C92.687 60.8266 93.6286 61.2099 94.4453 61.7266L93.1953 64.8016C92.3786 64.3349 91.562 63.9932 90.7453 63.7766C89.9286 63.5432 89.1286 63.4266 88.3453 63.4266C87.562 63.4266 86.9203 63.5182 86.4203 63.7016C85.9203 63.8849 85.562 64.1266 85.3453 64.4266C85.1286 64.7099 85.0203 65.0432 85.0203 65.4266C85.0203 65.8766 85.2036 66.2432 85.5703 66.5266C85.937 66.7932 86.4203 67.0099 87.0203 67.1766C87.6203 67.3432 88.2786 67.5099 88.9953 67.6766C89.7286 67.8432 90.4536 68.0349 91.1703 68.2516C91.9036 68.4682 92.5703 68.7599 93.1703 69.1266C93.7703 69.4932 94.2536 69.9766 94.6203 70.5766C95.0036 71.1766 95.1953 71.9349 95.1953 72.8516C95.1953 73.8349 94.9203 74.7349 94.3703 75.5516C93.8203 76.3682 92.9953 77.0266 91.8953 77.5266C90.812 78.0266 89.437 78.2766 87.7703 78.2766ZM106.463 78.2766C105.079 78.2766 103.796 78.0516 102.613 77.6016C101.446 77.1516 100.429 76.5182 99.5627 75.7016C98.7127 74.8849 98.046 73.9266 97.5627 72.8266C97.096 71.7266 96.8627 70.5266 96.8627 69.2266C96.8627 67.9266 97.096 66.7266 97.5627 65.6266C98.046 64.5266 98.721 63.5682 99.5877 62.7516C100.454 61.9349 101.471 61.3016 102.638 60.8516C103.804 60.4016 105.071 60.1766 106.438 60.1766C107.821 60.1766 109.088 60.4016 110.238 60.8516C111.404 61.3016 112.413 61.9349 113.263 62.7516C114.129 63.5682 114.804 64.5266 115.288 65.6266C115.771 66.7099 116.013 67.9099 116.013 69.2266C116.013 70.5266 115.771 71.7349 115.288 72.8516C114.804 73.9516 114.129 74.9099 113.263 75.7266C112.413 76.5266 111.404 77.1516 110.238 77.6016C109.088 78.0516 107.829 78.2766 106.463 78.2766ZM106.438 74.8266C107.221 74.8266 107.938 74.6932 108.588 74.4266C109.254 74.1599 109.838 73.7766 110.338 73.2766C110.838 72.7766 111.221 72.1849 111.488 71.5016C111.771 70.8182 111.913 70.0599 111.913 69.2266C111.913 68.3932 111.771 67.6349 111.488 66.9516C111.221 66.2682 110.838 65.6766 110.338 65.1766C109.854 64.6766 109.279 64.2932 108.613 64.0266C107.946 63.7599 107.221 63.6266 106.438 63.6266C105.654 63.6266 104.929 63.7599 104.263 64.0266C103.613 64.2932 103.038 64.6766 102.538 65.1766C102.038 65.6766 101.646 66.2682 101.363 66.9516C101.096 67.6349 100.963 68.3932 100.963 69.2266C100.963 70.0432 101.096 70.8016 101.363 71.5016C101.646 72.1849 102.029 72.7766 102.513 73.2766C103.013 73.7766 103.596 74.1599 104.263 74.4266C104.929 74.6932 105.654 74.8266 106.438 74.8266ZM126.831 78.2766C124.348 78.2766 122.406 77.5849 121.006 76.2016C119.606 74.8182 118.906 72.8432 118.906 70.2766V60.4766H122.956V70.1266C122.956 71.7932 123.298 72.9932 123.981 73.7266C124.665 74.4599 125.623 74.8266 126.856 74.8266C128.09 74.8266 129.048 74.4599 129.731 73.7266C130.415 72.9932 130.756 71.7932 130.756 70.1266V60.4766H134.756V70.2766C134.756 72.8432 134.056 74.8182 132.656 76.2016C131.256 77.5849 129.315 78.2766 126.831 78.2766ZM138.759 77.9766V60.4766H146.234C148.667 60.4766 150.559 61.0432 151.909 62.1766C153.259 63.2932 153.934 64.8432 153.934 66.8266C153.934 68.1266 153.625 69.2516 153.009 70.2016C152.392 71.1349 151.517 71.8516 150.384 72.3516C149.25 72.8516 147.9 73.1016 146.334 73.1016H141.009L142.809 71.3266V77.9766H138.759ZM149.884 77.9766L145.509 71.6266H149.834L154.259 77.9766H149.884ZM142.809 71.7766L141.009 69.8766H146.109C147.359 69.8766 148.292 69.6099 148.909 69.0766C149.525 68.5266 149.834 67.7766 149.834 66.8266C149.834 65.8599 149.525 65.1099 148.909 64.5766C148.292 64.0432 147.359 63.7766 146.109 63.7766H141.009L142.809 61.8516V71.7766ZM165.517 78.2766C164.167 78.2766 162.909 78.0599 161.742 77.6266C160.592 77.1766 159.592 76.5432 158.742 75.7266C157.892 74.9099 157.226 73.9516 156.742 72.8516C156.276 71.7516 156.042 70.5432 156.042 69.2266C156.042 67.9099 156.276 66.7016 156.742 65.6016C157.226 64.5016 157.892 63.5432 158.742 62.7266C159.609 61.9099 160.617 61.2849 161.767 60.8516C162.917 60.4016 164.176 60.1766 165.542 60.1766C167.059 60.1766 168.426 60.4432 169.642 60.9766C170.876 61.4932 171.909 62.2599 172.742 63.2766L170.142 65.6766C169.542 64.9932 168.876 64.4849 168.142 64.1516C167.409 63.8016 166.609 63.6266 165.742 63.6266C164.926 63.6266 164.176 63.7599 163.492 64.0266C162.809 64.2932 162.217 64.6766 161.717 65.1766C161.217 65.6766 160.826 66.2682 160.542 66.9516C160.276 67.6349 160.142 68.3932 160.142 69.2266C160.142 70.0599 160.276 70.8182 160.542 71.5016C160.826 72.1849 161.217 72.7766 161.717 73.2766C162.217 73.7766 162.809 74.1599 163.492 74.4266C164.176 74.6932 164.926 74.8266 165.742 74.8266C166.609 74.8266 167.409 74.6599 168.142 74.3266C168.876 73.9766 169.542 73.4516 170.142 72.7516L172.742 75.1516C171.909 76.1682 170.876 76.9432 169.642 77.4766C168.426 78.0099 167.051 78.2766 165.517 78.2766ZM175.233 77.9766V60.4766H188.458V63.7266H179.258V74.7266H188.783V77.9766H175.233ZM178.958 70.6766V67.5266H187.383V70.6766H178.958ZM60.3141 108.277L50.1391 98.8266C49.5557 98.2932 49.0891 97.7932 48.7391 97.3266C48.3891 96.8599 48.1307 96.4016 47.9641 95.9516C47.8141 95.5016 47.7391 95.0349 47.7391 94.5516C47.7391 93.7016 47.9641 92.9516 48.4141 92.3016C48.8641 91.6516 49.4974 91.1516 50.3141 90.8016C51.1307 90.4349 52.0891 90.2516 53.1891 90.2516C54.2057 90.2516 55.0807 90.4182 55.8141 90.7516C56.5641 91.0682 57.1474 91.5266 57.5641 92.1266C57.9974 92.7266 58.2141 93.4432 58.2141 94.2766C58.2141 95.0099 58.0307 95.6849 57.6641 96.3016C57.2974 96.9016 56.7224 97.4682 55.9391 98.0016C55.1724 98.5349 54.1641 99.0766 52.9141 99.6266C52.0641 100.01 51.3891 100.385 50.8891 100.752C50.4057 101.102 50.0557 101.46 49.8391 101.827C49.6224 102.193 49.5141 102.602 49.5141 103.052C49.5141 103.468 49.6391 103.843 49.8891 104.177C50.1557 104.51 50.5224 104.768 50.9891 104.952C51.4557 105.135 52.0057 105.227 52.6391 105.227C53.6557 105.227 54.5891 104.993 55.4391 104.527C56.2891 104.043 57.0057 103.335 57.5891 102.402C58.1891 101.452 58.6141 100.302 58.8641 98.9516L61.9891 99.9266C61.6391 101.627 61.0141 103.102 60.1141 104.352C59.2141 105.602 58.1057 106.568 56.7891 107.252C55.4724 107.935 53.9974 108.277 52.3641 108.277C51.0807 108.277 49.9391 108.068 48.9391 107.652C47.9391 107.235 47.1474 106.668 46.5641 105.952C45.9807 105.235 45.6891 104.41 45.6891 103.477C45.6891 102.61 45.8807 101.835 46.2641 101.152C46.6474 100.452 47.2557 99.8016 48.0891 99.2016C48.9224 98.5849 49.9807 97.9849 51.2641 97.4016C52.1974 96.9682 52.9307 96.5849 53.4641 96.2516C53.9974 95.9182 54.3724 95.6016 54.5891 95.3016C54.8057 94.9849 54.9141 94.6682 54.9141 94.3516C54.9141 93.9182 54.7641 93.5682 54.4641 93.3016C54.1807 93.0349 53.7557 92.9016 53.1891 92.9016C52.5891 92.9016 52.1224 93.0516 51.7891 93.3516C51.4557 93.6516 51.2891 94.0349 51.2891 94.5016C51.2891 94.7516 51.3391 95.0016 51.4391 95.2516C51.5391 95.4849 51.7307 95.7599 52.0141 96.0766C52.2974 96.3766 52.6974 96.7682 53.2141 97.2516L62.4391 105.802L60.3141 108.277ZM72.1326 107.977V90.4766H80.0826C81.9826 90.4766 83.6576 90.8432 85.1076 91.5766C86.5576 92.2932 87.691 93.3016 88.5076 94.6016C89.3243 95.9016 89.7326 97.4432 89.7326 99.2266C89.7326 100.993 89.3243 102.535 88.5076 103.852C87.691 105.152 86.5576 106.168 85.1076 106.902C83.6576 107.618 81.9826 107.977 80.0826 107.977H72.1326ZM76.1826 104.652H79.8826C81.0493 104.652 82.0576 104.435 82.9076 104.002C83.7743 103.552 84.441 102.918 84.9076 102.102C85.391 101.285 85.6326 100.327 85.6326 99.2266C85.6326 98.1099 85.391 97.1516 84.9076 96.3516C84.441 95.5349 83.7743 94.9099 82.9076 94.4766C82.0576 94.0266 81.0493 93.8016 79.8826 93.8016H76.1826V104.652ZM92.7869 107.977V90.4766H106.012V93.7266H96.8119V104.727H106.337V107.977H92.7869ZM96.5119 100.677V97.5266H104.937V100.677H96.5119ZM114.565 107.977L107.015 90.4766H111.39L117.99 105.977H115.415L122.115 90.4766H126.14L118.565 107.977H114.565ZM127.601 107.977V90.4766H140.826V93.7266H131.626V104.727H141.151V107.977H127.601ZM131.326 100.677V97.5266H139.751V100.677H131.326ZM144.374 107.977V90.4766H148.424V104.677H157.199V107.977H144.374ZM167.669 108.277C166.285 108.277 165.002 108.052 163.819 107.602C162.652 107.152 161.635 106.518 160.769 105.702C159.919 104.885 159.252 103.927 158.769 102.827C158.302 101.727 158.069 100.527 158.069 99.2266C158.069 97.9266 158.302 96.7266 158.769 95.6266C159.252 94.5266 159.927 93.5682 160.794 92.7516C161.66 91.9349 162.677 91.3016 163.844 90.8516C165.01 90.4016 166.277 90.1766 167.644 90.1766C169.027 90.1766 170.294 90.4016 171.444 90.8516C172.61 91.3016 173.619 91.9349 174.469 92.7516C175.335 93.5682 176.01 94.5266 176.494 95.6266C176.977 96.7099 177.219 97.9099 177.219 99.2266C177.219 100.527 176.977 101.735 176.494 102.852C176.01 103.952 175.335 104.91 174.469 105.727C173.619 106.527 172.61 107.152 171.444 107.602C170.294 108.052 169.035 108.277 167.669 108.277ZM167.644 104.827C168.427 104.827 169.144 104.693 169.794 104.427C170.46 104.16 171.044 103.777 171.544 103.277C172.044 102.777 172.427 102.185 172.694 101.502C172.977 100.818 173.119 100.06 173.119 99.2266C173.119 98.3932 172.977 97.6349 172.694 96.9516C172.427 96.2682 172.044 95.6766 171.544 95.1766C171.06 94.6766 170.485 94.2932 169.819 94.0266C169.152 93.7599 168.427 93.6266 167.644 93.6266C166.86 93.6266 166.135 93.7599 165.469 94.0266C164.819 94.2932 164.244 94.6766 163.744 95.1766C163.244 95.6766 162.852 96.2682 162.569 96.9516C162.302 97.6349 162.169 98.3932 162.169 99.2266C162.169 100.043 162.302 100.802 162.569 101.502C162.852 102.185 163.235 102.777 163.719 103.277C164.219 103.777 164.802 104.16 165.469 104.427C166.135 104.693 166.86 104.827 167.644 104.827ZM180.263 107.977V90.4766H187.838C189.404 90.4766 190.754 90.7349 191.888 91.2516C193.021 91.7516 193.896 92.4766 194.513 93.4266C195.129 94.3766 195.438 95.5099 195.438 96.8266C195.438 98.1266 195.129 99.2516 194.513 100.202C193.896 101.152 193.021 101.885 191.888 102.402C190.754 102.902 189.404 103.152 187.838 103.152H182.513L184.313 101.327V107.977H180.263ZM184.313 101.777L182.513 99.8516H187.613C188.863 99.8516 189.796 99.5849 190.413 99.0516C191.029 98.5182 191.338 97.7766 191.338 96.8266C191.338 95.8599 191.029 95.1099 190.413 94.5766C189.796 94.0432 188.863 93.7766 187.613 93.7766H182.513L184.313 91.8516V101.777ZM198.329 107.977V90.4766H201.679L209.129 102.827H207.354L214.679 90.4766H218.004L218.054 107.977H214.254L214.229 96.3016H214.929L209.079 106.127H207.254L201.279 96.3016H202.129V107.977H198.329ZM222.206 107.977V90.4766H235.431V93.7266H226.231V104.727H235.756V107.977H222.206ZM225.931 100.677V97.5266H234.356V100.677H225.931ZM238.978 107.977V90.4766H242.328L252.653 103.077H251.028V90.4766H255.028V107.977H251.703L241.353 95.3766H242.978V107.977H238.978ZM262.794 107.977V93.7766H257.194V90.4766H272.444V93.7766H266.844V107.977H262.794Z" fill="white"/>
<path d="M324.705 354.397C324.705 371.133 309.845 384.7 291.513 384.7C273.181 384.7 258.32 371.133 258.32 354.397C258.32 337.66 273.181 324.093 291.513 324.093C309.845 324.093 324.705 337.66 324.705 354.397Z" fill="#A68CD3"/>
<path fill-rule="evenodd" clip-rule="evenodd" d="M349.96 462.012C349.96 415.728 323.793 378.207 291.513 378.207C259.233 378.207 233.065 415.728 233.065 462.012C255.891 462.012 268.565 472.004 291.513 472.004C314.46 472.004 327.135 462.012 349.96 462.012Z" fill="#A68CD3"/>
<path d="M205.64 343.224C205.64 361.754 190.779 376.775 172.447 376.775C154.116 376.775 139.255 361.754 139.255 343.224C139.255 324.694 154.116 309.673 172.447 309.673C190.779 309.673 205.64 324.694 205.64 343.224Z" fill="#8646C4"/>
<path fill-rule="evenodd" clip-rule="evenodd" d="M230.895 462.39C230.895 411.121 204.727 369.56 172.447 369.56C140.168 369.56 114 411.121 114 462.39C136.825 462.39 149.5 473.458 172.447 473.458C195.395 473.458 208.07 462.39 230.895 462.39Z" fill="#8646C4"/>
<path d="M448.82 343.224C448.82 361.754 433.96 376.775 415.628 376.775C397.296 376.775 382.436 361.754 382.436 343.224C382.436 324.694 397.296 309.673 415.628 309.673C433.96 309.673 448.82 324.694 448.82 343.224Z" fill="#8646C4"/>
<path fill-rule="evenodd" clip-rule="evenodd" d="M474.076 462.39C474.076 411.121 447.908 369.56 415.628 369.56C383.348 369.56 357.181 411.121 357.181 462.39C380.006 462.39 392.681 473.458 415.628 473.458C438.576 473.458 451.25 462.39 474.076 462.39Z" fill="#8646C4"/>
<path d="M390.377 333.818C390.377 352.347 375.516 367.368 357.185 367.368C338.853 367.368 323.992 352.347 323.992 333.818C323.992 315.288 338.853 300.267 357.185 300.267C375.516 300.267 390.377 315.288 390.377 333.818Z" fill="#BA75DF"/>
<path fill-rule="evenodd" clip-rule="evenodd" d="M415.632 452.984C415.632 401.715 389.464 360.153 357.185 360.153C324.905 360.153 298.737 401.715 298.737 452.984C321.562 452.984 334.237 464.052 357.185 464.052C380.132 464.052 392.807 452.984 415.632 452.984Z" fill="#BA75DF"/>
<path d="M263.357 333.818C263.357 352.347 248.496 367.368 230.164 367.368C211.833 367.368 196.972 352.347 196.972 333.818C196.972 315.288 211.833 300.267 230.164 300.267C248.496 300.267 263.357 315.288 263.357 333.818Z" fill="#BA75DF"/>
<path fill-rule="evenodd" clip-rule="evenodd" d="M288.612 452.984C288.612 401.715 262.444 360.153 230.164 360.153C197.885 360.153 171.717 401.715 171.717 452.984C194.542 452.984 207.217 464.052 230.164 464.052C253.112 464.052 265.787 452.984 288.612 452.984Z" fill="#BA75DF"/>
<path d="M332.57 290.825C332.57 313.894 313.868 332.594 290.798 332.594C267.728 332.594 249.026 313.894 249.026 290.825C249.026 267.757 267.728 249.056 290.798 249.056C313.868 249.056 332.57 267.757 332.57 290.825Z" fill="#A68CD3"/>
<path fill-rule="evenodd" clip-rule="evenodd" d="M363.677 456.68C363.677 392.874 331.048 323.707 290.798 323.707C250.548 323.707 217.919 392.874 217.919 456.68C246.38 456.68 262.184 470.455 290.798 470.455C319.411 470.455 335.216 456.68 363.677 456.68Z" fill="#A68CD3"/>
<path d="M285.805 206.132L274.487 229.838L329.067 241.158L333.113 215.913L315.705 216.036L285.805 206.132Z" fill="#7ED8FE"/>
<path d="M279.726 218.244L274.917 226.81C285.129 228.996 302.823 233.314 310.797 235.02C319.583 236.9 318.78 236.538 330.032 238.946L331.511 228.952L312.647 227.881L279.726 218.244Z" fill="#275DCF"/>
<path d="M299.284 230.529C320.748 234.76 351.611 246.525 351.494 247.843C351.376 249.162 316.169 244.278 295.499 239.487C276.37 235.054 249.767 226.809 250.278 225.484C250.79 224.158 280.284 226.784 299.284 230.529Z" fill="#7ED8FE"/>
<path d="M285.805 206.132L274.487 229.838L329.067 241.158L333.113 215.913L315.705 216.036L285.805 206.132Z" fill="#A68CD3"/>
<path d="M279.726 218.244L274.917 226.81C285.129 228.996 302.823 233.314 310.797 235.02C319.583 236.9 318.78 236.538 330.032 238.946L331.511 228.952L312.647 227.881L279.726 218.244Z" fill="#8646C4"/>
<path d="M299.284 230.528C327.957 236.062 351.047 247.606 351.047 247.606C351.047 247.606 343.11 249.725 295.498 239.486C269.509 233.897 250.278 225.482 250.278 225.482C250.278 225.482 270.761 225.023 299.284 230.528Z" fill="#A68CD3"/>
<defs>
<filter id="filter0_d_256_497" x="179.484" y="560.868" width="233.271" height="28.3896" filterUnits="userSpaceOnUse" color-interpolation-filters="sRGB">
<feFlood flood-opacity="0" result="BackgroundImageFix"/>
<feColorMatrix in="SourceAlpha" type="matrix" values="0 0 0 0 0 0 0 0 0 0 0 0 0 0 0 0 0 0 127 0" result="hardAlpha"/>
<feOffset dy="3.44531"/>
<feComposite in2="hardAlpha" operator="out"/>
<feColorMatrix type="matrix" values="0 0 0 0 0.666536 0 0 0 0 0.211765 0 0 0 0 0.768627 0 0 0 1 0"/>
<feBlend mode="normal" in2="BackgroundImageFix" result="effect1_dropShadow_256_497"/>
<feBlend mode="normal" in="SourceGraphic" in2="effect1_dropShadow_256_497" result="shape"/>
</filter>
</defs>
</svg>
