<svg width="588" height="651" viewBox="0 0 588 651" fill="none" xmlns="http://www.w3.org/2000/svg">
<g clip-path="url(#clip0_256_283)">
<g filter="url(#filter0_d_256_283)">
<path d="M115.923 585.398L108.033 561.281H113.821L120.677 582.642H117.783L124.95 561.281H130.118L137.008 582.642H134.217L141.246 561.281H146.586L138.696 585.398H132.702L126.603 566.656H128.188L121.918 585.398H115.923ZM149.702 585.398V561.281H167.928V565.76H155.249V580.92H168.376V585.398H149.702ZM154.835 575.338V570.997H166.446V575.338H154.835ZM172.817 585.398V561.281H184.599C187.631 561.281 189.905 561.855 191.421 563.004C192.96 564.152 193.73 565.668 193.73 567.552C193.73 568.815 193.419 569.917 192.799 570.859C192.179 571.778 191.329 572.49 190.25 572.995C189.17 573.501 187.93 573.753 186.529 573.753L187.183 572.341C188.699 572.341 190.043 572.593 191.214 573.099C192.386 573.581 193.293 574.305 193.936 575.269C194.602 576.234 194.935 577.417 194.935 578.818C194.935 580.885 194.12 582.504 192.489 583.676C190.858 584.824 188.458 585.398 185.289 585.398H172.817ZM178.363 581.195H184.875C186.322 581.195 187.413 580.965 188.148 580.506C188.906 580.024 189.285 579.266 189.285 578.232C189.285 577.222 188.906 576.475 188.148 575.993C187.413 575.487 186.322 575.235 184.875 575.235H177.95V571.169H183.91C185.266 571.169 186.299 570.94 187.011 570.48C187.746 569.998 188.114 569.274 188.114 568.31C188.114 567.368 187.746 566.667 187.011 566.208C186.299 565.726 185.266 565.485 183.91 565.485H178.363V581.195ZM208.918 585.398V561.281H219.874C222.493 561.281 224.801 561.787 226.799 562.797C228.798 563.785 230.36 565.174 231.485 566.966C232.611 568.758 233.173 570.882 233.173 573.34C233.173 575.775 232.611 577.899 231.485 579.714C230.36 581.505 228.798 582.906 226.799 583.917C224.801 584.905 222.493 585.398 219.874 585.398H208.918ZM214.5 580.816H219.599C221.207 580.816 222.596 580.518 223.768 579.92C224.962 579.3 225.881 578.427 226.524 577.302C227.19 576.176 227.523 574.856 227.523 573.34C227.523 571.801 227.19 570.48 226.524 569.378C225.881 568.252 224.962 567.391 223.768 566.794C222.596 566.174 221.207 565.864 219.599 565.864H214.5V580.816ZM237.382 585.398V561.281H255.608V565.76H242.929V580.92H256.056V585.398H237.382ZM242.516 575.338V570.997H254.127V575.338H242.516ZM267.396 585.398L256.991 561.281H263.02L272.116 582.642H268.567L277.801 561.281H283.348L272.908 585.398H267.396ZM285.361 585.398V561.281H303.587V565.76H290.908V580.92H304.035V585.398H285.361ZM290.495 575.338V570.997H302.105V575.338H290.495ZM308.476 585.398V561.281H314.057V580.851H326.15V585.398H308.476ZM340.579 585.812C338.673 585.812 336.904 585.502 335.273 584.882C333.665 584.261 332.264 583.389 331.07 582.263C329.899 581.138 328.98 579.817 328.314 578.301C327.671 576.785 327.349 575.131 327.349 573.34C327.349 571.548 327.671 569.895 328.314 568.379C328.98 566.863 329.91 565.542 331.104 564.416C332.299 563.291 333.7 562.418 335.308 561.798C336.915 561.178 338.661 560.868 340.545 560.868C342.451 560.868 344.197 561.178 345.781 561.798C347.389 562.418 348.779 563.291 349.95 564.416C351.145 565.542 352.075 566.863 352.741 568.379C353.407 569.872 353.74 571.525 353.74 573.34C353.74 575.131 353.407 576.797 352.741 578.336C352.075 579.851 351.145 581.172 349.95 582.298C348.779 583.4 347.389 584.261 345.781 584.882C344.197 585.502 342.462 585.812 340.579 585.812ZM340.545 581.057C341.624 581.057 342.612 580.874 343.508 580.506C344.426 580.139 345.23 579.61 345.919 578.921C346.608 578.232 347.137 577.417 347.504 576.475C347.895 575.533 348.09 574.488 348.09 573.34C348.09 572.191 347.895 571.146 347.504 570.205C347.137 569.263 346.608 568.447 345.919 567.758C345.253 567.069 344.461 566.541 343.542 566.174C342.623 565.806 341.624 565.622 340.545 565.622C339.465 565.622 338.466 565.806 337.547 566.174C336.651 566.541 335.859 567.069 335.17 567.758C334.481 568.447 333.941 569.263 333.551 570.205C333.183 571.146 332.999 572.191 332.999 573.34C332.999 574.465 333.183 575.51 333.551 576.475C333.941 577.417 334.469 578.232 335.135 578.921C335.824 579.61 336.628 580.139 337.547 580.506C338.466 580.874 339.465 581.057 340.545 581.057ZM357.935 585.398V561.281H368.374C370.533 561.281 372.394 561.637 373.955 562.349C375.517 563.038 376.723 564.037 377.573 565.347C378.423 566.656 378.848 568.218 378.848 570.032C378.848 571.824 378.423 573.374 377.573 574.684C376.723 575.993 375.517 577.003 373.955 577.715C372.394 578.404 370.533 578.749 368.374 578.749H361.036L363.516 576.234V585.398H357.935ZM363.516 576.854L361.036 574.201H368.064C369.787 574.201 371.073 573.834 371.923 573.099C372.773 572.364 373.198 571.342 373.198 570.032C373.198 568.7 372.773 567.667 371.923 566.932C371.073 566.197 369.787 565.829 368.064 565.829H361.036L363.516 563.176V576.854ZM382.833 585.398V561.281H387.449L397.716 578.301H395.27L405.365 561.281H409.947L410.016 585.398H404.779L404.745 569.309H405.709L397.647 582.849H395.132L386.898 569.309H388.069V585.398H382.833ZM415.738 585.398V561.281H433.964V565.76H421.285V580.92H434.412V585.398H415.738ZM420.871 575.338V570.997H432.482V575.338H420.871ZM438.853 585.398V561.281H443.469L457.698 578.646H455.459V561.281H460.971V585.398H456.389L442.126 568.034H444.365V585.398H438.853ZM471.673 585.398V565.829H463.956V561.281H484.972V565.829H477.255V585.398H471.673Z" fill="white"/>
</g>
<path d="M46.8641 77.9766V60.4766H54.3391C56.7724 60.4766 58.6641 61.0432 60.0141 62.1766C61.3641 63.2932 62.0391 64.8432 62.0391 66.8266C62.0391 68.1266 61.7307 69.2516 61.1141 70.2016C60.4974 71.1349 59.6224 71.8516 58.4891 72.3516C57.3557 72.8516 56.0057 73.1016 54.4391 73.1016H49.1141L50.9141 71.3266V77.9766H46.8641ZM57.9891 77.9766L53.6141 71.6266H57.9391L62.3641 77.9766H57.9891ZM50.9141 71.7766L49.1141 69.8766H54.2141C55.4641 69.8766 56.3974 69.6099 57.0141 69.0766C57.6307 68.5266 57.9391 67.7766 57.9391 66.8266C57.9391 65.8599 57.6307 65.1099 57.0141 64.5766C56.3974 64.0432 55.4641 63.7766 54.2141 63.7766H49.1141L50.9141 61.8516V71.7766ZM65.2479 77.9766V60.4766H78.4729V63.7266H69.2729V74.7266H78.7979V77.9766H65.2479ZM68.9729 70.6766V67.5266H77.3979V70.6766H68.9729ZM87.7703 78.2766C86.3703 78.2766 85.0286 78.0932 83.7453 77.7266C82.462 77.3432 81.4286 76.8516 80.6453 76.2516L82.0203 73.2016C82.7703 73.7349 83.6536 74.1766 84.6703 74.5266C85.7036 74.8599 86.7453 75.0266 87.7953 75.0266C88.5953 75.0266 89.237 74.9516 89.7203 74.8016C90.2203 74.6349 90.587 74.4099 90.8203 74.1266C91.0536 73.8432 91.1703 73.5182 91.1703 73.1516C91.1703 72.6849 90.987 72.3182 90.6203 72.0516C90.2536 71.7682 89.7703 71.5432 89.1703 71.3766C88.5703 71.1932 87.9036 71.0266 87.1703 70.8766C86.4536 70.7099 85.7286 70.5099 84.9953 70.2766C84.2786 70.0432 83.6203 69.7432 83.0203 69.3766C82.4203 69.0099 81.9286 68.5266 81.5453 67.9266C81.1786 67.3266 80.9953 66.5599 80.9953 65.6266C80.9953 64.6266 81.262 63.7182 81.7953 62.9016C82.3453 62.0682 83.162 61.4099 84.2453 60.9266C85.3453 60.4266 86.7203 60.1766 88.3703 60.1766C89.4703 60.1766 90.5536 60.3099 91.6203 60.5766C92.687 60.8266 93.6286 61.2099 94.4453 61.7266L93.1953 64.8016C92.3786 64.3349 91.562 63.9932 90.7453 63.7766C89.9286 63.5432 89.1286 63.4266 88.3453 63.4266C87.562 63.4266 86.9203 63.5182 86.4203 63.7016C85.9203 63.8849 85.562 64.1266 85.3453 64.4266C85.1286 64.7099 85.0203 65.0432 85.0203 65.4266C85.0203 65.8766 85.2036 66.2432 85.5703 66.5266C85.937 66.7932 86.4203 67.0099 87.0203 67.1766C87.6203 67.3432 88.2786 67.5099 88.9953 67.6766C89.7286 67.8432 90.4536 68.0349 91.1703 68.2516C91.9036 68.4682 92.5703 68.7599 93.1703 69.1266C93.7703 69.4932 94.2536 69.9766 94.6203 70.5766C95.0036 71.1766 95.1953 71.9349 95.1953 72.8516C95.1953 73.8349 94.9203 74.7349 94.3703 75.5516C93.8203 76.3682 92.9953 77.0266 91.8953 77.5266C90.812 78.0266 89.437 78.2766 87.7703 78.2766ZM97.9627 77.9766V60.4766H111.188V63.7266H101.988V74.7266H111.513V77.9766H97.9627ZM101.688 70.6766V67.5266H110.113V70.6766H101.688ZM112.435 77.9766L120.235 60.4766H124.235L132.06 77.9766H127.81L121.41 62.5266H123.01L116.585 77.9766H112.435ZM116.335 74.2266L117.41 71.1516H126.41L127.51 74.2266H116.335ZM133.876 77.9766V60.4766H141.351C143.784 60.4766 145.676 61.0432 147.026 62.1766C148.376 63.2932 149.051 64.8432 149.051 66.8266C149.051 68.1266 148.742 69.2516 148.126 70.2016C147.509 71.1349 146.634 71.8516 145.501 72.3516C144.367 72.8516 143.017 73.1016 141.451 73.1016H136.126L137.926 71.3266V77.9766H133.876ZM145.001 77.9766L140.626 71.6266H144.951L149.376 77.9766H145.001ZM137.926 71.7766L136.126 69.8766H141.226C142.476 69.8766 143.409 69.6099 144.026 69.0766C144.642 68.5266 144.951 67.7766 144.951 66.8266C144.951 65.8599 144.642 65.1099 144.026 64.5766C143.409 64.0432 142.476 63.7766 141.226 63.7766H136.126L137.926 61.8516V71.7766ZM160.635 78.2766C159.285 78.2766 158.026 78.0599 156.86 77.6266C155.71 77.1766 154.71 76.5432 153.86 75.7266C153.01 74.9099 152.343 73.9516 151.86 72.8516C151.393 71.7516 151.16 70.5432 151.16 69.2266C151.16 67.9099 151.393 66.7016 151.86 65.6016C152.343 64.5016 153.01 63.5432 153.86 62.7266C154.726 61.9099 155.735 61.2849 156.885 60.8516C158.035 60.4016 159.293 60.1766 160.66 60.1766C162.176 60.1766 163.543 60.4432 164.76 60.9766C165.993 61.4932 167.026 62.2599 167.86 63.2766L165.26 65.6766C164.66 64.9932 163.993 64.4849 163.26 64.1516C162.526 63.8016 161.726 63.6266 160.86 63.6266C160.043 63.6266 159.293 63.7599 158.61 64.0266C157.926 64.2932 157.335 64.6766 156.835 65.1766C156.335 65.6766 155.943 66.2682 155.66 66.9516C155.393 67.6349 155.26 68.3932 155.26 69.2266C155.26 70.0599 155.393 70.8182 155.66 71.5016C155.943 72.1849 156.335 72.7766 156.835 73.2766C157.335 73.7766 157.926 74.1599 158.61 74.4266C159.293 74.6932 160.043 74.8266 160.86 74.8266C161.726 74.8266 162.526 74.6599 163.26 74.3266C163.993 73.9766 164.66 73.4516 165.26 72.7516L167.86 75.1516C167.026 76.1682 165.993 76.9432 164.76 77.4766C163.543 78.0099 162.168 78.2766 160.635 78.2766ZM182.35 77.9766V60.4766H186.4V77.9766H182.35ZM170.35 77.9766V60.4766H174.4V77.9766H170.35ZM174.1 70.8016V67.3766H182.65V70.8016H174.1ZM60.3141 108.277L50.1391 98.8266C49.5557 98.2932 49.0891 97.7932 48.7391 97.3266C48.3891 96.8599 48.1307 96.4016 47.9641 95.9516C47.8141 95.5016 47.7391 95.0349 47.7391 94.5516C47.7391 93.7016 47.9641 92.9516 48.4141 92.3016C48.8641 91.6516 49.4974 91.1516 50.3141 90.8016C51.1307 90.4349 52.0891 90.2516 53.1891 90.2516C54.2057 90.2516 55.0807 90.4182 55.8141 90.7516C56.5641 91.0682 57.1474 91.5266 57.5641 92.1266C57.9974 92.7266 58.2141 93.4432 58.2141 94.2766C58.2141 95.0099 58.0307 95.6849 57.6641 96.3016C57.2974 96.9016 56.7224 97.4682 55.9391 98.0016C55.1724 98.5349 54.1641 99.0766 52.9141 99.6266C52.0641 100.01 51.3891 100.385 50.8891 100.752C50.4057 101.102 50.0557 101.46 49.8391 101.827C49.6224 102.193 49.5141 102.602 49.5141 103.052C49.5141 103.468 49.6391 103.843 49.8891 104.177C50.1557 104.51 50.5224 104.768 50.9891 104.952C51.4557 105.135 52.0057 105.227 52.6391 105.227C53.6557 105.227 54.5891 104.993 55.4391 104.527C56.2891 104.043 57.0057 103.335 57.5891 102.402C58.1891 101.452 58.6141 100.302 58.8641 98.9516L61.9891 99.9266C61.6391 101.627 61.0141 103.102 60.1141 104.352C59.2141 105.602 58.1057 106.568 56.7891 107.252C55.4724 107.935 53.9974 108.277 52.3641 108.277C51.0807 108.277 49.9391 108.068 48.9391 107.652C47.9391 107.235 47.1474 106.668 46.5641 105.952C45.9807 105.235 45.6891 104.41 45.6891 103.477C45.6891 102.61 45.8807 101.835 46.2641 101.152C46.6474 100.452 47.2557 99.8016 48.0891 99.2016C48.9224 98.5849 49.9807 97.9849 51.2641 97.4016C52.1974 96.9682 52.9307 96.5849 53.4641 96.2516C53.9974 95.9182 54.3724 95.6016 54.5891 95.3016C54.8057 94.9849 54.9141 94.6682 54.9141 94.3516C54.9141 93.9182 54.7641 93.5682 54.4641 93.3016C54.1807 93.0349 53.7557 92.9016 53.1891 92.9016C52.5891 92.9016 52.1224 93.0516 51.7891 93.3516C51.4557 93.6516 51.2891 94.0349 51.2891 94.5016C51.2891 94.7516 51.3391 95.0016 51.4391 95.2516C51.5391 95.4849 51.7307 95.7599 52.0141 96.0766C52.2974 96.3766 52.6974 96.7682 53.2141 97.2516L62.4391 105.802L60.3141 108.277ZM72.1326 107.977V90.4766H80.0826C81.9826 90.4766 83.6576 90.8432 85.1076 91.5766C86.5576 92.2932 87.691 93.3016 88.5076 94.6016C89.3243 95.9016 89.7326 97.4432 89.7326 99.2266C89.7326 100.993 89.3243 102.535 88.5076 103.852C87.691 105.152 86.5576 106.168 85.1076 106.902C83.6576 107.618 81.9826 107.977 80.0826 107.977H72.1326ZM76.1826 104.652H79.8826C81.0493 104.652 82.0576 104.435 82.9076 104.002C83.7743 103.552 84.441 102.918 84.9076 102.102C85.391 101.285 85.6326 100.327 85.6326 99.2266C85.6326 98.1099 85.391 97.1516 84.9076 96.3516C84.441 95.5349 83.7743 94.9099 82.9076 94.4766C82.0576 94.0266 81.0493 93.8016 79.8826 93.8016H76.1826V104.652ZM92.7869 107.977V90.4766H106.012V93.7266H96.8119V104.727H106.337V107.977H92.7869ZM96.5119 100.677V97.5266H104.937V100.677H96.5119ZM114.565 107.977L107.015 90.4766H111.39L117.99 105.977H115.415L122.115 90.4766H126.14L118.565 107.977H114.565ZM127.601 107.977V90.4766H140.826V93.7266H131.626V104.727H141.151V107.977H127.601ZM131.326 100.677V97.5266H139.751V100.677H131.326ZM144.374 107.977V90.4766H148.424V104.677H157.199V107.977H144.374ZM167.669 108.277C166.285 108.277 165.002 108.052 163.819 107.602C162.652 107.152 161.635 106.518 160.769 105.702C159.919 104.885 159.252 103.927 158.769 102.827C158.302 101.727 158.069 100.527 158.069 99.2266C158.069 97.9266 158.302 96.7266 158.769 95.6266C159.252 94.5266 159.927 93.5682 160.794 92.7516C161.66 91.9349 162.677 91.3016 163.844 90.8516C165.01 90.4016 166.277 90.1766 167.644 90.1766C169.027 90.1766 170.294 90.4016 171.444 90.8516C172.61 91.3016 173.619 91.9349 174.469 92.7516C175.335 93.5682 176.01 94.5266 176.494 95.6266C176.977 96.7099 177.219 97.9099 177.219 99.2266C177.219 100.527 176.977 101.735 176.494 102.852C176.01 103.952 175.335 104.91 174.469 105.727C173.619 106.527 172.61 107.152 171.444 107.602C170.294 108.052 169.035 108.277 167.669 108.277ZM167.644 104.827C168.427 104.827 169.144 104.693 169.794 104.427C170.46 104.16 171.044 103.777 171.544 103.277C172.044 102.777 172.427 102.185 172.694 101.502C172.977 100.818 173.119 100.06 173.119 99.2266C173.119 98.3932 172.977 97.6349 172.694 96.9516C172.427 96.2682 172.044 95.6766 171.544 95.1766C171.06 94.6766 170.485 94.2932 169.819 94.0266C169.152 93.7599 168.427 93.6266 167.644 93.6266C166.86 93.6266 166.135 93.7599 165.469 94.0266C164.819 94.2932 164.244 94.6766 163.744 95.1766C163.244 95.6766 162.852 96.2682 162.569 96.9516C162.302 97.6349 162.169 98.3932 162.169 99.2266C162.169 100.043 162.302 100.802 162.569 101.502C162.852 102.185 163.235 102.777 163.719 103.277C164.219 103.777 164.802 104.16 165.469 104.427C166.135 104.693 166.86 104.827 167.644 104.827ZM180.263 107.977V90.4766H187.838C189.404 90.4766 190.754 90.7349 191.888 91.2516C193.021 91.7516 193.896 92.4766 194.513 93.4266C195.129 94.3766 195.438 95.5099 195.438 96.8266C195.438 98.1266 195.129 99.2516 194.513 100.202C193.896 101.152 193.021 101.885 191.888 102.402C190.754 102.902 189.404 103.152 187.838 103.152H182.513L184.313 101.327V107.977H180.263ZM184.313 101.777L182.513 99.8516H187.613C188.863 99.8516 189.796 99.5849 190.413 99.0516C191.029 98.5182 191.338 97.7766 191.338 96.8266C191.338 95.8599 191.029 95.1099 190.413 94.5766C189.796 94.0432 188.863 93.7766 187.613 93.7766H182.513L184.313 91.8516V101.777ZM198.329 107.977V90.4766H201.679L209.129 102.827H207.354L214.679 90.4766H218.004L218.054 107.977H214.254L214.229 96.3016H214.929L209.079 106.127H207.254L201.279 96.3016H202.129V107.977H198.329ZM222.206 107.977V90.4766H235.431V93.7266H226.231V104.727H235.756V107.977H222.206ZM225.931 100.677V97.5266H234.356V100.677H225.931ZM238.978 107.977V90.4766H242.328L252.653 103.077H251.028V90.4766H255.028V107.977H251.703L241.353 95.3766H242.978V107.977H238.978ZM262.794 107.977V93.7766H257.194V90.4766H272.444V93.7766H266.844V107.977H262.794Z" fill="white"/>
<rect x="104.861" y="198.911" width="375.39" height="258.99" rx="9.1088" fill="#405290"/>
<rect x="109.711" y="204.73" width="365.69" height="248.32" rx="9.1088" fill="#F6FFFF"/>
<line x1="109.711" y1="227.673" x2="475.401" y2="227.673" stroke="#405290" stroke-width="4.5544"/>
<rect x="398.771" y="207.64" width="16.49" height="16.49" fill="#405290"/>
<rect x="421.081" y="207.64" width="16.49" height="16.49" fill="#405290"/>
<rect x="443.391" y="207.64" width="15.52" height="16.49" fill="#405290"/>
<line x1="402.65" y1="216.272" x2="412.35" y2="216.272" stroke="white" stroke-width="2.13707"/>
<rect x="425.599" y="211.82" width="7.94416" height="7.94416" stroke="white" stroke-width="2.13707"/>
<line x1="161.603" y1="392.425" x2="475.502" y2="392.425" stroke="#8646C4" stroke-width="6.4903"/>
<line x1="447.39" y1="219.993" x2="455.231" y2="212.152" stroke="white" stroke-width="2.37452"/>
<line y1="-1.18726" x2="11.0888" y2="-1.18726" transform="matrix(0.707107 0.707107 0.707107 -0.707107 448.229 211.424)" stroke="white" stroke-width="2.37452"/>
<line x1="164.593" y1="230.183" x2="164.593" y2="452.763" stroke="#405290" stroke-width="5.46528"/>
<line x1="115.452" y1="254.546" x2="152.406" y2="254.546" stroke="#BA75DF" stroke-width="4.5544"/>
<line x1="115.452" y1="254.546" x2="152.406" y2="254.546" stroke="#BA75DF" stroke-width="4.5544"/>
<line x1="115.453" y1="267.437" x2="137.797" y2="267.437" stroke="#BA75DF" stroke-width="4.5544"/>
<line x1="115.453" y1="267.437" x2="137.797" y2="267.437" stroke="#BA75DF" stroke-width="4.5544"/>
<line x1="115.454" y1="243.375" x2="152.408" y2="243.375" stroke="#BA75DF" stroke-width="4.5544"/>
<line x1="115.454" y1="243.375" x2="152.408" y2="243.375" stroke="#BA75DF" stroke-width="4.5544"/>
<line x1="177.328" y1="243.375" x2="220.297" y2="243.375" stroke="#3494CC" stroke-width="4.5544"/>
<line x1="177.328" y1="243.375" x2="220.297" y2="243.375" stroke="#8646C4" stroke-width="4.5544"/>
<line x1="191.938" y1="254.546" x2="261.547" y2="254.546" stroke="#3494CC" stroke-width="4.5544"/>
<line x1="191.938" y1="254.546" x2="261.547" y2="254.546" stroke="#8646C4" stroke-width="4.5544"/>
<line x1="212.563" y1="267.437" x2="299.361" y2="267.437" stroke="#3494CC" stroke-width="4.5544"/>
<line x1="212.563" y1="267.437" x2="299.361" y2="267.437" stroke="#BA75DF" stroke-width="4.5544"/>
<line x1="212.562" y1="282.047" x2="299.36" y2="282.047" stroke="#3494CC" stroke-width="4.5544"/>
<line x1="212.562" y1="282.047" x2="299.36" y2="282.047" stroke="#BA75DF" stroke-width="4.5544"/>
<line x1="242.642" y1="297.515" x2="329.439" y2="297.515" stroke="#3494CC" stroke-width="4.5544"/>
<line x1="242.642" y1="297.515" x2="329.439" y2="297.515" stroke="#BA75DF" stroke-width="4.5544"/>
<line x1="242.643" y1="313.843" x2="418.816" y2="313.843" stroke="#3494CC" stroke-width="4.5544"/>
<line x1="242.643" y1="313.843" x2="418.816" y2="313.843" stroke="#7ED8FE" stroke-width="4.5544"/>
<line x1="242.643" y1="326.735" x2="359.518" y2="326.735" stroke="#3494CC" stroke-width="4.5544"/>
<line x1="242.643" y1="326.735" x2="359.518" y2="326.735" stroke="#7ED8FE" stroke-width="4.5544"/>
<line x1="242.643" y1="313.843" x2="418.816" y2="313.843" stroke="#3494CC" stroke-width="4.5544"/>
<line x1="242.643" y1="313.843" x2="418.816" y2="313.843" stroke="#BA75DF" stroke-width="4.5544"/>
<line x1="242.643" y1="326.735" x2="359.518" y2="326.735" stroke="#3494CC" stroke-width="4.5544"/>
<line x1="242.643" y1="326.735" x2="359.518" y2="326.735" stroke="#BA75DF" stroke-width="4.5544"/>
<line x1="204.83" y1="380.876" x2="381.003" y2="380.876" stroke="#3494CC" stroke-width="4.5544"/>
<line x1="204.83" y1="380.876" x2="381.003" y2="380.876" stroke="#BA75DF" stroke-width="4.5544"/>
<line x1="177.159" y1="408.035" x2="353.332" y2="408.035" stroke="#3494CC" stroke-width="4.5544"/>
<line x1="177.159" y1="408.035" x2="353.332" y2="408.035" stroke="#BA75DF" stroke-width="4.5544"/>
<line x1="177.16" y1="421.762" x2="382.156" y2="421.762" stroke="#3494CC" stroke-width="4.5544"/>
<line x1="177.16" y1="421.762" x2="382.156" y2="421.762" stroke="#BA75DF" stroke-width="4.5544"/>
<line x1="177.16" y1="434.574" x2="353.333" y2="434.574" stroke="#3494CC" stroke-width="4.5544"/>
<line x1="177.16" y1="434.574" x2="353.333" y2="434.574" stroke="#BA75DF" stroke-width="4.5544"/>
<line x1="212.564" y1="339.626" x2="299.362" y2="339.626" stroke="#3494CC" stroke-width="4.5544"/>
<line x1="212.564" y1="339.626" x2="299.362" y2="339.626" stroke="#BA75DF" stroke-width="4.5544"/>
<line x1="191.938" y1="355.954" x2="242.642" y2="355.954" stroke="#3494CC" stroke-width="4.5544"/>
<line x1="191.938" y1="355.954" x2="242.642" y2="355.954" stroke="#8646C4" stroke-width="4.5544"/>
<line x1="177.329" y1="367.985" x2="220.298" y2="367.985" stroke="#3494CC" stroke-width="4.5544"/>
<line x1="177.329" y1="367.985" x2="220.298" y2="367.985" stroke="#8646C4" stroke-width="4.5544"/>
<line x1="439.809" y1="244.048" x2="451.706" y2="244.048" stroke="#3494CC" stroke-width="1.23951"/>
<line x1="439.809" y1="244.048" x2="451.706" y2="244.048" stroke="#3494CC" stroke-width="1.23951"/>
<line x1="439.811" y1="249.54" x2="451.708" y2="249.54" stroke="#3494CC" stroke-width="1.23951"/>
<line x1="439.811" y1="249.54" x2="451.708" y2="249.54" stroke="#3494CC" stroke-width="1.23951"/>
<line x1="443.472" y1="254.116" x2="456.284" y2="254.116" stroke="#3494CC" stroke-width="1.23951"/>
<line x1="443.472" y1="254.116" x2="456.284" y2="254.116" stroke="#7ED8FE" stroke-width="1.23951"/>
<line x1="443.472" y1="260.521" x2="469.096" y2="260.521" stroke="#3494CC" stroke-width="1.23951"/>
<line x1="443.472" y1="260.521" x2="469.096" y2="260.521" stroke="#7ED8FE" stroke-width="1.23951"/>
<line x1="443.472" y1="265.098" x2="460.86" y2="265.098" stroke="#3494CC" stroke-width="1.23951"/>
<line x1="443.472" y1="265.098" x2="460.86" y2="265.098" stroke="#7ED8FE" stroke-width="1.23951"/>
<line x1="443.472" y1="260.521" x2="469.096" y2="260.521" stroke="#3494CC" stroke-width="1.23951"/>
<line x1="443.472" y1="260.521" x2="469.096" y2="260.521" stroke="#7ED8FE" stroke-width="1.23951"/>
<line x1="443.472" y1="265.098" x2="460.86" y2="265.098" stroke="#3494CC" stroke-width="1.23951"/>
<line x1="443.472" y1="265.098" x2="460.86" y2="265.098" stroke="#7ED8FE" stroke-width="1.23951"/>
<line x1="439.811" y1="269.673" x2="451.708" y2="269.673" stroke="#3494CC" stroke-width="1.23951"/>
<line x1="439.811" y1="269.673" x2="451.708" y2="269.673" stroke="#3494CC" stroke-width="1.23951"/>
<line x1="437.065" y1="275.165" x2="443.472" y2="275.165" stroke="#3494CC" stroke-width="1.23951"/>
<line x1="437.065" y1="275.165" x2="443.472" y2="275.165" stroke="#275DCF" stroke-width="1.23951"/>
<line x1="434.319" y1="278.825" x2="439.81" y2="278.825" stroke="#3494CC" stroke-width="1.23951"/>
<line x1="434.319" y1="278.825" x2="439.81" y2="278.825" stroke="#275DCF" stroke-width="1.23951"/>
<path fill-rule="evenodd" clip-rule="evenodd" d="M317.957 425.654L323.029 441.031L315.252 454.015L332.496 472.126L343.991 463.583L358.868 469.734L363.602 484.427H387.269L390.989 469.734L404.513 463.583L417.361 469.734L434.605 454.015L427.504 441.031L432.914 428.046L447.453 423.604V411.302V399.001L432.914 394.559L427.504 379.182L434.605 368.589L417.361 352.871L404.513 359.021L390.989 352.871L387.269 338.177H363.602L358.868 352.871L343.991 359.021L332.496 350.479L315.252 368.589L323.029 379.182L317.957 396.951L302.742 399.001V411.302V423.604L317.957 425.654ZM375.097 438.639C360.439 438.356 348.687 426.114 349.063 411.302C349.429 396.87 360.815 385.608 375.097 385.333C389.665 385.051 401.773 396.582 402.146 411.302C402.529 426.395 390.033 438.927 375.097 438.639Z" fill="#7ED8FE"/>
<path fill-rule="evenodd" clip-rule="evenodd" d="M392.666 314.236L396.982 327.347L390.364 338.418L405.039 353.86L414.823 346.576L427.484 351.82L431.512 364.348H451.655L454.82 351.82L466.33 346.576L477.265 351.82L491.94 338.418L485.897 327.347L490.501 316.275L502.875 312.488V301.999V291.511L490.501 287.723L485.897 274.613L491.94 265.581L477.265 252.179L466.33 257.423L454.82 252.179L451.655 239.651H431.512L427.484 252.179L414.823 257.423L405.039 250.139L390.364 265.581L396.982 274.613L392.666 289.763L379.717 291.511V301.999V312.488L392.666 314.236ZM441.296 325.307C428.82 325.066 418.819 314.629 419.139 301.999C419.45 289.694 429.14 280.092 441.296 279.857C453.693 279.617 463.998 289.449 464.316 301.999C464.642 314.868 454.007 325.553 441.296 325.307Z" fill="#7ED8FE"/>
<path fill-rule="evenodd" clip-rule="evenodd" d="M317.957 425.654L323.029 441.031L315.252 454.015L332.496 472.126L343.991 463.583L358.868 469.734L363.602 484.427H387.269L390.989 469.734L404.513 463.583L417.361 469.734L434.605 454.015L427.504 441.031L432.914 428.046L447.453 423.604V411.302V399.001L432.914 394.559L427.504 379.182L434.605 368.589L417.361 352.871L404.513 359.021L390.989 352.871L387.269 338.177H363.602L358.868 352.871L343.991 359.021L332.496 350.479L315.252 368.589L323.029 379.182L317.957 396.951L302.742 399.001V411.302V423.604L317.957 425.654ZM375.097 438.639C360.439 438.356 348.687 426.114 349.063 411.302C349.429 396.87 360.815 385.608 375.097 385.333C389.665 385.051 401.773 396.582 402.146 411.302C402.529 426.395 390.033 438.927 375.097 438.639Z" fill="#BA75DF"/>
<path fill-rule="evenodd" clip-rule="evenodd" d="M392.666 314.236L396.982 327.347L390.364 338.418L405.039 353.86L414.823 346.576L427.484 351.82L431.512 364.348H451.655L454.82 351.82L466.33 346.576L477.265 351.82L491.94 338.418L485.897 327.347L490.501 316.275L502.875 312.488V301.999V291.511L490.501 287.723L485.897 274.613L491.94 265.581L477.265 252.179L466.33 257.423L454.82 252.179L451.655 239.651H431.512L427.484 252.179L414.823 257.423L405.039 250.139L390.364 265.581L396.982 274.613L392.666 289.763L379.717 291.511V301.999V312.488L392.666 314.236ZM441.296 325.307C428.82 325.066 418.819 314.629 419.139 301.999C419.45 289.694 429.14 280.092 441.296 279.857C453.693 279.617 463.998 289.449 464.316 301.999C464.642 314.868 454.007 325.553 441.296 325.307Z" fill="#BA75DF"/>
</g>
<defs>
<filter id="filter0_d_256_283" x="108.033" y="560.868" width="376.938" height="28.3896" filterUnits="userSpaceOnUse" color-interpolation-filters="sRGB">
<feFlood flood-opacity="0" result="BackgroundImageFix"/>
<feColorMatrix in="SourceAlpha" type="matrix" values="0 0 0 0 0 0 0 0 0 0 0 0 0 0 0 0 0 0 127 0" result="hardAlpha"/>
<feOffset dy="3.44531"/>
<feComposite in2="hardAlpha" operator="out"/>
<feColorMatrix type="matrix" values="0 0 0 0 0.666536 0 0 0 0 0.211765 0 0 0 0 0.768627 0 0 0 1 0"/>
<feBlend mode="normal" in2="BackgroundImageFix" result="effect1_dropShadow_256_283"/>
<feBlend mode="normal" in="SourceGraphic" in2="effect1_dropShadow_256_283" result="shape"/>
</filter>
<clipPath id="clip0_256_283">
<rect width="588" height="650.016" fill="white"/>
</clipPath>
</defs>
</svg>
